<?xml version="1.0" standalone="no"?>
<!DOCTYPE svg PUBLIC "-//W3C//DTD SVG 1.1//EN" "http://www.w3.org/Graphics/SVG/1.1/DTD/svg11.dtd" >
<svg xmlns="http://www.w3.org/2000/svg">
<metadata>
This is a custom SVG webfont generated by Font Squirrel.
Designer    : Christopher Schwing
Foundry     : Existence Day
</metadata>
<defs>
<font id="webfontl3rDi5Bq" horiz-adv-x="475" >
<font-face units-per-em="1000" ascent="1000" descent="0" />
<missing-glyph horiz-adv-x="250" />
<glyph unicode=" "  horiz-adv-x="250" />
<glyph unicode="&#x09;" horiz-adv-x="250" />
<glyph unicode="&#xa0;" horiz-adv-x="250" />
<glyph unicode="!" horiz-adv-x="161" d="M37 69q12 0 22 -5.5t15 -14.5q9 -17 -2 -34q-11 -15 -33 -15q-8 0 -17 2.5t-16 9.5q-5 6 -6 13v5q1 3 3 7q3 7 8 14q2 2 2.5 4.5t2.5 4.5q1 4 7 6q6 3 14 3zM8 432q-2 64 -1.5 128t2.5 127q1 32 1 65.5t1 65.5v37.5t-1 37.5v59q0 2 -1 3q0 14 1.5 26t10.5 17q10 6 21 -3 q4 -5 6.5 -13t3 -17t0.5 -17v-12q-3 -73 -3 -146v-145v-75v-47v-86t1 -86v-41v-32t1 -31q0 -4 0.5 -8.5t1.5 -9.5l2 -21t0 -21.5t-5 -19t-13 -12.5l-1 -1q-1 0 -2 -0.5t-2 -0.5h-5q-11 0 -13 5.5t-2 6.5v2q-5 11 -5.5 30t1.5 46q1 5 1 10q1 49 1 93t-2 86z" />
<glyph unicode="&#x22;" horiz-adv-x="209" d="M30 830q-2 0 -1 0t2.5 0.5t2 0.5t-3.5 -1q-12 -3 -18 2t-7.5 13t-0.5 17.5t1 17.5q0 24 -1 48.5t-3 48.5q-2 7 -0.5 13.5t14.5 8.5q3 1 12 1t8 -5q7 -7 5 -18t-3 -19q-1 -12 -0.5 -24t1.5 -24q1 -13 1 -25.5v-26.5q0 -8 0.5 -16.5t-9.5 -11.5zM83 999q2 0 1 0t-2.5 -0.5 t-2 -0.5t3.5 1q13 3 18.5 -1.5t7.5 -12.5t1.5 -18t-0.5 -18q-1 -24 0.5 -48.5t2.5 -48.5q2 -7 0.5 -13.5t-14.5 -8.5q-3 -1 -12.5 -1t-8.5 5q-6 7 -4 18t2 19q1 24 0 48q-1 14 -1.5 26.5t-0.5 25.5q0 8 -0.5 17t9.5 11z" />
<glyph unicode="#" horiz-adv-x="440" d="M113 304q-11 -5 -21 3q-9 7 -10.5 24t-1.5 24q2 60 1 120t-3 119q0 13 -0.5 25.5t-0.5 24.5q-2 15 0 30t17 22h1q1 1 5 1h5q10 0 12 -4.5t2 -5.5v-1q8 -16 3 -63v-8q-1 -40 -1 -76t2 -71q2 -29 1.5 -57.5t-0.5 -57.5v-10q0 -1 0.5 -1.5t0.5 -1.5q1 -12 -1 -21.5 t-11 -14.5zM237 696q13 5 21 -3q9 -7 10.5 -24t1.5 -24q-2 -60 -1 -120t3 -120q1 -12 1 -24.5v-25.5q2 -15 0.5 -29.5t-17.5 -21.5q-2 -1 -5 -1q-2 0 -3 -0.5t-2 -0.5q-11 0 -13 5t-2 6v1q-5 9 -5 24.5t2 38.5q0 2 0.5 4t0.5 3q1 41 0.5 77t-2.5 71q-1 29 -1 58v58v10v3 q-1 11 0.5 20.5t10.5 14.5zM2 564q-5 11 2 21q6 9 21 10.5t21 1.5q53 -2 105.5 -1t104.5 3h22t22 1q14 2 27 0t19 -17v-1q0 -3 1 -5v-5q0 -10 -4 -12t-5 -2h-1q-8 -5 -22 -5.5t-34 1.5q-3 1 -6 1q-35 1 -67.5 1t-62.5 -2q-25 -2 -50 -2t-51 1q-6 0 -9 -1h-3 q-10 -1 -18.5 0.5t-11.5 11.5zM345 432q5 -12 -2 -21q-6 -9 -21 -10.5t-21 -1.5q-52 2 -104.5 1t-103.5 -3q-11 -1 -21.5 -1h-21.5q-14 -2 -26.5 -0.5t-18.5 17.5q-1 2 -1 5v5q0 11 4 13t5 2h1q13 8 54 3q2 0 4 -0.5t3 -0.5q35 -1 66.5 -0.5t61.5 2.5q25 1 50 1h50h9h3 q10 1 18 -0.5t12 -10.5z" />
<glyph unicode="$" horiz-adv-x="398" d="M308 724q1 -1 1 -4q2 -7 3 -16.5t-7 -16.5q-7 -5 -13 -5q-8 0 -13 6t-7.5 14.5t-3 17.5t-0.5 15q-3 99 -43 144q-30 33 -64 26q-43 -7 -67 -30q-18 -16 -29 -35t-17 -39t-8 -39.5t-2 -36.5q0 -45 17 -96q8 -22 20 -37.5t26 -29.5t30 -26.5l32 -24.5l34 -26.5t33 -30.5 q32 -32 49 -70t23 -89q3 -26 -1 -51.5t-9 -51.5q-5 -24 -13.5 -44t-23.5 -40q-19 -27 -52.5 -44t-66.5 -17h-10t-10 2q-20 4 -36.5 17t-28.5 32t-19.5 40.5t-11.5 41.5q-5 19 -6 37.5t-3 36.5q0 6 -0.5 11.5t-0.5 11.5q-1 2 -1 3t-1 3q-1 7 -1.5 14t2.5 14q6 13 18 13 q10 0 16 -8t6.5 -19.5t-1.5 -21.5v-11q1 -22 4.5 -45t7.5 -42q3 -15 11 -34.5t25 -36.5q28 -25 66 -11q10 3 18 7t15 9q1 1 2.5 2t3.5 3q8 6 12.5 10t7.5 6q2 4 4 7.5t4 6.5q2 4 4 7.5t3 5.5l9 33q2 4 4 12q5 20 9.5 43t1.5 47q-5 40 -25.5 81t-49.5 68q-11 11 -23 19.5 l-25 17.5q-5 5 -11 8.5t-11 8.5q-19 14 -34 30.5t-29 33.5q-27 34 -41 84.5t-10 102.5q3 48 19.5 89t43.5 69q17 17 40.5 25.5t42.5 12.5q15 3 28 3q32 0 64 -22q16 -11 26 -27t16.5 -34.5t10.5 -38t7 -37.5l3 -15l2 -14l2 -14q1 -5 1 -10.5t1 -10.5zM136 36v16t1 16 q0 5 0.5 10.5t0.5 10.5v17q-1 101 -1 204t-2 206v64.5t-1 64.5v118v26q-2 45 0 94q0 25 -3 52q-1 15 -1 30.5t8 27.5q2 5 7 6.5t10 -0.5l1 -1h2q4 -1 11 -3.5t6 -12.5q5 -10 4.5 -21t-1.5 -19l-1 -3q-2 -17 -2 -35v-38q2 -38 2 -76t-1 -76v-60q1 -69 1 -136.5v-136.5 q1 -42 1 -83.5v-83.5q0 -47 3 -101v-14.5t-1 -14.5v-19v-6.5t1 -6.5q1 -6 1.5 -13t-1.5 -14q-4 -25 -20 -25q-13 0 -18.5 13.5t-6.5 22.5z" />
<glyph unicode="%" horiz-adv-x="435" d="M301 970q3 9 13 21t22 8q16 -5 11 -31q-1 -8 -3.5 -14.5t-4.5 -12.5q-4 -8 -5 -13q-2 -5 -3 -9.5t-3 -9.5q-2 -8 -4 -15t-5 -14l-17.5 -51t-16.5 -49l-27 -83.5l-26 -83.5l-87 -273q-5 -15 -9.5 -30t-9.5 -30l-24 -76l-25 -76q-14 -40 -21 -73l-1 -3l-5 -19.5t-10 -20.5 q-2 -10 -9.5 -10.5t-11.5 -0.5q-2 0 -3 1v-1q-13 -2 -15 11q-3 14 1.5 30t10.5 30q11 25 19 52l14.5 47t15.5 47l8 26q10 29 19 58.5t19 58.5l20 64.5t21 64.5l66 205.5l65 204.5l6 16q2 5 3 11t3 11q3 16 9 32zM283 44h-3l-1 -2q-15 -6 -22 -1q-8 4 -11.5 11.5l-5.5 11.5 q-2 8 -3 16.5l-2 16.5q-1 4 -1 7.5t-1 6.5q-2 11 -2 21.5v21.5l-1 8q-1 47 0.5 94t3.5 98q0 8 0.5 16t4.5 13q3 3 5 6q6 6 8 10q1 0 4 1q5 1 12 1t14 -5q6 -5 11 -19l3 -9q7 -17 8.5 -34.5t2.5 -35.5q0 -5 0.5 -9.5t0.5 -9.5q1 -8 1 -16.5v-16.5v-14v-11t1 -12q0 -6 0.5 -12 t0.5 -12q-1 -27 -1.5 -50.5t-1.5 -45.5q-2 -22 -8 -31t-17 -14zM346 134q-2 11 0 20v8v17q0 10 -0.5 19t1.5 18q2 10 1.5 19.5t-1.5 18.5v14q-1 14 -1 27t-2 27q-2 20 -7.5 45.5t-22.5 47.5q-17 21 -46 21t-48 -19q-17 -17 -20 -37.5t-4 -39.5v-15q-1 -13 -1.5 -25.5 t-0.5 -26.5q1 -5 0.5 -10t-0.5 -10q-1 -7 -1.5 -14t0.5 -14q1 -13 0 -26v-14v-26q1 -7 1 -13.5v-13.5q-1 -9 0 -18t3 -17q0 -4 0.5 -7.5t0.5 -8.5q2 -11 4 -23.5t8 -23.5q3 -5 14 -18.5t29 -15.5h8q11 0 22 3q6 2 10 4q6 1 9 3q8 0 10 6l1 1l8 8q11 9 17 23q6 13 7.5 27 t1.5 27l1 2q0 7 -0.5 13t-1.5 12v5zM92 608h-3l-2 -2q-14 -5 -22 -2q-7 5 -10.5 12.5l-5.5 11.5q-3 8 -4 16.5l-2 16.5q0 4 -0.5 7.5t-0.5 6.5q-2 11 -2 21.5t-1 21.5v8q-2 47 -0.5 94t3.5 98q1 8 1.5 15.5t4.5 12.5q1 2 5 6q2 2 4 5l4 6h3q10 2 12 2q8 0 15 -5q4 -3 6 -7.5 t4 -12.5q2 -3 4 -9q6 -16 7.5 -33.5t3.5 -35.5v-9.5t1 -9.5v-34v-13q0 -5 0.5 -11t0.5 -12q1 -6 1 -12.5v-12.5q0 -52 -3 -95q-2 -22 -8 -31.5t-16 -13.5zM156 818q0 4 -0.5 7t-0.5 7q0 14 -0.5 27t-1.5 27q-2 20 -7.5 45.5t-22.5 47.5q-18 21 -47 21t-48 -19 q-17 -17 -20 -37.5t-3 -39.5v-7.5t-1 -8.5q-1 -12 -1.5 -24.5t0.5 -26.5v-10t-1 -10q0 -7 -0.5 -14t0.5 -15v-25q0 -4 -0.5 -7t-0.5 -7q0 -7 0.5 -13.5t0.5 -12.5v-27q0 -9 1 -18t2 -17q1 -4 1 -7.5t1 -8.5q2 -11 3.5 -23.5t8.5 -23.5q3 -6 13.5 -19t29.5 -15h8q10 0 22 3 q6 2 10 4q6 2 8 2q7 1 11 7q0 1 1 1l4.5 4.5t3.5 2.5q5 5 9.5 10.5t7.5 13.5q5 13 6.5 26.5t2.5 27.5v2q1 7 0.5 13t-1.5 11l-1 6v20v8v17v18.5t2 18.5q2 19 0 38z" />
<glyph unicode="'" horiz-adv-x="149" d="M49 830q-2 0 -1 0t2.5 0.5t2 0.5t-3.5 -1q-12 -3 -17.5 2t-7 13t-1 17.5t0.5 17.5q0 24 -1 48.5t-3 48.5q-2 7 0 13.5t14 8.5q3 1 12 1t8 -5q7 -7 5 -18t-3 -19q-1 -12 -0.5 -24t1.5 -24q1 -13 1 -25.5v-26.5q0 -8 1 -16.5t-10 -11.5z" />
<glyph unicode="(" horiz-adv-x="209" d="M4 459q0 13 0 5t-0.5 -18.5t-0.5 -12t1 25.5q2 71 3 140.5t6 139.5q3 50 10.5 99t30.5 94q6 11 14 21l16 21l8.5 13.5t10.5 10.5q7 3 11.5 0.5t6.5 -8t2.5 -12.5t-0.5 -12q-3 -17 -17 -29t-22 -27t-12 -32.5l-8 -34.5l-2 -9q-6 -28 -9 -59q1 -17 -1 -33t-3 -33 q0 -17 1 -32.5t1 -32.5q0 -36 -2.5 -71.5t-3.5 -71.5q-1 -29 0 -58t-1 -58l-4 -60t-1 -60q2 -14 1.5 -27t1.5 -27q2 -10 4 -27.5t4 -23.5q4 -23 9.5 -48t22.5 -42q6 -6 14 -12.5t14 -14.5t8 -16.5t-3 -18.5t-13 -8t-14 7q-5 4 -7 7t-5 8q-3 4 -6.5 6t-7.5 6q-13 12 -22 29 t-15 36t-10 38.5t-7 36.5q-10 71 -8 142.5z" />
<glyph unicode=")" horiz-adv-x="208" d="M120 459q2 -71 3.5 -142.5t-8.5 -142.5q-2 -17 -6 -36.5t-10 -38.5t-15.5 -36t-22.5 -29q-4 -4 -7 -6t-6 -6q-4 -5 -5.5 -8t-6.5 -7q-6 -5 -14 -7t-13 8q-6 10 -3.5 18.5t8.5 16.5t14 14.5t14 12.5q17 17 22.5 42t9.5 48q1 6 3.5 23.5t4.5 28.5q2 13 1.5 26t1.5 27 q0 30 -1.5 60t-3.5 60q-2 29 -1 58t0 58q-1 36 -3.5 71.5t-2.5 71.5q0 17 1 32.5t0 32.5q0 17 -2 33t-1 33q-3 31 -9 59l-2 9l-8.5 34.5t-12.5 32.5t-21.5 27t-16.5 29q-1 5 -1 12t2.5 12.5t6.5 8t12 -0.5q5 -2 10.5 -10.5l8.5 -13.5l15.5 -21t13.5 -21q23 -45 31 -94 t11 -99q5 -70 6 -139.5t3 -140.5z" />
<glyph unicode="*" horiz-adv-x="319" d="M211 804q-3 -7 -11 -9t-15.5 5l-10.5 10l-50.5 51l-51.5 49q-5 5 -11 10t-11 10q-8 5 -13 12.5t0 17.5v1l2 2q2 2 2 3q5 5 8 4t3 -2h1q10 -3 28 -25q1 -2 3 -4l32.5 -32l30.5 -29l25 -24l24 -24q1 -2 2 -2.5t2 -1.5l2 -2q5 -5 8.5 -9.5t0.5 -10.5zM40 795q-8 3 -10 11 q-1 8 5.5 15.5t9.5 10.5q26 24 51 50l49 52l10.5 10.5t10.5 11.5q5 7 12 12.5t18 0.5q1 -1 1.5 -1t1.5 -1l2 -2q5 -5 4 -8t-1 -4h-1q-3 -10 -25 -28q-2 -3 -3 -3l-32.5 -32.5l-29.5 -30.5q-11 -13 -23.5 -25l-24.5 -24q-1 -2 -2 -2.5t-2 -2.5l-1 -1q-5 -5 -9.5 -8.5 t-10.5 -0.5zM127 766q-9 -4 -15 1t-7 14.5t-1 14.5q2 35 1 71.5l-2 71.5q-1 8 -1 15v15q-2 8 -0.5 17t12.5 13q1 1 3 1h4q7 0 8 -2.5t1 -3.5v-1q6 -9 3 -37q0 -2 -0.5 -3t-0.5 -2v-46t1 -42q1 -17 1 -34.5v-34.5v-6v-1q1 -8 0 -13.5t-7 -7.5zM1 873q-3 8 2 15q4 6 14 7t14 1 q36 -2 72 -1l71 2q8 1 15 1h15q9 2 17.5 0.5t13.5 -12.5v-3v-4q0 -7 -2.5 -8t-3.5 -1q-10 -6 -38 -3h-3q-1 0 -1 1h-46t-42 -1q-17 -1 -34.5 -1h-34.5h-6h-2q-7 -1 -13 0t-8 7z" />
<glyph unicode="+" horiz-adv-x="436" d="M186 305q-11 -6 -21 2q-9 8 -10.5 24.5t-1.5 23.5q2 60 1 120t-3 120q0 12 -0.5 24.5t-0.5 24.5q-2 15 0 30t17 22h1q1 1 5 1h5q10 0 12 -4.5t2 -5.5v-1q8 -16 3 -63v-8q-1 -40 -1 -76t2 -71q2 -29 1.5 -57.5t-0.5 -57.5v-10q0 -1 0.5 -1.5t0.5 -1.5q1 -12 -1 -21.5 t-11 -13.5zM2 487q-5 12 2 21q6 9 21 10.5t21 1.5q53 -2 105.5 -1t104.5 3q11 0 22 0.5t22 0.5q14 2 27 0.5t19 -17.5q0 -4 1 -5v-5q0 -11 -4 -13t-5 -2h-1q-14 -8 -56 -3h-6q-35 1 -67.5 1t-62.5 -2q-25 -1 -50 -1h-51h-9h-3q-10 -1 -18.5 0.5t-11.5 10.5z" />
<glyph unicode="," horiz-adv-x="157" d="M40 68q2 0 0.5 0h-3.5h-2h5q14 -2 17.5 -12.5t1 -25t-7.5 -31t-8 -29.5q1 -7 -4.5 -9t-12.5 -0.5t-13 6.5t-7 13q0 5 3 19.5t8 30t11 27.5t12 11z" />
<glyph unicode="-" horiz-adv-x="449" d="M2 487q-5 12 2 21q6 9 21 10.5t21 1.5q53 -2 105.5 -1t104.5 3q11 0 22 0.5t22 0.5q14 2 27 0.5t19 -17.5q0 -4 1 -5v-5q0 -11 -4 -13t-5 -2h-1q-14 -8 -56 -3h-6q-35 1 -67.5 1t-62.5 -2q-25 -1 -50 -1h-51h-9h-3q-10 -1 -18.5 0.5t-11.5 10.5z" />
<glyph unicode="." horiz-adv-x="175" d="M37 69q12 0 22 -5.5t15 -14.5q9 -17 -2 -34q-11 -15 -33 -15q-8 0 -17 2.5t-16 9.5q-5 6 -6 13v5q1 3 3 7q3 7 8 14q2 2 2.5 4.5t2.5 4.5q1 4 7 6q6 3 14 3z" />
<glyph unicode="/" horiz-adv-x="407" d="M300 971q3 8 12.5 20t21.5 8q15 -4 12 -30q-1 -8 -3.5 -14.5t-5.5 -13.5q-2 -3 -2.5 -6t-2.5 -6q-2 -5 -3 -10l-2 -10l-4 -14t-5 -15q-10 -26 -18 -50.5l-16 -49.5l-27 -83.5l-26 -83.5l-43.5 -137l-43.5 -137q-5 -15 -9.5 -30t-9.5 -30l-23 -76l-25 -76q-14 -40 -21 -73 l-1 -3q-2 -8 -4.5 -19.5t-10.5 -20.5q-2 -10 -9.5 -10.5t-11.5 -0.5l-2 1h-1q-5 -2 -9.5 1.5t-5.5 8.5q-3 14 1.5 30t10.5 30q11 25 19 52l14 47.5t15 46.5l9 26l18.5 59l18.5 59q11 32 20.5 64.5t20.5 64.5l66 205.5l65 204.5l5 17q2 5 3 10.5t3 10.5q2 8 4.5 16.5 t5.5 16.5z" />
<glyph unicode="0" d="M395 295q0 -8 1 -12q2 -14 3 -28t0 -28l-1 -5q-1 -30 -4 -62t-15 -59q-7 -14 -16.5 -26t-20.5 -23q-2 -1 -8 -7t-13 -12q-1 -1 -1 -2t-1 -2q-3 -4 -9 -6q-7 -2 -13 -4t-13 -4q-5 -2 -10.5 -4l-11.5 -4q-22 -7 -47 -7h-8t-8 1q-18 2 -32.5 10.5t-25.5 19.5t-18 21.5 t-10 16.5q-13 24 -17.5 51t-7.5 53v2q-1 10 -2 19l-2 18q-3 20 -5.5 40t-1.5 41v33t-1 33q-1 15 -1 30.5v31.5q0 8 0.5 16.5t0.5 16.5q1 16 1.5 32t-1.5 32q-2 17 -1 32.5l2 31.5q1 13 1.5 26t0.5 25q-1 32 0 62.5t3 60.5q1 9 1 18v18q0 22 1.5 44.5t6.5 44t14.5 42 t27.5 38.5t43.5 28.5t54.5 10.5q28 0 52 -11t40 -31q19 -24 31.5 -51t20 -55t11 -55t5.5 -49q4 -63 6 -128q0 -8 0.5 -17t0.5 -18q2 -22 2 -44t-2 -44q-3 -23 -3.5 -46t-0.5 -46q0 -10 0.5 -19.5t-0.5 -20.5v-17q-1 -14 -1 -26.5t2 -26.5zM274 57q37 15 55.5 46t21.5 86 q3 54 4.5 110.5t2.5 119.5q0 15 -0.5 30.5t-1.5 30.5l-3 54v32q1 20 1 41t-2 42l-3 45q-2 45 -6.5 88.5t-20.5 85.5l-4 10.5l-4 10.5q-6 17 -12.5 31.5t-20.5 25.5q-21 17 -51 17q-12 0 -31 -3q-11 -2 -15.5 -4t-9.5 -9q-5 -6 -8.5 -11t-8.5 -10q-8 -10 -13 -17 q-13 -17 -15.5 -38.5t-3.5 -42.5q-5 -125 -7.5 -237.5t-0.5 -224.5l1 -20q1 -28 1.5 -53.5t4.5 -51.5q1 -8 1.5 -16.5t2.5 -17.5q2 -21 4.5 -42.5t9.5 -41.5q5 -14 16.5 -35.5t33.5 -34.5q29 -17 80 4h1h1v0z" />
<glyph unicode="1" d="M174 844q-9 -3 -14 2q-7 7 -4 14q11 32 34 55t49 43l22.5 19t20.5 19q3 4 9 4h8q13 0 13 -12q4 -54 4.5 -108t0.5 -104v-47.5t1 -44.5q1 -54 0.5 -102.5t-1.5 -95.5q0 -34 -0.5 -66t-0.5 -66v-70v-117t2 -121q0 -4 1 -6q1 -8 0 -21t-15 -18q-2 -1 -5 -1q-5 0 -10 5 q-10 11 -10.5 25.5t0.5 26.5q1 5 1 15v143.5v129.5t-0.5 121t-0.5 118v165.5t-1 184.5q-4 -5 -9 -8q-6 -6 -10 -9q-5 -5 -10.5 -8.5t-10.5 -8.5l-17 -17l-22 -22t-25 -17z" />
<glyph unicode="2" d="M408 846q0 -4 0.5 -7.5t0.5 -7.5q1 -10 1.5 -19t-1.5 -17q0 -1 -0.5 -2t-0.5 -2v-2q0 -37 -9.5 -72.5t-20.5 -64.5l-7.5 -21.5t-5.5 -19.5q0 -2 -3 -5q-6 -7 -11.5 -15t-10.5 -16l-10 -13.5l-10 -13.5l-1 -1q-10 -10 -20.5 -19l-21.5 -19q-45 -40 -87 -82t-67 -96 q-3 -18 -6 -33q-5 -22 -8.5 -41.5t-4.5 -42.5q0 -8 0.5 -17t1.5 -17q1 -6 1.5 -12t0.5 -11q1 -17 1 -33.5v-32.5v-48q20 -1 41.5 -1h45.5h54t53 1h50q2 0 3 0.5t3 0.5t5 0.5t6 0.5q14 0 18.5 -6.5t6.5 -11.5q1 -4 -1 -10q-6 -11 -15.5 -12.5t-13.5 -1.5q-5 0 -7 1h-5h-8 q-24 0 -47.5 -0.5t-46.5 -0.5q-32 -1 -63.5 -1h-63.5h-2q-4 0 -7.5 -0.5t-7.5 -0.5q-4 -1 -11 -1q-3 0 -6.5 0.5t-8.5 3.5q-14 10 -14.5 35.5t1.5 63.5q1 8 1 15.5v12.5q0 12 -0.5 23t-1.5 22q-2 17 -2.5 35.5t1.5 40.5v7q3 8 6 17t5 18q8 29 16.5 55t21.5 48q0 1 0.5 1 t0.5 1q47 63 129 133q23 20 42 40t36 49q18 30 30.5 68.5t16 79.5t-2.5 81t-24 73q-8 3 -14.5 6.5l-13.5 7.5q-15 8 -29 14t-29 6q-8 0 -13 -2.5t-12 -5.5l-8 -4t-9 -4l-6 -2l-6 -2q-9 -4 -16.5 -7t-12.5 -7q-7 -6 -15 -16.5t-15 -22.5t-12.5 -25t-8.5 -23q-2 -10 -2 -21 t1 -23v-29q0 -4 -0.5 -7t-0.5 -7q-1 -7 -1 -13v-11q0 -4 2 -10q2 -8 3 -16t-4 -17q-3 -5 -8 -7t-10 2q-18 11 -20 31.5t0 37.5v9q2 17 0 35q-1 12 -1 24t2 23q3 18 10 37t17 36t22.5 31.5t26.5 23.5q10 7 19.5 10.5t18.5 6.5q10 3 18.5 6.5t17.5 9.5q4 2 6 2h39q3 0 7 -2 q7 -5 15.5 -8t18.5 -6q14 -5 27 -10.5t23 -14.5q34 -32 38 -113z" />
<glyph unicode="3" d="M407 735q4 -57 3 -106t-22 -98q-2 -6 -5.5 -12l-6.5 -11q-2 -2 -2.5 -4.5t-2.5 -4.5l-2 -5q-10 -18 -19.5 -33t-26.5 -26q26 -15 43 -41t26.5 -57.5t12 -66.5t-0.5 -68q-1 -7 -3 -16l-4 -18q-2 -5 -3 -10t-1 -7q1 -8 -2 -18t-7.5 -20t-9 -18.5t-7.5 -12.5 q-14 -22 -28.5 -35.5t-37.5 -24.5q-8 -4 -32 -13t-52 -9q-24 0 -40 9q-9 5 -24.5 16.5t-23.5 18.5q-13 12 -20.5 27l-14.5 30l-8 18t-9 17l-2 4q-4 20 -6 41t-3 36v6q-2 18 -1.5 37t9.5 31q3 4 8 4.5t9 -1.5q14 -10 14.5 -24.5t-1.5 -25.5t-1 -14q1 -17 3 -36.5t7 -35.5 l16.5 -42.5t23.5 -33.5q3 -2 11 -6q4 -2 7.5 -4t6.5 -4q6 -4 8 -6q10 -7 17.5 -10.5t21.5 -3.5h1q16 0 28.5 4t26.5 10l11 4.5t12 4.5q68 50 56 203q-3 39 -12.5 64.5t-29.5 44.5q-4 3 -11.5 7.5t-16.5 8.5t-18 7.5t-15 4.5q-20 3 -45 3q-19 0 -36.5 1.5t-31.5 7.5 q-6 2 -8 9t0.5 12t4.5 7q5 8 14.5 9.5t17.5 1.5q18 0 38 -3q8 -1 15.5 -1.5t12.5 -0.5q46 0 73.5 24t44.5 78q12 40 12 75q0 44 -2 88t-8 83.5t-17.5 72t-31.5 55.5q-8 9 -23 14t-32 5q-18 0 -35 -5t-28 -14q-33 -25 -52.5 -68t-20.5 -92q0 -5 0.5 -9t0.5 -9q2 -11 2 -23.5 t-5 -25.5q-5 -12 -16 -8q-9 3 -13.5 8.5t-6.5 12t-2 13v11.5v7v5q-1 10 -1.5 20t1.5 20q4 37 19 73.5t38.5 66t53.5 47.5t65 18q20 0 44 -8q14 -5 27.5 -16t25 -26t20.5 -32.5t15 -33.5q9 -27 12.5 -62t6.5 -71z" />
<glyph unicode="4" d="M77 415q-7 0 -11 6t-1 12q8 23 18 43.5t22 42.5l12.5 24.5t12.5 26.5l74.5 159l88.5 187q5 10 9 19.5l8 19.5l8 19.5l8 18.5q5 7 11 7h6q8 0 11 -8q8 -20 8 -48t-2 -59q-1 -11 -1.5 -21.5t-0.5 -21.5q-1 -48 -1 -95.5v-95.5t0.5 -96.5t-0.5 -99.5h6q5 1 13 1q6 0 14 -1.5 t16 -8.5q3 -2 5 -8q0 -6 -3 -10q-9 -13 -32 -13q-5 0 -9.5 0.5t-9.5 1.5q0 -42 -1 -80l-2 -75q-2 -54 -2.5 -104t1.5 -103q0 -3 0.5 -6.5t0.5 -6.5q2 -8 2.5 -16t-2.5 -17t-11 -9h-3q-17 5 -20.5 20t-3.5 26v6q-1 26 -0.5 54.5t1.5 57.5q1 13 1 25v24q1 36 1 63.5v54.5v39 t1 45q-44 3 -105 3q-33 0 -65 -0.5t-58 -1.5l-15 -1v0zM320 455q1 45 1.5 98.5l1 111l1 117t0.5 117.5l-25.5 -52l-24.5 -52l-81 -168.5t-77 -171.5h87h117v0z" />
<glyph unicode="5" d="M78 485q-2 43 -3.5 92.5t-2 102t-1.5 104.5t-1 99q-1 24 -1 47t-1 44q0 13 13 13h1h3q1 0 1 1q5 5 11 5q11 -1 23 -1.5t26 -0.5q29 0 59.5 1t57.5 3q8 0 16.5 0.5t16.5 0.5q1 0 2.5 0.5t3.5 0.5q10 0 24 1t27 0q4 2 9 2q19 0 21 -20q0 -6 -2.5 -10.5t-4.5 -6.5 q-5 -5 -11 -6.5t-11 -1.5q-3 0 -5.5 0.5t-5.5 0.5h-6h-29q-21 0 -47 -0.5t-53 -1.5t-53 -2.5t-47 -4.5q-2 -71 -0.5 -146t3.5 -150q1 -38 1.5 -76t1.5 -76q4 4 6 7q14 14 33 24.5t42 21.5q3 2 5.5 2.5t5.5 2.5q11 5 22 9.5t22 4.5h7q2 2 5 2q1 0 1.5 0.5t1.5 0.5 q42 -2 59 -16t32.5 -38t23.5 -40q26 -62 25 -180q0 -2 -0.5 -3.5t-0.5 -3.5q4 -17 1 -48v-7q-3 -53 -19 -102.5t-41 -85.5q-1 -3 -4 -4q-11 -6 -21 -15q-9 -7 -18 -13t-20 -10q-6 -2 -15 0h-4q-3 -1 -5 -1.5t-4 -1.5q-3 -2 -6 -3t-8 -2h-8q-37 0 -75 24q-20 14 -36 36.5 t-24 49.5q-5 16 -6 33.5t-1 34.5q-1 7 -1 13.5v13.5q-1 6 -1.5 12t-1.5 11q-2 19 -2.5 36.5t12.5 29.5q8 7 16 2q12 -8 13.5 -20t0.5 -20q-1 -3 -1 -9v-2q3 -45 8.5 -89.5t25.5 -72.5q-1 0 6 -5q11 -10 31 -21.5t46 -11.5q16 0 28 4q13 4 29.5 15t22.5 22q9 16 21 44.5 t16 51.5q3 19 3.5 38t0.5 39q0 18 0.5 36.5t2.5 36.5q-7 141 -83 192h-2q-6 0 -12.5 1t-12.5 4q-16 -5 -33.5 -12t-33.5 -15t-29 -17.5t-21 -18.5q-5 -5 -8 -13q-5 -8 -11.5 -16t-17.5 -8h-2q-16 2 -19 18t-3 31v7v0z" />
<glyph unicode="6" d="M307 493q16 -5 47 -35q19 -18 30 -41t17 -46t8 -43.5t2 -32.5q1 -60 -13.5 -123t-40.5 -114q-1 -2 -4 -5q-5 -2 -8.5 -5t-7.5 -5l-34.5 -22t-37.5 -17q-12 -4 -27 -4q-19 0 -37 7t-33 16.5t-26.5 21t-18.5 20.5q-2 3 -4 7l-1 2q-5 5 -6.5 7.5l-4.5 7.5l-1 2h-1 q-2 2 -4.5 4t-4.5 5q-5 9 -8 19l-6 21l-6 21.5t-8 18.5q-2 3 -2 9q2 7 1.5 14t-1.5 15q-1 7 -1.5 13.5t-0.5 14.5q4 63 4 123.5v120.5q0 31 -0.5 59.5t0.5 57.5q-4 17 -2 36.5t6 39.5q2 10 3 19.5t2 20.5q1 14 1 29v29q0 29 1 58.5t11 53.5q21 51 65 92q4 4 8 4q8 0 18 5 l13.5 4.5t15.5 1.5q5 -1 15 -5q4 -2 7 -3l6 -2q3 0 6 -0.5t6 -0.5q9 0 17 -3q9 -3 20.5 -10.5t22 -16.5t19.5 -19t14 -17q8 -11 12 -23.5t9 -26.5q2 -6 3 -11.5t3 -11.5q11 -34 19.5 -69t3.5 -70q-2 -11 -13 -11h-5q-11 0 -17 6q-6 7 -6 15.5t1 15.5v6q-1 16 -3.5 34.5 t-7 38t-10.5 38t-12 33.5q-4 9 -9.5 15.5t-12.5 12.5q-5 4 -9 8t-8 9q-13 8 -21.5 11t-28.5 7l-3 1q-8 2 -14 3t-11 1q-6 0 -12.5 -2.5t-15.5 -10.5q-12 -9 -20.5 -22.5t-16.5 -28.5q-9 -18 -15.5 -43t-8.5 -44v-8.5t1 -10.5v-7q2 -24 2.5 -47t-6.5 -45q0 -12 -1 -24.5 t-3 -25.5l-2 -25.5t-1 -26.5q-1 -21 0 -43t3 -43l2 -37.5t1 -36.5q10 11 21.5 19.5l24.5 17.5l8 5l9 9q6 8 13 12q10 6 22.5 9.5t20.5 4.5q5 1 11 0t11 -2q6 -3 12 -3h6q4 1 14 1q15 0 24 -4zM287 61q27 12 42.5 33.5t23.5 58.5q5 23 9.5 52t6.5 58q3 33 2 60.5t-6 44.5 q-13 41 -46 66t-76 26q-24 0 -42 -13t-36 -29l-14.5 -12.5t-15.5 -11.5l-1 -2q-10 -18 -17.5 -35.5t-9.5 -40.5v-33q0 -6 0.5 -11.5t-0.5 -11.5v-18q-1 -26 -0.5 -49.5t8.5 -43.5l5 -7.5t6 -9.5q6 -8 8 -12q4 -6 8 -13l6 -10t6 -9q9 -14 32.5 -28.5t50.5 -14.5q6 0 16 2l4 2 q2 2 10 6q3 2 6.5 2.5t6.5 1.5q2 1 3.5 1t3.5 1z" />
<glyph unicode="7" d="M339 998q19 0 36.5 -2.5t30.5 -13.5q3 -3 5 -9q0 -11 -6 -17l-3 -3q-2 -8 -4 -13l-63 -198l-107.5 -338.5l-104.5 -341.5q-1 -4 -3 -14q-2 -11 -6 -22.5t-12 -21.5q-6 -4 -10 -4h-1q-6 0 -10 6q-10 14 -6.5 29t8.5 27l2 6t2 5l41.5 138.5l44.5 138.5l22.5 71.5l22.5 71.5 l25 80l24 80l39 130.5t42 130.5q2 5 2.5 9.5t2.5 9.5t2.5 9t2.5 9q-32 3 -73 3h-39.5t-39.5 -1t-38.5 -1.5t-35.5 -0.5t-30.5 0.5t-25.5 1.5q-8 2 -11 8t2 13q14 17 33 21.5t35 4.5q9 0 18.5 -0.5t18.5 -1.5q8 -1 15 -1.5t14 -0.5h9q13 0 27 0.5t28 0.5q14 1 26.5 1h25.5h10 h12v0z" />
<glyph unicode="8" d="M402 272q1 -6 1 -12v-11q2 -51 0 -97.5t-22 -83.5q0 -1 -0.5 -1t-0.5 -1q-56 -66 -137 -66h-2q-21 0 -42.5 4.5t-41 14t-35.5 23.5t-24 34q-10 22 -17.5 53t-9.5 56q-2 19 -0.5 42.5t5.5 47t9.5 44t12.5 35.5q2 5 4.5 8t5.5 7q3 3 5 7q11 17 23.5 32t31.5 26q-2 1 -3 2 t-3 2q-16 11 -31.5 25t-26.5 34q-7 13 -12 31t-8.5 37t-5.5 36.5t-3 30.5q-2 21 -1.5 42t0.5 41q1 14 1 27.5v26.5q-1 33 9 67t27.5 64.5t41 54t49.5 34.5q13 5 31 7t35 3h5q12 2 22 -1q12 -3 21.5 -9.5t18.5 -14.5q9 -9 18 -15q3 -1 4 -4q26 -42 32.5 -95t9.5 -112 q2 -33 2 -59v-47q-1 -31 -3.5 -61t-6.5 -53q-3 -22 -11 -38.5t-18 -31.5q-2 -4 -6 -5q-7 -3 -14 -10q-2 -1 -2.5 -2t-2.5 -2q33 -26 48 -65.5t17 -101.5zM281 48q9 2 19.5 8t20 13.5t17 16t10.5 14.5q12 23 13.5 55.5t-0.5 63.5v10v34v27t-2 25q-4 29 -19 54.5t-35 35.5 q-16 8 -37 8q-13 0 -25.5 -3t-26.5 -7q-14 -6 -31 -9l-1 -1l-21 -25t-21 -28t-17 -32t-9 -36q-3 -27 -3 -57t4 -57.5t12.5 -50t23.5 -34.5q8 -6 22.5 -11.5t31.5 -7.5q4 -1 7 -1t7 -1q11 -2 22.5 -3.5t21.5 -1.5q5 0 8.5 0.5t7.5 0.5zM356 715q-1 8 -1 16.5v16.5 q-1 45 -3 80t-14 67q-21 59 -72 61q-38 1 -65 -16.5t-45.5 -43t-29 -55t-15.5 -53.5q1 -16 1.5 -33t0.5 -35q0 -33 1.5 -66.5t6.5 -65t14.5 -57.5t27.5 -44q28 -28 73 -28h15q9 2 19 0h16q8 1 17.5 7.5t18.5 15.5t15.5 19t9.5 19q4 12 5 29l2 35q0 8 0.5 16t1.5 16 q2 20 1.5 39t-1.5 38v22v0z" />
<glyph unicode="9" d="M409 433q0 -9 1 -13q0 -5 0.5 -9.5t-0.5 -9.5q0 -9 -3 -15q-1 -3 -1.5 -5.5t-0.5 -5.5l1 -20q2 -31 2.5 -65.5t-1.5 -76.5q-3 -62 -12 -105q0 -1 -0.5 -1.5t-0.5 -1.5q-13 -26 -27.5 -41.5t-40.5 -33.5q-45 -30 -82 -30q-19 0 -37 8q-17 8 -32.5 26.5t-28.5 41t-22.5 47 t-13.5 44.5q-3 15 -5.5 36t-2.5 41v2q-1 10 1.5 24.5t16.5 19.5q10 3 15 -7q6 -13 7 -26.5t1 -26.5v-12t1 -12q4 -31 17 -64.5t27 -53.5q9 -11 20.5 -22t17.5 -13q7 -3 22 -3q12 0 23.5 2t17.5 4q3 1 8.5 5l12.5 9l13.5 10t9.5 8q25 23 30 61.5t7 86.5l1 15q0 7 0.5 13 t1.5 12q1 8 1.5 16t-0.5 16q0 8 -0.5 15.5t-1.5 15.5l-3 30v59q1 28 0 57q-19 -28 -48 -51.5t-73 -27.5q-5 -1 -13 -1q-20 0 -47 6t-46 22q-6 5 -13.5 16l-15.5 23.5t-14 24.5t-9 19q-2 7 -3.5 14.5t-3.5 15.5q-1 5 -1.5 10t-2.5 10l-2 8l-2 8q-3 8 -5 16t-3 16q-5 45 -3 98 t10 105q3 21 10 47t18 43q2 5 6 9t9 8q6 6 8 9q3 2 5 4.5t4 4.5l13.5 15t17.5 15q15 11 33 16t38 10l6 1q2 1 6 1q11 0 25 -7t27 -17t23.5 -20.5t15.5 -16.5q11 -14 19.5 -34t16.5 -41q13 -32 20 -75t10 -101q2 -38 2.5 -75t0.5 -74v-54t1 -52zM318 485q14 13 21 24t16 32 l3.5 8.5t3.5 7.5q7 12 7 17q2 13 1.5 27.5t-2.5 29.5q-1 6 -1.5 12.5t-0.5 12.5q-1 13 -3 25.5l-4 24.5q-1 7 -1.5 13.5t-1.5 12.5q-2 12 -4.5 23.5t-5.5 23.5q-2 7 -3 13.5t-3 14.5t-2.5 15t-1.5 15q-2 13 -3.5 24t-5.5 21q-1 2 -4.5 7.5l-7.5 11.5t-8 10.5t-6 6.5 q-5 4 -13.5 9.5t-18.5 10.5t-19.5 8.5t-16.5 3.5h-1q-29 -1 -45.5 -14.5t-33.5 -31.5q-4 -4 -8 -8.5t-9 -9.5q-11 -26 -18 -59t-12 -78q-2 -22 -3.5 -45.5t0.5 -41.5q1 -5 1.5 -10.5t2.5 -11.5q2 -7 3 -13.5l2 -13.5l1 -11q2 -21 4 -39.5t10 -32.5q2 -3 8 -9q3 -4 6.5 -8 t5.5 -9q4 -10 5 -15q2 -6 3.5 -11t4.5 -8q2 -2 5 -4q4 -2 5 -3q8 -5 17 -8t14 -5q2 -1 6 -1.5t12 -0.5q19 0 41 4.5t35 10.5q2 2 6 5t7 7q3 2 5.5 5t4.5 5z" />
<glyph unicode=":" horiz-adv-x="169" d="M38 532q25 0 37 -20q8 -18 -3 -34q-9 -15 -32 -15q-8 0 -17.5 2.5t-16.5 9.5q-4 4 -6 13v5q1 2 1.5 3.5t1.5 3.5q3 7 8 14q2 2 2.5 4.5t2.5 4.5q1 4 7 6q6 3 15 3zM38 69q25 0 37 -20q8 -17 -3 -34q-9 -15 -32 -15q-8 0 -17.5 2.5t-16.5 9.5q-5 6 -6 13v5q1 3 3 7 q2 5 4 8l4 6q2 2 2.5 4.5t2.5 4.5q1 3 7 7q8 2 15 2z" />
<glyph unicode=";" horiz-adv-x="157" d="M40 68q2 0 0.5 0h-3.5h-2h5q14 -2 17.5 -12.5t1 -25t-7.5 -31t-8 -29.5q1 -7 -4.5 -9t-12.5 -0.5t-13 6.5t-7 13q0 5 3 19.5t8 30t11 27.5t12 11zM38 532q25 0 37 -20q8 -18 -3 -34q-9 -15 -32 -15q-8 0 -17.5 2.5t-16.5 9.5q-4 4 -6 13v5q1 2 1.5 3.5t1.5 3.5q3 7 8 14 q2 2 2.5 4.5t2.5 4.5q1 4 7 6q6 3 15 3z" />
<glyph unicode="&#x3c;" horiz-adv-x="334" d="M16 478q-12 5 -14 16q-1 6 1.5 12t6.5 11t8 9.5t6 6.5l75 74l72 76q8 8 15 16t15 16q8 11 18.5 19t25.5 1q0 -1 1 -1q2 0 4 -3l3 -3q8 -8 6.5 -12t-2.5 -5h-1q-2 -9 -11.5 -19t-24.5 -23q-3 -2 -5 -4l-48.5 -47.5t-42.5 -45.5l-35 -36l-36 -36l-6 -6l-2 -2 q-7 -8 -13.5 -13t-15.5 -1zM2 505q5 11 16 13t22.5 -7t15.5 -14l74 -75l76 -73q8 -8 16 -15t16 -15q11 -8 19 -18.5t1 -25.5q-1 -2 -3 -4q-1 -2 -3 -4q-8 -8 -12 -6t-5 2l-1 1q-14 4 -41 37q-4 4 -4 5q-48 50 -93 90q-19 17 -37 35l-35 36q-2 2 -3.5 3t-3.5 3l-2 2 q-8 7 -13 14t0 16z" />
<glyph unicode="=" horiz-adv-x="420" d="M2 564q-5 11 2 21q6 9 21 10.5t21 1.5q53 -2 105.5 -1t104.5 3h22t22 1q14 2 27 0t19 -17v-1q0 -3 1 -5v-5q0 -10 -4 -12t-5 -2h-1q-8 -5 -22 -5.5t-34 1.5q-3 1 -6 1q-35 1 -67.5 1t-62.5 -2q-25 -2 -50 -2t-51 1q-6 0 -9 -1h-3q-10 -1 -18.5 0.5t-11.5 11.5zM345 432 q5 -12 -2 -21q-6 -9 -21 -10.5t-21 -1.5q-52 2 -104.5 1t-103.5 -3q-11 -1 -21.5 -1h-21.5q-14 -2 -26.5 -0.5t-18.5 17.5q-1 2 -1 5v5q0 11 4 13t5 2h1q13 8 54 3q2 0 4 -0.5t3 -0.5q35 -1 66.5 -0.5t61.5 2.5q25 1 50 1h50h9h3q10 1 18 -0.5t12 -10.5z" />
<glyph unicode="&#x3e;" horiz-adv-x="352" d="M245 521q12 -5 14 -16q1 -5 -1.5 -11t-6.5 -11.5t-8 -9.5l-6 -6l-75 -74l-72 -76q-8 -8 -15 -16t-15 -16q-8 -11 -18.5 -19t-25.5 -1h-1q-1 1 -2 1.5t-2 1.5l-3 3q-8 8 -6.5 12t2.5 5l1 1q4 14 36 41q6 4 5 4l48.5 47.5t42.5 45.5q17 19 35 37l36 35q2 2 3 3.5t3 3.5l2 2 q7 8 14 13t15 0zM259 494q-5 -11 -16 -13t-22.5 7.5t-15.5 13.5q-36 39 -74 76l-76 72q-8 8 -16 15t-16 15q-11 8 -19 18.5t-1 25.5v1q2 2 3 4l3 3q8 8 12 6.5t5 -2.5l1 -1q14 -4 41 -36q1 -2 3 -4l1 -1l47.5 -48.5t45.5 -42.5q19 -17 37 -35l35 -36q2 -2 3.5 -3t3.5 -3 l2 -2q8 -7 13 -14t0 -16z" />
<glyph unicode="?" horiz-adv-x="409" d="M25 276q12 110 79 177q18 18 30.5 33.5t31.5 30.5l34.5 27t33.5 29q15 14 29 32t22 42q9 27 14 54t5 53q0 19 -2 40.5t-9 43.5t-19 43.5t-32 39.5q-26 24 -74 33q-38 7 -71 -29q-44 -50 -48 -160q0 -6 -1 -16t-3.5 -19t-8 -16t-14.5 -7q-8 0 -14 5q-9 7 -8 17.5t3 18.5 q0 2 0.5 3t0.5 2q1 6 1.5 11.5t1.5 11.5l2 15.5l2 15.5q1 5 1.5 8.5t1.5 8.5q3 20 7.5 41.5t12 42t18.5 38.5t29 30q34 24 71 24q14 0 31 -3q21 -5 47.5 -13.5t44.5 -28.5q30 -32 48.5 -77.5t22.5 -98.5q4 -57 -11.5 -113t-45.5 -94l-32.5 -37t-37.5 -35q-6 -5 -12.5 -9 t-12.5 -9q-14 -10 -20.5 -20t-18.5 -21q-16 -15 -30 -34.5t-25.5 -41.5t-18.5 -44.5t-10 -44.5h-46zM218 3q-5 -2 -11 -2h-12zM71 276q-5 -21 -8 -39.5t-4 -42.5q0 -8 1 -13q1 -11 1 -23.5t-8 -21.5q-7 -10 -17 -10q-13 0 -20 15q-3 8 -2.5 16t1.5 15q2 4 2 7q0 7 0.5 13 t0.5 12q2 20 2 35.5t5 36.5h46zM62 10q-5 -6 -12 -9q-5 -2 -9 0q-8 2 -10 2q-4 1 -7.5 2t-8.5 3q-3 0 -6 3q-2 1 -4 3q-5 7 -5 14q0 9 5 17.5t10 14.5q15 15 33 12q22 -5 26 -22q3 -10 -0.5 -21t-11.5 -19z" />
<glyph unicode="@" horiz-adv-x="218" />
<glyph unicode="A" horiz-adv-x="405" d="M24 6q-17 0 -23 27q-2 11 0 22l4 21q0 3 0.5 5.5t1.5 5.5q2 9 3 18.5t3 18.5l6 36q2 10 3 19.5l2 18.5q2 11 3.5 22t3.5 22q2 8 3.5 16.5t3.5 16.5q3 14 6 26.5t5 26.5q3 20 5 37.5l4 34.5q1 5 1 16q1 5 1 11t1 11q1 11 6 22q2 5 3 9t1 9q2 14 4.5 27.5t4.5 27.5 l17.5 120.5t15.5 120.5v5q1 10 2.5 20.5t5.5 21.5q2 5 1.5 10t-0.5 11v11t1 12l4 22.5l4 22.5l6 33v7q0 7 0.5 15.5t3 15.5t6.5 12.5t12 6.5h3q10 0 15.5 -7t9 -17.5t4.5 -23t2 -23.5q1 -3 1 -8q5 -37 10.5 -74t11.5 -73l4 -32l39 -255l11.5 -75.5l11.5 -75.5 q5 -29 8.5 -56.5t8.5 -56.5q3 -22 6.5 -44t6.5 -44l2 -14q2 -14 4.5 -29t5.5 -29q1 -2 1 -3t1 -2q2 -8 4 -17.5t0 -18.5q2 -8 -6 -14q-2 -2 -6.5 -5t-9.5 -3q-8 0 -12 9v1q-8 9 -12 25.5t-6 33.5v3q-2 15 -4.5 30.5t-4.5 30.5q-5 26 -8.5 53.5t-7.5 54.5l-2 18l-2 18 q-2 13 -3 25t-3 25q-1 5 -1.5 10t-1.5 10l-2 12t-2 13v13q-1 5 -1.5 14.5t-2.5 12.5q-2 2 -10 2.5t-12 0.5h-6q-6 1 -12.5 1h-11.5h-21h-18t-21 -1h-6h-5q-8 0 -9.5 -1t-2.5 -3q-4 -11 -5.5 -24t-2.5 -26l-1 -9q-2 -20 -5 -40.5l-6 -40.5l-1 -11q-4 -23 -7.5 -46.5 t-6.5 -46.5q-4 -20 -7 -40.5l-6 -40.5q-1 -6 -1 -11.5t-1 -11.5q0 -16 -3 -31q-1 -6 -4 -15.5t-14 -10.5h-2v0zM193 668l-4 24.5t-7.5 43.5l-9.5 52.5l-9 50.5q-1 -8 -1.5 -15.5t-2.5 -15.5q-1 -7 -1.5 -13.5t-1.5 -12.5l-4 -23.5l-4 -22.5q-3 -16 -5.5 -32t-4.5 -33 q-2 -26 -7 -52l-10 -52t-9.5 -52.5t-7.5 -53.5v-4v-3h4t7 1h8h1h14t14 -1q5 0 11 -0.5t11 -0.5h3h15q11 0 18 0.5t14 1.5h1q0 2 -0.5 5t-0.5 5l-1 5q-7 32 -11 63.5t-9 62.5q-2 18 -4.5 36t-5.5 36z" />
<glyph unicode="B" horiz-adv-x="405" d="M1 461q-2 64 -1.5 127.5t2.5 126.5v43q1 32 1 63t1 62q0 17 -0.5 33t-0.5 32v5q-1 11 2 26.5t23 19.5q4 1 12 1q20 0 41 -9t39 -18q6 -4 9 -5q23 -12 46.5 -32t49.5 -50q23 -26 35.5 -57t21.5 -60q22 -66 19 -132q-2 -35 -13.5 -67t-32.5 -58q-17 -22 -38 -34.5 t-44 -23.5h4q38 -9 64 -28q54 -38 73 -98q8 -27 12.5 -58t4.5 -68q0 -33 -4 -68t-19 -62q-17 -29 -42 -40t-51 -16q-67 -13 -133 -14h-6.5t-7.5 -1q-5 0 -10.5 -0.5t-11.5 -0.5q-14 0 -23 3q-15 5 -18 16.5t-3 20.5v8q-1 20 -1 39.5v39.5v50q-1 20 -0.5 39t1.5 39 q0 15 0.5 30.5t0.5 30.5q0 24 -0.5 48.5t-1.5 48.5v48zM39 554q1 -14 0.5 -27.5t-1.5 -26.5l-1 -9v-13.5t1 -13.5v-3q6 2 11.5 2.5t11.5 1.5l11.5 2t10.5 2q11 3 23.5 7t25.5 9q23 8 43 17.5t36 25.5q19 19 29 41.5t14.5 45t4 44.5t-3.5 41q-6 44 -26 100q-6 17 -16.5 36.5 t-24.5 32.5q-5 5 -9 8.5t-9 7.5t-10 7.5t-10 8.5l-2 2q-8 8 -16.5 15.5t-18.5 12.5q-4 2 -13 5.5l-19 7.5t-20.5 7t-17.5 4q-1 -34 -1 -67.5v-67.5q0 -35 -0.5 -69.5t-0.5 -69.5q0 -12 -0.5 -23.5t-1.5 -22.5q-1 -20 -1.5 -40.5t1.5 -40.5zM99 46q38 0 76 4t67 26 q18 14 27.5 33t13.5 41.5t3 46l-2 46.5v7q-3 51 -24 89.5t-56 57.5q-40 21 -94 23h-5q-5 0 -10 0.5t-10 0.5q-7 0 -12.5 -0.5t-10.5 -1.5q-1 0 -1.5 -0.5t-2.5 -0.5q-3 -1 -7.5 -2t-9.5 1h-2q1 -21 0.5 -42t-0.5 -42q0 -9 -0.5 -18.5t-0.5 -18.5q0 -15 0.5 -30t0.5 -30 q1 -17 1 -34v-34q-1 -15 -0.5 -30.5t1.5 -30.5q0 -11 0.5 -22.5t0.5 -22.5v-4q0 -2 -0.5 -6t0.5 -6q1 0 2.5 -0.5t5.5 -0.5h4h6q4 0 7 0.5t7 0.5h2h1h3h17h1h1z" />
<glyph unicode="C" horiz-adv-x="417" d="M142 4q-51 13 -79 51t-41.5 84.5t-16.5 93.5t-3 78q-2 96 -2 193.5t5 197.5q1 6 1 12t1 12q2 41 6 81.5t20 79.5q6 14 16 32.5t24 34.5q8 8 16 12t16 7l5 2q5 2 8.5 4t8.5 4q8 6 21 11q18 6 36 6q34 0 64 -20t46 -53q22 -45 31.5 -93t14.5 -91q1 -2 1 -4.5t1 -4.5 q1 -6 2 -14t0.5 -16t-4.5 -14.5t-13 -10.5q-1 -1 -2 -1t-3 -1h-4q-3 0 -4 1q-2 0 -5 3q-7 5 -7 14l-1 13q-5 45 -11.5 88.5t-21.5 85.5q-11 27 -34 50.5t-53 23.5q-5 0 -9 -0.5t-9 -1.5q-17 -5 -34 -15t-28 -20q-13 -10 -20.5 -26.5t-12.5 -33.5l-3 -7q-14 -40 -17 -82 t-4 -84v-24q-1 -11 -1.5 -21t-1.5 -20q-1 -15 -1.5 -30t-0.5 -29l1 -29q0 -17 0.5 -34t0.5 -34q0 -14 -0.5 -28t-0.5 -28q-2 -33 -2 -66t7 -64q3 -16 4.5 -32t3.5 -33q0 -7 0.5 -13.5t1.5 -12.5q2 -23 10 -43.5t18 -40.5q17 -36 51 -46q11 -3 23 -5.5t24 -2.5q18 0 29 7 q16 9 27 25.5t18 36t11.5 40.5t7.5 40v4q2 11 3 22t3 24v9q0 6 0.5 12.5t2.5 12.5q4 11 10 15t11 4t12 -5q9 -7 8.5 -17.5t-2.5 -17.5l-1 -2q-3 -14 -4 -28.5l-2 -28.5q-3 -31 -7.5 -61t-20.5 -59q-10 -17 -23 -35.5t-31 -30.5q-23 -17 -59 -17q-19 0 -32 4z" />
<glyph unicode="D" horiz-adv-x="435" d="M344 521q1 -26 1 -52.5t1 -53.5q1 -36 1 -77t-3 -83q0 -5 -0.5 -11t-0.5 -12l-4 -54.5t-10 -54.5q-7 -26 -21 -48t-32 -38t-40 -26t-45 -11h-7h-2q-5 0 -10.5 0.5t-10.5 0.5q-2 0 -4 0.5t-4 0.5q-6 0 -12 0.5t-12 0.5q-14 1 -28.5 1.5t-28.5 -0.5h-5t-6 -1l-12 -2t-12 -1 q-14 0 -21 6q-9 7 -9.5 19.5t1.5 23.5v10q2 50 1 99.5t-3 99.5q0 21 -0.5 42t-0.5 43q-1 36 -1.5 72t-0.5 71q-1 43 -1 86.5t-1 87.5q-1 37 -1 77.5t2 89.5q1 20 1 39.5t1 39.5q0 1 -0.5 3.5t-0.5 5.5v33.5t2 26.5q-2 7 3 12q5 7 16.5 10t33.5 3q18 0 42.5 -2t48.5 -6 t43 -8.5t27 -8.5q34 -21 56 -49t35 -60.5t19 -66.5t9 -65q5 -53 5.5 -106.5t0.5 -106.5zM195 47q20 2 37 14t29.5 30.5t21.5 41t12 44.5q1 7 1.5 13t1.5 13q2 9 2.5 18t2.5 18q4 21 3 41t-3 41q-2 24 -1.5 48.5t1.5 48.5q0 17 0.5 33.5t-0.5 33.5q-1 46 -1.5 87t0.5 83 q2 80 -13 143l-2 10q-4 14 -7.5 28.5t-9.5 27.5q-7 14 -20.5 29.5t-26.5 25.5q-57 43 -139 36q-2 0 -4.5 -0.5t-5.5 -0.5q-6 -2 -13.5 -3t-15.5 -1q0 -5 -0.5 -11t-1.5 -11q-2 -8 -2 -11q-2 -21 -2 -44t1 -46v-40q-1 -48 -0.5 -96t0.5 -96q1 -26 1 -51v-50q1 -71 1.5 -143 t3.5 -144q1 -14 0.5 -29t-0.5 -29q-2 -30 0 -60v-7.5t-1 -8.5q0 -6 -0.5 -15t1.5 -13q2 0 4 -0.5l6 -1.5q15 -1 30 0l31 2q17 2 34.5 3t34.5 -1h2h7v0z" />
<glyph unicode="E" horiz-adv-x="362" d="M38 0q-18 0 -25.5 8t-9.5 16q-3 12 -3 26t1 28q1 6 1.5 12t0.5 11q-1 63 -0.5 125.5t0.5 124.5v66t1 65v129q2 150 0 301q0 3 -0.5 6.5t-0.5 8.5q-1 9 -1 19.5t2 20.5q4 17 13 21t17 4h9h1q14 0 27 0.5t26 1.5q10 1 19.5 1t19.5 1h16.5t16.5 1q17 0 34 0.5t34 1.5 q4 0 11 0.5t15 0.5q14 0 22 -2q3 0 5 -1t4 -3q5 -5 5 -8q1 -5 0 -9q0 -7 -3 -10q-6 -4 -9 -4q-12 -6 -41 -6q-11 0 -20 0.5t-15 0.5h-4q-8 1 -17 1h-18q-28 0 -56 -1t-55 -3l-3 -1h-8.5t-5.5 -1q-1 -1 -1 -2v-6q-1 -5 -0.5 -11t0.5 -11v-10q2 -40 0 -80v-14v-90 q0 -25 0.5 -50t-0.5 -51q0 -9 -0.5 -18t-0.5 -18q-1 -14 -1 -27.5v-27.5v-3q-1 -19 0 -38q0 -3 -0.5 -6t-0.5 -6q-1 -12 0 -16t4 -6q13 -5 29.5 -4t35.5 3q13 2 26 3t26 -1q10 -1 18.5 -6.5t9.5 -14.5q1 -4 -2 -10.5t-16 -9.5q-5 -2 -10.5 -1.5t-10.5 1.5q-2 1 -7 1h-21h-24 q-11 1 -21 0.5t-22 -1.5h-4h-5.5t-4.5 -1q-1 0 -1 -1v-4q-1 -18 -1 -36.5v-37.5v-10q0 -22 0.5 -44t0.5 -44q1 -25 1.5 -50t0.5 -50v-18q-1 -18 -1 -36t2 -36q0 -2 0.5 -3.5t0.5 -2.5t1 -1q1 -1 4 -1h6h10q8 0 15 0.5t15 0.5h5q18 1 36.5 1.5t36.5 0.5q24 1 48.5 1t48.5 2h3 q3 0 6 0.5t5 0.5q26 0 31 -17q3 -8 1.5 -13t-3.5 -9q-6 -8 -16.5 -10t-18.5 -2q-6 0 -11 0.5t-9 0.5q-2 1 -6 1h-8q-25 1 -50.5 1h-51.5h-34.5t-32.5 -1q-4 0 -14 -2q-5 -1 -11 -1.5t-12 -0.5z" />
<glyph unicode="F" horiz-adv-x="374" d="M1 945q-1 8 -1 16.5t5 16.5q6 11 17.5 13.5t21.5 2.5q9 0 13 -1h3q23 -1 44 -0.5t47 1.5q14 1 26.5 1.5t25.5 0.5h21t20 1q5 0 10 0.5t10 0.5q7 1 13.5 1t13.5 1h4q13 0 18 -2q7 -3 11 -7q4 -3 6.5 -7.5t1.5 -9.5q0 -3 -1 -4q-2 -5 -4.5 -9t-9.5 -4h-1q-5 -2 -9 -2h-8 h-6.5t-7.5 1h-7q-20 -2 -40 -2h-41h-4h-37q-9 1 -18 1h-18q-11 0 -21 -0.5t-19 -0.5q-3 -1 -12 -1h-14t-12 -2q-3 -3 -3 -25l1 -5v-25q1 -11 1 -21.5v-21.5q2 -23 1.5 -45.5t-0.5 -44.5v-39.5t1 -39.5q2 -45 2 -85t-1 -79v-10t-1 -10q-2 -12 -2 -24.5t3 -21.5q1 -1 1 -2h9 l2 -1q12 0 24.5 0.5t25.5 1.5q8 1 16 1t16 1h2h9q12 0 23.5 -2.5t16.5 -11.5q1 -4 1 -9.5t-6 -12.5q-9 -9 -26 -9h-9t-8 1h-4q-15 2 -30.5 2.5t-31.5 -1.5h-5h-8q-9 0 -12.5 -0.5t-5.5 -0.5q-1 -2 -0.5 -7t0.5 -8q0 -2 0.5 -3t0.5 -3q1 -17 1.5 -34.5t0.5 -37.5v-74 q0 -23 -0.5 -46t0.5 -46q0 -12 0.5 -24t1.5 -24q0 -8 0.5 -16.5t0.5 -16.5v-11q1 -5 1 -10v-10q0 -1 0.5 -1.5t0.5 -2.5q2 -6 2.5 -13t-4.5 -14q-5 -5 -9.5 -7t-7.5 -2q-14 0 -19 13t-6 19q-1 12 2 27q0 3 0.5 6t0.5 7q2 27 1.5 55t-1.5 55q-1 13 -1.5 25t-0.5 24 q0 21 -0.5 41.5t-0.5 41.5q-2 63 -3 126.5t0 127.5v49q1 80 1 160.5t-5 160.5v7z" />
<glyph unicode="G" horiz-adv-x="407" d="M332 757q0 -4 1 -5q0 -6 1 -12t-1 -12q0 -2 -2 -7.5l-4 -10.5q0 -3 -2 -5l-2 -2q-6 -7 -13 -7q-5 0 -7 2q-2 0 -4 2q-11 8 -11.5 22t1.5 28q1 3 1 5.5v4.5q-2 25 -4.5 43.5t-7.5 34.5q-11 32 -26 60.5t-45 43.5q-24 11 -44 11q-22 0 -40.5 -11.5t-32.5 -30t-23.5 -42 t-12.5 -47.5q-2 -7 -2.5 -13.5t-1.5 -12.5q-2 -10 -2.5 -19t-2.5 -18q-4 -21 -3.5 -41t2.5 -41q2 -24 2 -48.5t-1 -48.5q0 -17 -0.5 -34t-0.5 -34q2 -45 2.5 -87t-0.5 -84q-2 -39 1.5 -75t11.5 -69l3 -9q3 -14 7 -29t10 -27q7 -15 21 -30.5t27 -24.5q40 -30 63 -29 q10 1 20 9q2 1 2.5 2t2.5 3q3 3 9 7q3 4 11 10q1 2 2.5 2.5t1.5 1.5q8 10 14 20q9 16 12.5 35.5t5.5 35.5q5 40 7 78t2 71q1 7 1 13.5v13.5q1 12 1.5 23t-0.5 22v6v6.5t-1 8.5h-4h-1q-20 2 -38 0h-19h-14t-12 1l-6.5 1t-14 3t-14 6.5t-6.5 11.5q-1 11 8.5 15t13.5 5 q8 2 17 1.5t17 -1.5q3 -1 9 -1q23 -2 50 0h11q1 0 3 0.5t4 0.5q4 1 8 1h9t9.5 -0.5t8.5 -4.5q7 -7 7.5 -16.5t-0.5 -21.5v-5q0 -8 -0.5 -16t-0.5 -16q-1 -11 -1 -23t-1 -23q-1 -42 -3.5 -81.5t-7.5 -78.5q-5 -36 -17 -71.5t-44 -64.5q-3 -2 -9 -8q-8 -8 -16.5 -15.5 t-19.5 -11.5q-9 -3 -18 -3q-16 0 -31 6t-27 14q-35 20 -57 48.5t-35.5 61t-20 66.5t-9.5 66q-5 54 -6 107t-1 107v53t-1 53q-1 37 -1 78t2 83q1 6 1 12t1 11l4 55.5t10 54.5q7 27 22 49.5t35 39t43.5 26t48.5 9.5q42 0 80 -27q18 -12 30 -29.5t20.5 -36.5t14 -38.5 l10.5 -36.5q4 -14 5.5 -28t2.5 -28q1 -5 1 -9.5t1 -9.5z" />
<glyph unicode="H" horiz-adv-x="438" d="M343 190q0 -17 0.5 -33t1.5 -33q0 -22 0.5 -44t1.5 -45q0 -5 -2 -14t-8 -15q-5 -6 -13 -6q-11 0 -20 15q-5 10 -5 21t1 21q1 3 1 10q1 27 0.5 55t-1.5 55q-1 18 -1 36.5v36.5l-1 36v67v17v29q0 5 -1 6q-2 0 -8 2q-11 2 -24 2.5t-26 0.5q-6 1 -12 1h-11q-45 3 -91 -3 q-12 -2 -23.5 -3t-23.5 -1h-4h-5q-5 0 -10 0.5t-10 2.5q1 -79 1.5 -155t1.5 -149q0 -6 0.5 -12t1.5 -12q2 -15 2.5 -30t-4.5 -29q-1 -4 -4.5 -12t-13.5 -8q-8 0 -12.5 7t-7 15.5t-3.5 16.5t-1 10q-2 38 -2 75.5v74.5v102q-2 75 -3 157.5t-2 176.5q-1 42 -1.5 89t-0.5 95v9 v86v42q0 3 -1 5q0 16 1 21q0 1 3.5 7.5t10.5 8.5q2 1 5 1q3 1 7 1q8 0 11 -4.5t4 -7.5v-3q7 -12 7.5 -33.5t-1.5 -52.5q0 -4 -0.5 -6t-0.5 -4l1 -25q0 -36 0.5 -73t-0.5 -74q-1 -23 -1 -45.5v-45.5q0 -20 0.5 -40t-0.5 -40v-16q-1 -17 -1 -34t2 -34v-2v-7h2q9 0 13 1h28 q6 -1 13 -1h16h18h34q9 -1 18 -1.5t19 -0.5q11 -1 21.5 -1.5t21.5 -0.5q9 -1 18.5 -0.5t19.5 1.5h2q5 0 6 1q1 0 1 2q2 8 2 16.5t-2 17.5q0 5 -0.5 9t-0.5 9q-2 60 -2 119.5t1 118.5v52t1 52v18v30t-1 30v4q-5 44 7 57q11 11 23 3q12 -7 13.5 -20.5t0.5 -23.5v-2 q-1 -13 -1.5 -26.5t-0.5 -27.5q-1 -54 -0.5 -107t0.5 -106q1 -32 1 -65v-65v-21q0 -167 3 -335z" />
<glyph unicode="I" horiz-adv-x="144" d="M6 36v16t1 16q0 5 0.5 10.5t0.5 10.5v17q-1 101 -1.5 204t-1.5 206q-1 32 -1 64.5v64.5v118l-1 26v94q1 13 0.5 25.5t-2.5 26.5q-2 15 -1.5 30.5t8.5 27.5q2 5 7 6.5t10 -0.5v-1h3q4 -1 11 -3.5t6 -12.5q4 -10 4 -21t-1 -19l-1 -3q-2 -17 -2 -35v-38q2 -38 1.5 -76 t-0.5 -76v-60q0 -69 0.5 -136.5t0.5 -136.5q0 -42 0.5 -83.5t0.5 -83.5q0 -47 3 -101v-14.5t-1 -14.5v-19v-6.5t1 -6.5q1 -6 1.5 -13t-1.5 -14q-4 -25 -20 -25q-13 0 -18.5 13.5t-6.5 22.5z" />
<glyph unicode="J" horiz-adv-x="428" d="M38 295q7 -7 7 -16v-16q-1 -2 -1 -6q0 -14 2 -29.5l4 -30.5l2 -10q5 -32 17.5 -60t31.5 -48q42 -44 88 -19q43 25 68 81q13 29 16.5 59.5t5.5 62.5v8q2 18 2 36.5t1 35.5q0 17 0.5 33.5t1.5 33.5q1 20 1 40.5v40.5q-2 34 0 69q1 29 1 59v59l1 32v80.5t2 84.5q1 11 0.5 21 t-0.5 20q-1 10 -1.5 20t0.5 20q1 29 10.5 36.5t17.5 7.5q5 0 9 -4q10 -9 10.5 -23.5t-1.5 -27.5q-1 -3 -1 -8q-1 -11 -1 -22v-22v-18.5t-1 -18.5q-2 -38 -2.5 -76.5t-1.5 -76.5l-1 -22q-1 -51 -1 -92.5t2 -77.5q1 -23 0 -45l-2 -45q-1 -21 -1.5 -42.5t0.5 -43.5 q1 -32 -2.5 -65.5t-7.5 -65.5l-2 -15q-3 -29 -11.5 -63t-31.5 -64q-22 -29 -52 -45.5t-62 -16.5q-5 0 -9.5 0.5t-9.5 1.5q-20 3 -36 13.5t-28.5 25t-22 30.5t-15.5 31q-11 29 -17.5 58.5t-11.5 56.5v1l-4 25t-1 26v1q1 7 1.5 12.5t4.5 10.5q3 3 5 4q2 5 11 5h2h2 q2 0 2.5 -0.5t1.5 -0.5h1q4 -1 7 -6z" />
<glyph unicode="K" horiz-adv-x="407" d="M2 913q0 3 -1 6q-2 26 -0.5 45t15.5 24t24 -5q3 -3 8 -16.5t3 -54.5l-1 -5q-2 -29 -3.5 -57t-1.5 -58q1 -29 1 -57v-57q-1 -14 -1 -28v-28q0 -7 0.5 -13.5t0.5 -13.5v-28.5t-1 -28.5v-11q0 -3 -0.5 -8t-0.5 -11q8 14 15 29t15 29q7 16 14.5 31.5t16.5 30.5q20 33 38 67 l35 68l18 36t19 35l20 39l20 39q6 13 12.5 25.5l13.5 25.5l5 10q2 2 3.5 5.5t3.5 6.5q3 4 7 8q2 3 5 5q1 1 2 1t2 1h1h1h2q1 0 4.5 -0.5t6.5 -3.5q9 -5 12 -12q6 -13 -4 -30q-7 -11 -12.5 -21.5l-10.5 -19.5l-2 -2l-25 -48.5l-27 -48.5q-23 -38 -44.5 -77.5l-42.5 -78.5 l-12 -23l-12 -23q-30 -56 -54 -108q-5 -11 -11.5 -22l-14.5 -25q-6 -10 -6 -15.5t7 -15.5l62.5 -95l67.5 -96l37.5 -53l36.5 -53l18 -25l12 -18.5t13 -18.5q4 -6 7 -9q7 -9 14 -19.5t8 -24.5q0 -6 -4 -10q-3 -4 -9 -4h-1q-17 0 -25.5 11.5t-13.5 21.5l-1 4q-8 15 -23 33 q-3 5 -6 8.5t-6 8.5q-5 8 -10.5 15.5t-10.5 15.5l-28.5 41l-29.5 41l-21.5 30l-20.5 30l-17.5 25.5t-17.5 24.5l-13 19t-12 19q-4 5 -7 9.5t-6 9.5q-2 2 -3.5 5t-3.5 6q-4 6 -5 9q-1 -22 0 -43q3 -38 4 -75l2 -72q0 -25 1.5 -50.5t3.5 -50.5l1 -14v-4q1 -10 1.5 -22.5 t-1 -23.5t-6 -19t-14.5 -10q-9 -2 -18 5q-8 8 -9 24t0 39v4q2 23 1 47t-1 48q-1 7 -1 13.5v13.5q-1 42 -1.5 84t-0.5 83q-1 36 -1 71.5t-1 70.5q-1 39 -0.5 77.5t0.5 76.5v79t-1 80q0 16 -0.5 30t-1.5 29q0 8 -0.5 17t-0.5 18z" />
<glyph unicode="L" horiz-adv-x="295" d="M199 49q9 -1 20 -3t16 -11q4 -9 -1 -19q-7 -11 -19 -13.5t-22 -2.5q-6 0 -12 0.5t-11 0.5q-2 0 -4.5 0.5t-4.5 0.5q-6 0 -12.5 0.5t-12.5 0.5q-15 1 -29.5 1.5t-30.5 -0.5q-7 0 -12 -1q-6 -1 -12.5 -1.5t-12.5 -0.5q-15 0 -22 5q-10 8 -10.5 20.5t1.5 24.5q0 2 0.5 4.5 t0.5 4.5q1 50 0 100l-2 100q-1 22 -1.5 43t-0.5 42q-1 37 -1.5 73t-0.5 72q-1 43 -1 86.5t-1 87.5q-1 38 -1 78.5t2 90.5q1 17 1 37.5t1 41.5v10q-2 41 0 57.5t13 19.5q1 1 5 1h4q2 -1 3 -1t3 -1h1q5 -2 8.5 -4.5t2.5 -9.5q5 -11 4 -24.5t-3 -25.5q-1 -4 -1 -11 q-2 -21 -2 -44v-46v-41v-96.5t1 -96.5v-51t1 -51q0 -71 0.5 -143t4.5 -145v-29t-1 -29q0 -15 -0.5 -30.5t0.5 -30.5q1 -4 0.5 -7.5t-0.5 -8.5q0 -6 -0.5 -14.5t1.5 -12.5q2 -2 10 -2q16 -1 32 -0.5t33 2.5q18 2 36 2.5t37 -0.5h2v0z" />
<glyph unicode="M" horiz-adv-x="439" d="M1 937q-2 14 -1 27t9 21q11 13 29 5q17 -6 23.5 -26.5t10.5 -39.5q1 -3 1 -6t1 -5l10 -39.5l10 -39.5q5 -21 10.5 -42t11.5 -41q5 -20 11 -41t11 -41l6 -25.5t7 -25.5q3 -13 6.5 -25.5t6.5 -24.5q1 -5 2 -9.5t2 -9.5q2 -6 3 -12.5t3 -13.5q1 2 1 6q2 8 3 11l6 22 q5 17 9 33.5l8 33.5l14.5 55.5t15.5 53.5q5 21 11 42t11 42q4 11 7 23l6 23q5 14 8.5 28t7.5 28q0 3 1 6q6 32 12 48.5t16 20.5q2 1 5 1h1h1q2 0 3 -1h1q8 -2 10 -6q13 -13 14.5 -47t-3.5 -87q-1 -5 -1.5 -9.5t-0.5 -6.5v-67.5t1 -66.5v-75v-92.5t-1 -92.5q0 -56 -0.5 -113 t0.5 -114v-29v-36t1 -36v-23q-1 -15 0 -28q0 -2 0.5 -5.5t0.5 -7.5q2 -8 2.5 -17t-1.5 -17q-4 -13 -10 -16.5t-10 -3.5q-10 0 -15.5 8.5t-7.5 18.5q-2 14 -2 27.5t1 26.5v6q4 66 4 132t-2 132q0 27 -0.5 54t-0.5 54v37.5t-1 37.5q0 39 -0.5 79t0.5 80q0 13 0.5 25.5 t1.5 24.5l2 30.5t0 30.5q0 9 -0.5 18.5t-0.5 19.5q-1 4 -1 12q-3 -11 -6 -25.5l-7 -32.5q-1 -4 -1 -6.5t-1 -4.5q-8 -34 -17.5 -68l-19.5 -68l-15.5 -56l-15.5 -57q-5 -17 -9 -33.5t-8 -30.5q-5 -14 -6 -27q-1 -1 -1 -2q0 -5 -2 -14t-12 -12q-2 -1 -6 -1q-13 0 -20.5 15 t-14.5 43l-1 3q-6 26 -13 52t-13 52l-12.5 51l-13.5 52q-5 18 -9.5 36.5t-9.5 36.5t-9.5 36.5l-9.5 37.5q-2 8 -4 13v-176v-38q0 -75 0.5 -151.5t1.5 -151.5l1 -55v-32t-1 -32v-56t2 -56q0 -5 0.5 -10t1.5 -10q0 -5 0.5 -10.5t1.5 -10.5v-4q2 -17 1.5 -31t-10.5 -20 q-5 -3 -10 -3q-7 0 -13 6q-6 7 -8 23.5t0 48.5v3q2 34 1 68l-2 67q0 13 -0.5 25.5t-0.5 25.5q-1 37 -1.5 73t-1.5 72l-2 118.5l-2 119.5v99q0 24 0.5 48.5t-0.5 48.5q0 22 -0.5 43.5t-2.5 43.5v4z" />
<glyph unicode="N" horiz-adv-x="435" d="M294 161q3 -8 5 -15.5l4 -15.5v-2v4q1 17 0.5 33.5t-1.5 33.5v46q-1 37 -1 74v74q1 18 1 36.5v37.5v68v76.5t-1 76.5v80q0 1 -0.5 3t-0.5 4q-2 23 -1.5 32t5.5 14q2 5 0.5 17t-2.5 18q0 2 -0.5 4.5t-0.5 4.5q-2 11 -2.5 24t-1.5 27v1q-1 17 0.5 28t7.5 18q10 10 24 2 t14 -26.5t-2 -33.5q0 -2 -0.5 -3.5t-0.5 -2.5q-2 -32 -2 -65.5t1 -66.5q0 -17 0.5 -34.5t0.5 -34.5q-1 -62 -0.5 -122t0.5 -117q1 -60 1 -118v-118q0 -30 0.5 -59t0.5 -56q1 -8 1 -15.5t1 -15.5l2 -24.5t0 -25.5q-2 -18 -9 -22.5t-12 -4.5q-11 0 -19.5 10.5t-12.5 20.5 q-4 11 -7 23l-6 23q-2 8 -3.5 15t-3.5 15l-34 112.5l-34 109.5l-18 57.5l-19 57.5l-16.5 53.5l-16.5 52.5l-16 54.5l-16 53.5l-16.5 58.5l-17.5 58.5l-4 12.5l-4 12.5q-5 14 -9 27.5l-8 27.5q-1 -5 -1 -10.5v-10.5v-22q1 -23 1.5 -45t0.5 -45q-1 -133 0 -244.5t3 -212.5 q1 -14 1 -26.5t1 -26.5q1 -13 1.5 -26.5t1.5 -27.5v-34q-1 -17 -0.5 -34.5t2.5 -34.5q3 -28 -0.5 -37t-5.5 -11q-5 -6 -12 -6t-16 7q-10 10 -10.5 26t0.5 30q1 3 1 8q1 78 0 156.5t-3 155.5l-2 68.5t-1 67.5q-1 25 -0.5 49t0.5 48q0 32 0.5 64.5t-1.5 64.5q-2 41 0 81v56.5 t-3 56.5v3q-2 13 -2 29.5t11 24.5q6 4 12 3h2q2 -1 3 -1t3 -1q5 0 9 -4t6 -12q2 -5 3.5 -10t3.5 -10q1 -1 1 -2t1 -3q5 -14 8.5 -28.5t7.5 -28.5l7 -25q7 -23 13.5 -47t14.5 -48l24 -80l26 -86l26 -86l37 -120l39 -129q4 -11 7 -21l6 -21q5 -20 10.5 -39t12.5 -37z" />
<glyph unicode="O" horiz-adv-x="411" d="M325 579q0 -8 -0.5 -16.5t-0.5 -16.5q-1 -16 -1.5 -32t1.5 -32q2 -17 1 -32.5l-2 -31.5l-2 -26t0 -25q1 -32 0 -62.5t-3 -60.5q-1 -9 -1 -18v-18l-2 -44.5t-6 -44t-14.5 -42t-27.5 -38.5t-43.5 -28.5t-54.5 -10.5q-59 0 -93 42q-19 24 -31 51t-19.5 55t-11 54.5 t-5.5 49.5q-4 63 -6 128q0 8 -0.5 17t-0.5 18q-2 22 -2 44t2 44q3 23 3.5 46t0.5 46q-1 19 0 40v17q0 14 0.5 27t-1.5 26q0 3 -0.5 6t-0.5 6q-2 14 -3 28t0 28v5q2 30 5 61.5t15 59.5q7 14 16.5 26t20.5 23q1 1 7.5 7l13.5 12q2 4 4 6l3 3q2 0 4 1l12.5 4l13.5 4q5 2 10.5 4 l11.5 4q32 9 63 6q18 -2 32 -10.5t25 -19.5t18 -21.5t10 -16.5q14 -24 18.5 -51t6.5 -53l1 -2q1 -10 2 -19l2 -18q3 -20 5 -40t2 -41v-33t1 -33q0 -15 0.5 -30.5t0.5 -31.5zM226 53q7 11 17 21q8 10 13 17q13 17 15.5 38.5t3.5 42.5q5 125 7.5 237.5t0.5 224.5l-1 20 l-2 52.5t-4 52.5l-2 16.5l-2 17.5q-2 21 -4.5 42.5t-9.5 41.5q-5 14 -17 35.5t-33 34.5q-29 17 -82 -4v-1q-38 -14 -56 -45.5t-21 -85.5t-4.5 -110.5t-2.5 -119.5q0 -15 0.5 -30.5t1.5 -30.5q1 -14 1.5 -27t0.5 -27v-32v-41t2 -42l3 -45q2 -45 6.5 -88.5t20.5 -85.5l4 -10.5 l4 -10.5q6 -17 12.5 -31.5t20.5 -25.5q21 -17 50 -17q12 0 32 3q11 2 15.5 4t9.5 9z" />
<glyph unicode="P" horiz-adv-x="409" d="M201 948q35 -25 61 -58t46 -79q18 -39 30 -83t7 -98q-2 -25 -8.5 -52t-18 -51t-28 -44t-38.5 -30q-20 -10 -41.5 -16.5l-42.5 -12.5l-15 -4q-28 -8 -56 -12q-4 0 -21 -5l-11.5 -2t-10.5 -2q-1 -5 -0.5 -11t1.5 -11q0 -7 1 -11q0 -12 0.5 -24.5t0.5 -24.5v-13l2 -60t3 -57 q1 -13 1 -26v-25v-33t2 -33q0 -4 2 -14l2 -10.5t1 -11.5q0 -5 -2.5 -14t-8.5 -15q-5 -5 -12 -5q-3 0 -7.5 2t-8.5 10q-8 11 -8.5 26t0.5 29q1 5 1 8.5v6.5l-2 50.5l-2 53.5v22q-2 48 -3 96.5l-2 96.5q-2 106 -3.5 213.5t-6.5 216.5l-2 28q-1 18 -1.5 36.5t-1.5 37.5v5v17 t3 19.5t10 16t21 8.5q19 2 40 -2.5t39 -9.5l4 -1q49 -13 84 -38zM43 891q2 -21 2.5 -42.5t0.5 -42.5v-41l2 -74.5l2 -73.5l1 -18v-54q0 -47 3 -93q7 2 14 2t14 1l27.5 2t26.5 5q16 5 28 8q16 5 31 9t29 11q58 27 75 107q18 78 -10 149q-17 40 -35 76t-46 64q-38 37 -81 50 l-2 1l-25.5 7.5t-24.5 5.5h-6q-5 1 -10.5 1.5t-10.5 0.5h-6l-3 -3q-2 -4 -1.5 -14.5t4.5 -35.5q0 -2 0.5 -4t0.5 -4z" />
<glyph unicode="Q" horiz-adv-x="419" d="M3 354q2 23 0 46q-4 24 -3.5 51t2.5 53q1 18 0.5 36.5t-0.5 35.5v56q1 35 2.5 71.5t6.5 73.5q5 31 12 67t27 65q32 48 87 75q13 7 28 12t32 4q20 -2 33.5 -11.5t24.5 -20.5q25 -23 39 -53.5t21 -63t9 -64.5t3 -59q1 -26 1 -51v-51q0 -9 -0.5 -18.5t-0.5 -19.5v-31v-52.5 t2 -52.5q2 -24 2 -48.5t-1 -47.5q0 -14 -0.5 -28.5t-0.5 -28.5q1 -9 1 -18t1 -18q2 -24 2 -48.5t-6 -50.5q-9 -39 -25 -61l-2 -2q-7 -9 -7.5 -11t2.5 -7q0 -1 2.5 -3.5t4.5 -5.5q11 -14 18.5 -24.5t9.5 -19.5l1 -2q1 -9 -7 -16h-1l-1 -1q-6 -5 -11 -5q-6 0 -10 4 q-8 3 -14.5 11t-11.5 16l-4 6t-4 5q-3 -1 -7 -5t-6 -7t-5 -5q-9 -11 -20.5 -17t-25.5 -10q-13 -4 -30 -4q-27 0 -51 11t-44 28.5t-34 39.5t-20 45q-9 34 -13 68.5t-6 66.5q-3 36 -3 69q0 6 0.5 12.5t0.5 13.5zM288 660q1 52 -1 103.5t-16 99.5q-15 50 -47 73q-14 10 -31 10 q-20 0 -45 -13q-18 -9 -38 -23.5t-28 -33.5q-11 -23 -16 -48.5t-8 -48.5q-15 -116 -15 -246q-2 -120 3 -251v-6q0 -24 1.5 -52t7 -55.5t16 -52t28.5 -41.5q14 -13 35 -23.5t41 -10.5q5 0 13 2q15 5 34 26l6 6q8 8 8.5 10.5t-1.5 5.5q-1 1 -2 2.5t-3 3.5q-5 5 -10 11t-8 12.5 t-3.5 13t4.5 12.5q6 8 15 8q10 0 16.5 -7.5t11.5 -15.5l3 -6q1 -2 2 -3.5t2 -3.5q2 3 5.5 9.5t6.5 17.5v1h1v1q13 39 13.5 81.5t-0.5 84.5q-1 15 -1.5 30t0.5 30v143v117v27v0z" />
<glyph unicode="R" horiz-adv-x="424" d="M14 3q-13 7 -13.5 23t0.5 27q0 2 0.5 2.5t0.5 1.5q2 29 2.5 57.5t-0.5 56.5v25t1 24v100q0 23 0.5 45t0.5 45q0 35 0.5 69t0.5 68q0 61 0.5 123t1.5 125l1 8q0 20 0.5 40.5t-0.5 40.5l-1 14v27q0 2 -0.5 4.5t-0.5 5.5q-1 12 -0.5 25t5.5 23q6 13 19.5 15t18.5 2 q10 0 14 -1h6h4l42.5 -2t43.5 -4q48 -6 83 -32.5t58.5 -65t34.5 -85.5t10 -93q-2 -42 -10 -88t-36 -86q-11 -17 -26 -35t-34 -35l-14.5 -12t-17.5 -12q-1 -1 -5 -3q-5 -2 -10 -5q2 -8 2 -14q10 -37 23 -73.5l27 -72.5l3 -8q10 -24 18.5 -48.5l16.5 -48.5q7 -17 13 -34.5 t13 -34.5q4 -12 9 -24t12 -26q6 -14 9.5 -26t-2.5 -21q-2 -3 -5.5 -6t-11.5 -3h-1q-14 1 -20 13.5t-9 23.5q0 2 -0.5 3t-0.5 2q-5 16 -11 31.5t-11 30.5l-7 17l-15.5 43.5l-14.5 43.5l-16 43l-16 44l-13.5 37l-13.5 37q-2 5 -3.5 9.5t-3.5 9.5t-3.5 9.5t-3.5 9.5l-1 3 q-2 3 -3 6.5t-2 4.5h-2h-3l-14.5 -3.5t-13.5 -3.5l-16.5 -4t-17.5 -3q-2 -1 -4 -1t-4 -1q-8 -1 -14.5 -2t-12.5 -4q-4 -1 -5 -3t-1 -12v-6q0 -39 -0.5 -80t-0.5 -86v-25t-1 -25v-58.5t2 -58.5l1 -1q1 -11 0.5 -21.5t-6.5 -17.5q-6 -6 -14 -6q-5 0 -11 3zM49 671v-74.5 t-2 -75.5q0 -6 -0.5 -11.5t-0.5 -11.5q-2 -14 -2.5 -26t1.5 -24v-2h5q2 1 5 1q14 1 34 6l6 2l5 1h2q2 1 4.5 1t4.5 1q22 4 42 12q16 6 29.5 15.5t25.5 19.5q22 18 42 45q2 2 3.5 4.5t3.5 4.5q9 12 17 24t12 26q12 38 14.5 77.5t0.5 68.5t-13.5 60.5t-31.5 57.5 q-14 18 -35 39.5t-48 32.5q-24 10 -51 9q-5 0 -8 -1q-4 0 -8 -0.5t-8 -0.5q-4 1 -7 1t-6 1q-5 1 -13 1h-3h-3h-7t-5 -2t-1 -8v-10v-7q-1 -11 -1 -22v-22v-31q0 -15 -0.5 -29.5t-1.5 -29.5q-1 -25 -1.5 -50t0.5 -50v-23v0z" />
<glyph unicode="S" horiz-adv-x="426" d="M343 753q0 -3 1 -5q2 -8 3 -18.5t-9 -17.5q-6 -6 -14 -6q-9 0 -14 7t-8 16.5t-3.5 19t-0.5 15.5q-5 112 -48 161q-33 36 -71 29q-48 -9 -75 -33q-20 -18 -32 -39.5t-18.5 -43.5t-9 -43.5t-2.5 -40.5q1 -26 5.5 -53t14.5 -54q8 -24 22 -42t29 -32q16 -16 33.5 -29.5 l34.5 -27.5q19 -14 38 -29.5t37 -33.5q35 -35 54 -78t25 -99q4 -29 0 -57.5t-10 -57.5q-6 -27 -15.5 -48.5t-25.5 -44.5q-21 -30 -58 -49t-74 -19q-6 0 -12 0.5t-12 1.5q-22 4 -39.5 19t-31 36t-22.5 44.5t-13 46.5q-5 21 -6.5 42t-3.5 41q0 6 -0.5 12t-0.5 12q-1 2 -1 4 t-1 4l-2 14.5t3 15.5q6 16 20 16q10 0 17 -10q8 -9 8 -21.5t-1 -23.5q-1 -4 -1 -7.5v-5.5q1 -24 5 -49.5t9 -46.5q3 -17 12 -38.5t28 -40.5q29 -28 74 -13q22 8 36 19q1 1 7 5q16 14 22 18q2 4 4.5 8t4.5 8t4 7.5t3 6.5q3 9 5.5 18t5.5 18q2 10 4 14q6 23 11 48.5t1 51.5 q-5 45 -28.5 90t-55.5 76q-12 11 -25 20.5l-27 20.5l-13 9t-12 9q-21 17 -37.5 34.5t-32.5 37.5q-15 19 -26.5 43t-19 51t-10.5 55.5t-1 57.5q4 53 22 98.5t48 77.5q18 20 44.5 28.5t47.5 13.5q18 3 32 3q19 0 36 -5.5t34 -18.5q18 -12 29 -30t18.5 -38.5t12 -42t7.5 -41.5 q1 -5 1.5 -8.5t1.5 -8.5q2 -8 2.5 -15.5t2.5 -15.5q1 -6 1.5 -12t1.5 -11z" />
<glyph unicode="T" horiz-adv-x="407" d="M2 966q-5 10 2 20q5 7 13 9t15 2q2 0 4.5 -0.5t4.5 -0.5h3q20 -1 40 -1h43h37t37 1h17h17h23t24 1q5 0 8 1q5 1 10 1.5t10 0.5q6 0 12 -2q8 -6 10 -12q4 -4 4 -10q0 -3 -1 -5q-1 -5 -3.5 -9.5t-10.5 -4.5q-5 -2 -12 -3t-12 -1q-8 0 -15.5 1l-14.5 2q-4 0 -7 0.5t-5 0.5 h-3h-13h-10.5t-10.5 -1h-9h-4h-6q-1 -2 -1 -6v-7q1 -4 1 -11q-1 -8 -1 -16.5v-16.5v-4q-1 -22 -1 -44t-1 -44q-1 -51 -1.5 -102t0.5 -102q1 -84 0.5 -163.5t-1.5 -142.5v-49q-1 -46 -1 -92t3 -92q0 -14 -1 -25q-1 -10 -2.5 -19.5t-6.5 -14.5t-12 -5q-8 0 -12 5.5t-6 7.5 q-5 8 -3 27v6q0 10 -1 15v17q-1 20 -1 40v40q0 72 -0.5 146.5t0.5 149.5q1 76 1 151v150v97v41v9.5t1 9.5q0 8 0.5 16t-0.5 16q-1 3 -1 7q0 1 -1 1q0 1 -10 2q-12 0 -24 -0.5t-24 -0.5q-12 -1 -24.5 -1h-24.5q-34 0 -42 14z" />
<glyph unicode="U" horiz-adv-x="437" d="M339 988q0 -3 -1 -4q8 -14 7.5 -36.5t-2.5 -48.5q-1 -5 -1 -10v-7q1 -32 0.5 -63.5t-2.5 -63.5q-1 -23 -1 -45t-1 -45v-62q0 -43 -0.5 -86.5t1.5 -86.5q0 -10 0.5 -19.5t0.5 -19.5q2 -20 2.5 -40t-0.5 -40t-3 -39l-4 -38q-2 -9 -2.5 -18.5t-1.5 -17.5q-3 -24 -8 -51.5 t-15 -53t-27 -47.5t-44 -34t-54 -12q-38 0 -72 22t-56 60q-26 46 -34.5 94.5t-10.5 88.5q-3 48 -3.5 95.5t-1.5 95.5l-1 87q0 50 -0.5 100t-0.5 101l1 27v51.5t-1 51.5q0 1 -0.5 2.5t-0.5 3.5q-2 26 -2 43.5t1 28t3 16.5t5 9q5 5 12 5h1q5 0 11 -4q2 -2 3.5 -6t3 -12.5 t2 -24t0.5 -41.5v-5v-125v-52t1 -52v-64q-1 -38 -0.5 -75.5t3.5 -74.5q2 -23 2 -45.5v-45.5q0 -30 0.5 -60.5t5.5 -60.5q7 -48 21 -92t47 -70q26 -20 60 -20q40 0 64 26q26 28 33.5 64.5t10.5 74.5q1 10 1.5 19.5t2.5 19.5q5 32 4.5 65t-1.5 65q-1 23 -1.5 47t1.5 47 q2 51 2 101v100v54v83l-1 48v15q-2 38 -2 60.5t1.5 34.5t4 16t7.5 6h1h1l1 1h1h1q4 0 6 0.5t4 0.5h2q11 0 13 -12z" />
<glyph unicode="V" horiz-adv-x="417" d="M338 981q5 -15 1 -39t-10 -51q-2 -5 -2.5 -9t-1.5 -6q-5 -27 -8.5 -53.5t-7.5 -52.5q-5 -27 -8.5 -54t-8.5 -53l-33.5 -216l-33.5 -220l-7 -47q-2 -18 -5 -35.5t-5 -35.5q-3 -14 -3 -28q-1 -6 -1.5 -11.5t-1.5 -11.5q-1 -5 -2 -9t-3 -8l-3 -9v-5q0 -4 -0.5 -9.5 t-4.5 -11.5q-5 -6 -11 -6h-2q-11 2 -17.5 11t-10 21.5t-5 27.5t-2.5 29q-1 6 -1.5 11t-0.5 7q-9 51 -17 101.5l-16 101.5l-1 9l-18.5 116l-19.5 115l-15.5 91l-15.5 93q-4 23 -7 46.5t-7 46.5q-5 29 -9 59t-9 60q0 1 -0.5 1.5t-0.5 2.5q-2 7 -3 17t8 17q6 5 13 5q8 0 13 -5 t7 -8q8 -11 10 -24.5t3 -25.5q0 -7 1 -10q4 -35 10 -80t14 -92q5 -29 9 -58.5t9 -58.5q6 -50 15 -98l18.5 -114t17.5 -117q2 -14 4.5 -28t4.5 -28l9 -57q2 -10 3.5 -19.5t3.5 -19.5l2 16t3 16l2 14t3 15q3 20 6.5 39.5t6.5 39.5q4 25 7 50t7 51q5 33 9.5 66.5l9.5 67.5 l8 50.5l8 49.5q6 33 11 67l10 69l12 81l5 36q1 2 1 6t1 10q3 29 6 48l5 31t4.5 17.5t4.5 8.5q5 5 10 5h1q4 0 5 -1q8 -2 13 -5.5t4 -11.5v-1z" />
<glyph unicode="W" horiz-adv-x="440" d="M345 940q-2 -10 -2 -15q-2 -20 -1.5 -40.5t0.5 -40.5l1 -17q1 -51 0.5 -101.5t-0.5 -97.5q-1 -22 -1 -43.5t-1 -43.5q-1 -75 -1.5 -151t1.5 -151q1 -19 1 -37.5t1 -36.5v-55t2 -57q3 -32 -7 -43q-6 -6 -13 -6q-8 0 -13 4q-11 7 -15.5 21t-7.5 27q-2 6 -2 9 q-13 45 -28.5 88.5l-31.5 86.5l-14.5 40.5t-15.5 45.5q-2 4 -4 12t-4.5 15t-5.5 13l-3 -9l-3 -9q-3 -6 -5.5 -12.5t-5.5 -12.5q-4 -13 -11 -28l-10 -26l-14 -36.5t-15 -36.5q-2 -6 -4.5 -12t-5.5 -12q-8 -18 -15 -36.5l-14 -37.5q-6 -14 -10 -27.5t-8 -25.5q0 -2 -0.5 -3.5 t-0.5 -3.5q-2 -10 -6.5 -24t-20.5 -14q-4 0 -6 1q-2 0 -3 1t-3 2q-10 11 -11 25.5t0 28.5q1 5 1 9v7q-2 21 -2 42.5t1 41.5v19q1 33 0.5 66t-1.5 65q0 17 -0.5 35t-0.5 36v69.5t-1 69.5v133t-2 134q0 15 -0.5 29.5t-0.5 29.5l-2 56t0 57q1 11 4 20q2 8 6.5 14t12.5 6 q11 0 14.5 -10.5t4.5 -15.5q3 -23 2.5 -46.5t-2.5 -46.5v-3q-2 -23 -1.5 -45t0.5 -44q1 -17 1.5 -33.5t-0.5 -33.5q-1 -29 -1 -57.5v-57.5v-81q0 -28 1 -56l2 -56q2 -26 3 -53t0 -53q0 -42 0.5 -85t2.5 -88l11.5 28.5l15.5 39.5l1 3l24 63q5 13 9 25t9 25q4 9 7.5 18l7.5 19 l6 14q2 4 3 8t3 9l6 16.5t8 16.5q2 4 7.5 11t15.5 7q15 0 22 -17t12 -33q0 -2 0.5 -3.5t0.5 -2.5l14.5 -43.5l15.5 -42.5l8 -22q9 -23 17.5 -48l17.5 -54q2 -5 3 -10t3 -10q2 -7 3.5 -13t3.5 -12v49v29.5t-1 29.5q-1 61 -2 116t-1 110q0 43 0.5 86.5t1.5 85.5 q2 63 2.5 126.5t-1.5 126.5q0 2 -0.5 5.5t-0.5 8.5q-5 38 -3.5 67t18.5 35l1 1h4q5 0 8 -3q1 -1 2 -1q12 -6 13 -25q1 -8 0.5 -15.5t-1.5 -15.5z" />
<glyph unicode="X" horiz-adv-x="419" d="M332 81q4 -8 7.5 -16t5.5 -16q3 -10 1 -16t-4 -10q-7 -7 -15 -7q-17 0 -25 20q-5 11 -8.5 23.5t-6.5 24.5l-3.5 14.5t-3.5 13.5l-13.5 42t-14.5 43q-4 11 -7.5 23t-7.5 24l-18.5 53.5t-17.5 55.5l-12 33l-7.5 21t-6.5 21q-2 4 -2.5 8t-1.5 8q-1 3 -1 5.5t-1 4.5 q-2 -6 -3.5 -12.5t-3.5 -13.5t-3 -13t-3 -12q-5 -19 -10.5 -37t-10.5 -37q-7 -21 -13 -42.5l-12 -43.5l-6 -19.5t-5 -19.5l-16.5 -56.5t-14.5 -56.5l-2 -14q-3 -12 -5.5 -23.5t-5.5 -23.5q-3 -9 -7 -15t-9 -10.5t-12 -4.5q-3 0 -9 3t-9 14q-2 9 0.5 17.5t5.5 16.5 q1 2 1.5 3.5t1.5 2.5q4 11 7 22.5l6 22.5l9 33l5 17q11 33 20.5 67t17.5 68q7 31 16 61.5t19 60.5l7.5 26.5t8.5 26.5l3 12q3 8 5 16t3 16q2 8 -0.5 16.5t-5.5 17.5v2l-10 30.5l-10 31.5l-9 27l-24 72l-18.5 54.5t-17.5 55.5l-5 17q-5 17 -10.5 34t-10.5 34l-1 3l-15 45 q0 2 -1 4q-5 13 -7 23.5t3 18.5q4 5 11 7q3 0 4 1h6q9 0 12 -8q8 -8 11.5 -20.5t5.5 -21.5q1 -2 1 -3.5t1 -3.5q4 -17 9.5 -34t10.5 -34q2 -7 4.5 -14t4.5 -14l33 -105.5t31 -109.5l1 -6q6 -23 10.5 -37.5t7.5 -22.5q1 4 2 8.5t3 9.5q0 2 0.5 3.5t0.5 2.5l12 45l16 57l17 57 l10 33l10 33l15 51q5 15 9.5 31l9.5 33q2 6 4.5 11.5t4.5 11.5l4 11.5l4 11.5q2 7 6 8q6 3 11 1q10 -4 13.5 -12t3.5 -16t-2.5 -16t-3.5 -12l-4 -10l-4 -10l-7.5 -21.5l-7.5 -21.5l-12 -39q-20 -60 -38 -120q-3 -11 -6.5 -22t-6.5 -22l-16 -54l-16 -54q-5 -15 -8.5 -29.5 t0.5 -28.5q3 -17 9 -34l12 -34l5 -12q22 -59 41.5 -118l38.5 -118q7 -20 13 -39.5t13 -39.5q2 -5 4.5 -10.5t4.5 -10.5z" />
<glyph unicode="Y" horiz-adv-x="399" d="M323 988q0 -4 2 -10q1 -5 1.5 -11.5t-1.5 -15.5q-1 -3 -2 -6.5t-2 -7.5q-3 -17 -9 -31q-8 -23 -14 -45.5t-11 -45.5q-8 -35 -17.5 -69l-18.5 -68l-10 -36l-10 -36q-7 -26 -13 -51t-13 -51q-2 -6 -3 -12l-2 -12q-3 -16 -7 -31.5t-12 -29.5q-6 -11 -6 -26.5t2 -30.5 q0 -7 0.5 -13t0.5 -12v-16v-45t1 -45t1.5 -45.5t0.5 -45.5l1 -30q0 -14 1 -27t3 -26q0 -2 0.5 -4t0.5 -4q3 -8 3 -17q1 -9 -0.5 -13.5t-6.5 -9.5q-2 -2 -3 -4q-3 -5 -10 -5h-2q-10 1 -15 7t-7 13.5t-1.5 15t0.5 12.5v5q1 20 0.5 39t-1.5 38l-1 19l-3 108v32t-1 32 q-1 22 -1.5 41.5t-2.5 38.5q-1 8 -1 16.5v16.5q1 11 0.5 22t-2.5 22q-8 38 -18.5 75.5l-21.5 74.5l-4 14q-24 76 -47 164q-5 21 -10.5 41l-10.5 39q-2 5 -3.5 11t-3.5 12q-4 11 -7.5 23t-5.5 23q-2 16 6 24q4 6 13 6q4 0 9.5 -2.5t10.5 -11.5q6 -10 9 -21t5 -22l2 -7 q5 -28 12.5 -58.5t16.5 -60.5q8 -27 15.5 -55l14.5 -55q4 -14 7.5 -28t6.5 -28q4 -12 7 -23.5t7 -23.5q2 -11 5 -20.5t6 -20.5q2 -7 4 -19q2 -6 3 -12.5t3 -12.5q2 5 2.5 10t2.5 10l1 6q3 14 6.5 28.5t6.5 28.5l3 9l15 57l12.5 46.5t11.5 46.5q5 20 10.5 40t10.5 40 q9 28 15 55l2 7q5 16 8.5 31.5t7.5 31.5q1 2 1 7q1 6 2.5 13t5 13.5t9 11t14.5 4.5q3 0 4 -1q1 0 5 -2q1 -2 2 -3t1 -3q1 -1 1 -3z" />
<glyph unicode="Z" horiz-adv-x="405" d="M333 997q4 -3 6 -9q3 -3 3 -8q0 -7 -5 -13q-2 -12 -5.5 -22.5l-7.5 -21.5q-3 -5 -5 -11t-4 -11q-8 -26 -16 -49.5l-15 -43.5q-8 -22 -15 -44t-13 -45q-7 -20 -13 -41t-13 -41l-54.5 -165l-57.5 -188l-26.5 -89l-27.5 -90l-9 -24q-4 -10 -7 -18.5t-5 -17.5q-1 -2 -1 -4h2 l4 -1q6 0 12 0.5t13 0.5q5 1 15 1q14 1 26.5 1h23.5h42h36.5t38.5 2q5 0 8 1q5 0 10 1t10 1q15 0 25 -8q7 -5 8 -10.5t0 -8.5q-3 -8 -10.5 -10.5t-13.5 -3.5q-7 -1 -14.5 -1.5t-15.5 -0.5t-15.5 0.5t-15.5 0.5q-8 1 -15 1h-15h-6h-67l-25 -1q-14 0 -25.5 -0.5t-22.5 -1.5 q-3 0 -6 -0.5t-7 -1.5q-5 -1 -10 -1.5t-10 -0.5h-7q-6 2 -9 7q-9 16 -5 34t9 34q2 4 4 12q4 11 7.5 23t7.5 24q4 10 7 20l6 21q6 19 12.5 37.5t12.5 37.5l29 93l54 178l52 162l25.5 80l24.5 80q2 5 3 9.5t3 9.5q5 15 9.5 30t10.5 30q1 2 3 8q2 5 6.5 14t3.5 14h-1h-8 q-44 0 -87 -3q-17 -1 -33.5 -1.5t-33.5 -0.5h-16q-14 -1 -28 -1t-28 -1q-2 0 -4 -1q-4 0 -10 -0.5t-11 -0.5q-4 0 -12 1.5t-12 9.5q-5 11 7 23q7 8 17.5 9.5t18.5 1.5h14q2 0 3.5 -0.5t3.5 -0.5q16 0 31 0.5t30 0.5q11 0 20.5 0.5t19.5 0.5h47t48 2q4 1 7.5 1h6.5q7 1 14 1 t14 1h5.5t7.5 -1q4 1 11 -2z" />
<glyph unicode="[" horiz-adv-x="229" d="M157 30q1 -2 0.5 -0.5t-0.5 3t-0.5 2t0.5 -4.5q1 -2 0.5 0t-0.5 3q4 -20 -6 -25t-25 -4q-25 1 -49 0t-49 -3q-6 -2 -11.5 -0.5t-8.5 14.5t2.5 18t14.5 5.5t19 -1t16 -1.5q15 0 30 1l30 2q3 0 9 0.5t12 0.5t10.5 -2t5.5 -8zM1 970q0 2 0 0.5t0.5 -3t0.5 -2t-1 4.5 q-1 2 0 0t1 -3q-5 20 5 25t25 4q25 -1 49.5 0t49.5 3q5 2 11 0.5t8 -14.5q3 -13 -2 -18t-14 -5.5t-19 1t-17 1.5q-14 0 -29 -1l-30 -2q-4 0 -10 -0.5t-12 -0.5t-10.5 2t-5.5 8zM6 35v16t1 16q0 5 0.5 10.5t0.5 10.5v16q-1 100 -1.5 202t-1.5 204q-1 32 -1 63v63v117l-1 25 v93q1 13 0.5 25t-2.5 26q-2 15 -1.5 30.5t7.5 27.5q3 5 8 6.5t10 -1.5h3q4 -1 11 -3.5t6 -12.5q4 -10 3.5 -21t-1.5 -18v-3q-2 -17 -2.5 -34.5t0.5 -37.5q1 -38 1 -75.5v-74.5v-59q0 -68 0.5 -135t0.5 -135q0 -42 0.5 -82.5t0.5 -82.5q0 -47 3 -99v-15t-1 -14v-19 q0 -8 1 -13q0 -6 0.5 -12.5t-0.5 -14.5q-5 -24 -20 -24q-13 0 -18.5 13.5t-6.5 21.5z" />
<glyph unicode="\" horiz-adv-x="415" d="M301 29q-3 8 -5 16.5l-4 16.5l-6 21l-5 17l-65.5 205l-66.5 206q-11 32 -21 64l-20 64q-10 29 -19 59t-19 59l-8 26l-15.5 46.5l-14.5 47.5q-8 27 -19 52q-6 14 -10.5 30t-1.5 30q1 5 5.5 8.5t9.5 1.5h1l2 1q4 0 11.5 -0.5t9.5 -10.5q8 -9 10.5 -20.5t4.5 -19.5l1 -3 q7 -33 21 -73l25 -76l24 -76q5 -15 9.5 -30t9.5 -30l43.5 -137l43.5 -137q14 -42 26.5 -83.5t26.5 -83.5l16.5 -49.5t18.5 -50.5q2 -8 4 -15l4 -14q2 -5 3 -10t3 -10q1 -4 5 -12q2 -7 4.5 -13.5t4.5 -14.5q3 -26 -12 -30q-12 -4 -21.5 8t-13.5 20z" />
<glyph unicode="]" horiz-adv-x="248" d="M0 970q0 2 0 0.5t0.5 -3t0.5 -2t-1 4.5q0 2 0.5 0t0.5 -3q-4 20 6 25t24 4q25 -1 49.5 0t49.5 3q6 2 11.5 0.5t8.5 -14.5t-2.5 -18t-14.5 -5.5t-19 1t-16 1.5q-15 0 -30 -1l-30 -2q-8 0 -21.5 -1t-16.5 10zM157 30q0 -2 0 -0.5t-0.5 3t-0.5 2t1 -4.5q0 -2 -0.5 0t-0.5 3 q4 -20 -6 -25t-24 -4q-25 1 -49.5 0t-49.5 -3q-6 -2 -11.5 -0.5t-8.5 14.5t2.5 18t14.5 5.5t19 -1t16 -1.5q15 0 30 1l30 2q8 0 21.5 1t16.5 -10zM151 965q2 -17 0 -32q-1 -5 -1 -10.5v-10.5v-16q1 -100 1 -202t2 -204v-126v-58.5t1 -58.5v-25q1 -47 0 -93q0 -13 0.5 -25 t1.5 -26q2 -15 1.5 -30.5t-7.5 -27.5q-2 -5 -7 -6.5t-10 1.5h-1h-2q-4 1 -11 3.5t-6 12.5q-5 10 -4.5 21t1.5 18l1 3q2 17 2 34.5v37.5q-2 38 -2 75.5t1 74.5v59q-1 68 -1 135v135q-1 42 -1 82.5v82.5q0 46 -3 99v15t1 14v19q0 8 -1 13q-1 6 -1.5 12.5t1.5 14.5q4 24 20 24 q13 0 18.5 -13.5t5.5 -21.5z" />
<glyph unicode="^" horiz-adv-x="427" d="M327 686q13 2 18 12t-1 24t-8 19q-26 46 -50 93l-47 94q-5 10 -9.5 20t-9.5 20q-4 12 -11.5 23t-24.5 9h-1q-1 -1 -2 -1t-2 -1q-4 -2 -5 -2q-9 -5 -9 -9.5t1 -5.5v-1q0 -16 23 -50q1 -2 2 -3.5t1 -2.5l31.5 -59.5l28.5 -55.5l22.5 -45.5l23.5 -44.5q2 -6 3 -8 q1 -1 1 -1.5t1 -1.5q4 -9 9 -16t15 -6zM182 1000q12 -4 17 -13q4 -11 -2.5 -24t-9.5 -18l-56 -90.5l-53 -90.5l-10.5 -18.5l-11.5 -19.5q-5 -12 -13 -22.5t-25 -6.5h-1q-2 0 -4 2l-4 2q-9 5 -9 10t1 5v1q1 17 26 49q4 6 4 5q20 30 36.5 57.5t30.5 53.5l25.5 44.5t26.5 42.5 q2 2 2.5 4t2.5 4q0 1 1 2q5 9 10.5 16t15.5 5z" />
<glyph unicode="_" horiz-adv-x="441" d="M2 -13q-5 12 2 21q6 9 21 10.5t21 1.5q53 -2 105.5 -1t104.5 3q11 0 22 0.5t22 0.5q14 2 27 0.5t19 -17.5q0 -4 1 -5v-5q0 -11 -4 -13t-5 -2h-1q-14 -8 -56 -3h-6q-35 1 -67.5 1t-62.5 -2q-25 -1 -50 -1h-51h-9h-3q-10 -1 -18.5 0.5t-11.5 10.5z" />
<glyph unicode="`" horiz-adv-x="149" d="M49 830q-2 0 -1 0t2.5 0.5t2 0.5t-3.5 -1q-12 -3 -17.5 2t-7 13t-1 17.5t0.5 17.5q0 24 -1 48.5t-3 48.5q-2 7 0 13.5t14 8.5q3 1 12 1t8 -5q7 -7 5 -18t-3 -19q-1 -12 -0.5 -24t1.5 -24q1 -13 1 -25.5v-26.5q0 -8 1 -16.5t-10 -11.5z" />
<glyph unicode="a" horiz-adv-x="405" d="M24 6q-17 0 -23 27q-2 11 0 22l4 21q0 3 0.5 5.5t1.5 5.5q2 9 3 18.5t3 18.5l6 36q2 10 3 19.5l2 18.5q2 11 3.5 22t3.5 22q2 8 3.5 16.5t3.5 16.5q3 14 6 26.5t5 26.5q3 20 5 37.5l4 34.5q1 5 1 16q1 5 1 11t1 11q1 11 6 22q2 5 3 9t1 9q2 14 4.5 27.5t4.5 27.5 l17.5 120.5t15.5 120.5v5q1 10 2.5 20.5t5.5 21.5q2 5 1.5 10t-0.5 11v11t1 12l4 22.5l4 22.5l6 33v7q0 7 0.5 15.5t3 15.5t6.5 12.5t12 6.5h3q10 0 15.5 -7t9 -17.5t4.5 -23t2 -23.5q1 -3 1 -8q5 -37 10.5 -74t11.5 -73l4 -32l39 -255l11.5 -75.5l11.5 -75.5 q5 -29 8.5 -56.5t8.5 -56.5q3 -22 6.5 -44t6.5 -44l2 -14q2 -14 4.5 -29t5.5 -29q1 -2 1 -3t1 -2q2 -8 4 -17.5t0 -18.5q2 -8 -6 -14q-2 -2 -6.5 -5t-9.5 -3q-8 0 -12 9v1q-8 9 -12 25.5t-6 33.5v3q-2 15 -4.5 30.5t-4.5 30.5q-5 26 -8.5 53.5t-7.5 54.5l-2 18l-2 18 q-2 13 -3 25t-3 25q-1 5 -1.5 10t-1.5 10l-2 12t-2 13v13q-1 5 -1.5 14.5t-2.5 12.5q-2 2 -10 2.5t-12 0.5h-6q-6 1 -12.5 1h-11.5h-21h-18t-21 -1h-6h-5q-8 0 -9.5 -1t-2.5 -3q-4 -11 -5.5 -24t-2.5 -26l-1 -9q-2 -20 -5 -40.5l-6 -40.5l-1 -11q-4 -23 -7.5 -46.5 t-6.5 -46.5q-4 -20 -7 -40.5l-6 -40.5q-1 -6 -1 -11.5t-1 -11.5q0 -16 -3 -31q-1 -6 -4 -15.5t-14 -10.5h-2v0zM193 668l-4 24.5t-7.5 43.5l-9.5 52.5l-9 50.5q-1 -8 -1.5 -15.5t-2.5 -15.5q-1 -7 -1.5 -13.5t-1.5 -12.5l-4 -23.5l-4 -22.5q-3 -16 -5.5 -32t-4.5 -33 q-2 -26 -7 -52l-10 -52t-9.5 -52.5t-7.5 -53.5v-4v-3h4t7 1h8h1h14t14 -1q5 0 11 -0.5t11 -0.5h3h15q11 0 18 0.5t14 1.5h1q0 2 -0.5 5t-0.5 5l-1 5q-7 32 -11 63.5t-9 62.5q-2 18 -4.5 36t-5.5 36z" />
<glyph unicode="b" horiz-adv-x="405" d="M1 461q-2 64 -1.5 127.5t2.5 126.5v43q1 32 1 63t1 62q0 17 -0.5 33t-0.5 32v5q-1 11 2 26.5t23 19.5q4 1 12 1q20 0 41 -9t39 -18q6 -4 9 -5q23 -12 46.5 -32t49.5 -50q23 -26 35.5 -57t21.5 -60q22 -66 19 -132q-2 -35 -13.5 -67t-32.5 -58q-17 -22 -38 -34.5 t-44 -23.5h4q38 -9 64 -28q54 -38 73 -98q8 -27 12.5 -58t4.5 -68q0 -33 -4 -68t-19 -62q-17 -29 -42 -40t-51 -16q-67 -13 -133 -14h-6.5t-7.5 -1q-5 0 -10.5 -0.5t-11.5 -0.5q-14 0 -23 3q-15 5 -18 16.5t-3 20.5v8q-1 20 -1 39.5v39.5v50q-1 20 -0.5 39t1.5 39 q0 15 0.5 30.5t0.5 30.5q0 24 -0.5 48.5t-1.5 48.5v48zM39 554q1 -14 0.5 -27.5t-1.5 -26.5l-1 -9v-13.5t1 -13.5v-3q6 2 11.5 2.5t11.5 1.5l11.5 2t10.5 2q11 3 23.5 7t25.5 9q23 8 43 17.5t36 25.5q19 19 29 41.5t14.5 45t4 44.5t-3.5 41q-6 44 -26 100q-6 17 -16.5 36.5 t-24.5 32.5q-5 5 -9 8.5t-9 7.5t-10 7.5t-10 8.5l-2 2q-8 8 -16.5 15.5t-18.5 12.5q-4 2 -13 5.5l-19 7.5t-20.5 7t-17.5 4q-1 -34 -1 -67.5v-67.5q0 -35 -0.5 -69.5t-0.5 -69.5q0 -12 -0.5 -23.5t-1.5 -22.5q-1 -20 -1.5 -40.5t1.5 -40.5zM99 46q38 0 76 4t67 26 q18 14 27.5 33t13.5 41.5t3 46l-2 46.5v7q-3 51 -24 89.5t-56 57.5q-40 21 -94 23h-5q-5 0 -10 0.5t-10 0.5q-7 0 -12.5 -0.5t-10.5 -1.5q-1 0 -1.5 -0.5t-2.5 -0.5q-3 -1 -7.5 -2t-9.5 1h-2q1 -21 0.5 -42t-0.5 -42q0 -9 -0.5 -18.5t-0.5 -18.5q0 -15 0.5 -30t0.5 -30 q1 -17 1 -34v-34q-1 -15 -0.5 -30.5t1.5 -30.5q0 -11 0.5 -22.5t0.5 -22.5v-4q0 -2 -0.5 -6t0.5 -6q1 0 2.5 -0.5t5.5 -0.5h4h6q4 0 7 0.5t7 0.5h2h1h3h17h1h1z" />
<glyph unicode="c" horiz-adv-x="417" d="M142 4q-51 13 -79 51t-41.5 84.5t-16.5 93.5t-3 78q-2 96 -2 193.5t5 197.5q1 6 1 12t1 12q2 41 6 81.5t20 79.5q6 14 16 32.5t24 34.5q8 8 16 12t16 7l5 2q5 2 8.5 4t8.5 4q8 6 21 11q18 6 36 6q34 0 64 -20t46 -53q22 -45 31.5 -93t14.5 -91q1 -2 1 -4.5t1 -4.5 q1 -6 2 -14t0.5 -16t-4.5 -14.5t-13 -10.5q-1 -1 -2 -1t-3 -1h-4q-3 0 -4 1q-2 0 -5 3q-7 5 -7 14l-1 13q-5 45 -11.5 88.5t-21.5 85.5q-11 27 -34 50.5t-53 23.5h-9t-9 -2q-17 -5 -34 -15t-28 -20q-13 -10 -20.5 -26.5t-12.5 -33.5l-3 -7q-14 -40 -17 -82t-4 -84v-24 q-1 -11 -1.5 -21t-1.5 -20q-1 -15 -1.5 -30t-0.5 -29l1 -29q0 -17 0.5 -34t0.5 -34q0 -14 -0.5 -28t-0.5 -28q-2 -33 -2 -66t7 -64q3 -16 4.5 -32t3.5 -33q0 -7 0.5 -13.5t1.5 -12.5q2 -23 10 -43.5t18 -40.5q17 -36 51 -46q11 -3 23 -5.5t24 -2.5q18 0 29 7q16 9 27 25.5 t18 36t11.5 40.5t7.5 40v4q2 11 3 22t3 24v9q0 6 0.5 12.5t2.5 12.5q4 11 10 15t11 4t12 -5q9 -7 8.5 -17.5t-2.5 -17.5l-1 -2q-3 -14 -4 -28.5l-2 -28.5q-3 -31 -7.5 -61t-20.5 -59q-10 -17 -23 -35.5t-31 -30.5q-23 -17 -59 -17q-19 0 -32 4z" />
<glyph unicode="d" horiz-adv-x="435" d="M344 521q1 -26 1 -52.5t1 -53.5q1 -36 1 -77t-3 -83q0 -5 -0.5 -11t-0.5 -12l-4 -54.5t-10 -54.5q-7 -26 -21 -48t-32 -38t-40 -26t-45 -11h-7h-2q-5 0 -10.5 0.5t-10.5 0.5q-2 0 -4 0.5t-4 0.5q-6 0 -12 0.5t-12 0.5q-14 1 -28.5 1.5t-28.5 -0.5h-5t-6 -1l-12 -2t-12 -1 q-14 0 -21 6q-9 7 -9.5 19.5t1.5 23.5v10q2 50 1 99.5t-3 99.5q0 21 -0.5 42t-0.5 43q-1 36 -1.5 72t-0.5 71q-1 43 -1 86.5t-1 87.5q-1 37 -1 77.5t2 89.5q1 20 1 39.5t1 39.5q0 1 -0.5 3.5t-0.5 5.5v33.5t2 26.5q-2 7 3 12q5 7 16.5 10t33.5 3q18 0 42.5 -2t48.5 -6 t43 -8.5t27 -8.5q34 -21 56 -49t35 -60.5t19 -66.5t9 -65q5 -53 5.5 -106.5t0.5 -106.5zM195 47q20 2 37 14t29.5 30.5t21.5 41t12 44.5q1 7 1.5 13t1.5 13q2 9 2.5 18t2.5 18q4 21 3 41t-3 41q-2 24 -1.5 48.5t1.5 48.5q0 17 0.5 33.5t-0.5 33.5q-1 46 -1.5 87t0.5 83 q2 80 -13 143l-2 10q-4 14 -7.5 28.5t-9.5 27.5q-7 14 -20.5 29.5t-26.5 25.5q-57 43 -139 36q-2 0 -4.5 -0.5t-5.5 -0.5q-6 -2 -13.5 -3t-15.5 -1q0 -5 -0.5 -11t-1.5 -11q-2 -8 -2 -11q-2 -21 -2 -44t1 -46v-40q-1 -48 -0.5 -96t0.5 -96q1 -26 1 -51v-50q1 -71 1.5 -143 t3.5 -144q1 -14 0.5 -29t-0.5 -29q-2 -30 0 -60v-7.5t-1 -8.5q0 -6 -0.5 -15t1.5 -13q2 0 4 -0.5l6 -1.5q15 -1 30 0l31 2q17 2 34.5 3t34.5 -1h2h7v0z" />
<glyph unicode="e" horiz-adv-x="362" d="M38 0q-18 0 -25.5 8t-9.5 16q-3 12 -3 26t1 28q1 6 1.5 12t0.5 11q-1 63 -0.5 125.5t0.5 124.5v66t1 65v129q2 150 0 301q0 3 -0.5 6.5t-0.5 8.5q-1 9 -1 19.5t2 20.5q4 17 13 21t17 4h9h1q14 0 27 0.5t26 1.5q10 1 19.5 1t19.5 1h16.5t16.5 1q17 0 34 0.5t34 1.5 q4 0 11 0.5t15 0.5q14 0 22 -2q3 0 5 -1t4 -3q5 -5 5 -8q1 -5 0 -9q0 -7 -3 -10q-6 -4 -9 -4q-12 -6 -41 -6q-11 0 -20 0.5t-15 0.5h-4q-8 1 -17 1h-18q-28 0 -56 -1t-55 -3l-3 -1h-8.5t-5.5 -1q-1 -1 -1 -2v-6q-1 -5 -0.5 -11t0.5 -11v-10q2 -40 0 -80v-14v-90 q0 -25 0.5 -50t-0.5 -51q0 -9 -0.5 -18t-0.5 -18q-1 -14 -1 -27.5v-27.5v-3q-1 -19 0 -38q0 -3 -0.5 -6t-0.5 -6q-1 -12 0 -16t4 -6q13 -5 29.5 -4t35.5 3q13 2 26 3t26 -1q10 -1 18.5 -6.5t9.5 -14.5q1 -4 -2 -10.5t-16 -9.5q-5 -2 -10.5 -1.5t-10.5 1.5q-2 1 -7 1h-21h-24 q-11 1 -21 0.5t-22 -1.5h-4h-5.5t-4.5 -1q-1 0 -1 -1v-4q-1 -18 -1 -36.5v-37.5v-10q0 -22 0.5 -44t0.5 -44q1 -25 1.5 -50t0.5 -50v-18q-1 -18 -1 -36t2 -36q0 -2 0.5 -3.5t0.5 -2.5t1 -1q1 -1 4 -1h6h10q8 0 15 0.5t15 0.5h5q18 1 36.5 1.5t36.5 0.5q24 1 48.5 1t48.5 2h3 q3 0 6 0.5t5 0.5q26 0 31 -17q3 -8 1.5 -13t-3.5 -9q-6 -8 -16.5 -10t-18.5 -2q-6 0 -11 0.5t-9 0.5q-2 1 -6 1h-8q-25 1 -50.5 1h-51.5h-34.5t-32.5 -1q-4 0 -14 -2q-5 -1 -11 -1.5t-12 -0.5z" />
<glyph unicode="f" horiz-adv-x="374" d="M1 945q-1 8 -1 16.5t5 16.5q6 11 17.5 13.5t21.5 2.5q9 0 13 -1h3q23 -1 44 -0.5t47 1.5q14 1 26.5 1.5t25.5 0.5h21t20 1q5 0 10 0.5t10 0.5q7 1 13.5 1t13.5 1h4q13 0 18 -2q7 -3 11 -7q4 -3 6.5 -7.5t1.5 -9.5q0 -3 -1 -4q-2 -5 -4.5 -9t-9.5 -4h-1q-5 -2 -9 -2h-8 h-6.5t-7.5 1h-7q-20 -2 -40 -2h-41h-4h-37q-9 1 -18 1h-18q-11 0 -21 -0.5t-19 -0.5q-3 -1 -12 -1h-14t-12 -2q-3 -3 -3 -25l1 -5v-25q1 -11 1 -21.5v-21.5q2 -23 1.5 -45.5t-0.5 -44.5v-39.5t1 -39.5q2 -45 2 -85t-1 -79v-10t-1 -10q-2 -12 -2 -24.5t3 -21.5q1 -1 1 -2h9 l2 -1q12 0 24.5 0.5t25.5 1.5q8 1 16 1t16 1h2h9q12 0 23.5 -2.5t16.5 -11.5q1 -4 1 -9.5t-6 -12.5q-9 -9 -26 -9h-9t-8 1h-4q-15 2 -30.5 2.5t-31.5 -1.5h-5h-8q-9 0 -12.5 -0.5t-5.5 -0.5q-1 -2 -0.5 -7t0.5 -8q0 -2 0.5 -3t0.5 -3q1 -17 1.5 -34.5t0.5 -37.5v-74 q0 -23 -0.5 -46t0.5 -46q0 -12 0.5 -24t1.5 -24q0 -8 0.5 -16.5t0.5 -16.5v-11q1 -5 1 -10v-10q0 -1 0.5 -1.5t0.5 -2.5q2 -6 2.5 -13t-4.5 -14q-5 -5 -9.5 -7t-7.5 -2q-14 0 -19 13t-6 19q-1 12 2 27q0 3 0.5 6t0.5 7q2 27 1.5 55t-1.5 55q-1 13 -1.5 25t-0.5 24 q0 21 -0.5 41.5t-0.5 41.5q-2 63 -3 126.5t0 127.5v49q1 80 1 160.5t-5 160.5v7z" />
<glyph unicode="g" horiz-adv-x="407" d="M332 757q0 -4 1 -5q0 -6 1 -12t-1 -12q0 -2 -2 -7.5l-4 -10.5q0 -3 -2 -5l-2 -2q-6 -7 -13 -7q-5 0 -7 2q-2 0 -4 2q-11 8 -11.5 22t1.5 28q1 3 1 5.5v4.5q-2 25 -4.5 43.5t-7.5 34.5q-11 32 -26 60.5t-45 43.5q-24 11 -44 11q-22 0 -40.5 -11.5t-32.5 -30t-23.5 -42 t-12.5 -47.5q-2 -7 -2.5 -13.5t-1.5 -12.5q-2 -10 -2.5 -19t-2.5 -18q-4 -21 -3.5 -41t2.5 -41q2 -24 2 -48.5t-1 -48.5q0 -17 -0.5 -34t-0.5 -34q2 -45 2.5 -87t-0.5 -84q-2 -39 1.5 -75t11.5 -69l3 -9q3 -14 7 -29t10 -27q7 -15 21 -30.5t27 -24.5q40 -30 63 -29 q10 1 20 9q2 1 2.5 2t2.5 3q3 3 9 7q3 4 11 10q1 2 2.5 2.5t1.5 1.5q8 10 14 20q9 16 12.5 35.5t5.5 35.5q5 40 7 78t2 71q1 7 1 13.5v13.5q1 12 1.5 23t-0.5 22v6v6.5t-1 8.5h-4h-1q-20 2 -38 0h-19h-14t-12 1l-6.5 1t-14 3t-14 6.5t-6.5 11.5q-1 11 8.5 15t13.5 5 q8 2 17 1.5t17 -1.5q3 -1 9 -1q23 -2 50 0h11q1 0 3 0.5t4 0.5q4 1 8 1h9t9.5 -0.5t8.5 -4.5q7 -7 7.5 -16.5t-0.5 -21.5v-5q0 -8 -0.5 -16t-0.5 -16q-1 -11 -1 -23t-1 -23q-1 -42 -3.5 -81.5t-7.5 -78.5q-5 -36 -17 -71.5t-44 -64.5q-3 -2 -9 -8q-8 -8 -16.5 -15.5 t-19.5 -11.5q-9 -3 -18 -3q-16 0 -31 6t-27 14q-35 20 -57 48.5t-35.5 61t-20 66.5t-9.5 66q-5 54 -6 107t-1 107v53t-1 53q-1 37 -1 78t2 83q1 6 1 12t1 11l4 55.5t10 54.5q7 27 22 49.5t35 39t43.5 26t48.5 9.5q42 0 80 -27q18 -12 30 -29.5t20.5 -36.5t14 -38.5 l10.5 -36.5q4 -14 5.5 -28t2.5 -28q1 -5 1 -9.5t1 -9.5z" />
<glyph unicode="h" horiz-adv-x="438" d="M343 190q0 -17 0.5 -33t1.5 -33q0 -22 0.5 -44t1.5 -45q0 -5 -2 -14t-8 -15q-5 -6 -13 -6q-11 0 -20 15q-5 10 -5 21t1 21q1 3 1 10q1 27 0.5 55t-1.5 55q-1 18 -1 36.5v36.5l-1 36v67v17v29q0 5 -1 6q-2 0 -8 2q-11 2 -24 2.5t-26 0.5q-6 1 -12 1h-11q-45 3 -91 -3 q-12 -2 -23.5 -3t-23.5 -1h-4h-5q-5 0 -10 0.5t-10 2.5q1 -79 1.5 -155t1.5 -149q0 -6 0.5 -12t1.5 -12q2 -15 2.5 -30t-4.5 -29q-1 -4 -4.5 -12t-13.5 -8q-8 0 -12.5 7t-7 15.5t-3.5 16.5t-1 10q-2 38 -2 75.5v74.5v102q-2 75 -3 157.5t-2 176.5q-1 42 -1.5 89t-0.5 95v9 v86v42q0 3 -1 5q0 16 1 21q0 1 3.5 7.5t10.5 8.5q2 1 5 1q3 1 7 1q8 0 11 -4.5t4 -7.5v-3q7 -12 7.5 -33.5t-1.5 -52.5q0 -4 -0.5 -6t-0.5 -4l1 -25q0 -36 0.5 -73t-0.5 -74q-1 -23 -1 -45.5v-45.5q0 -20 0.5 -40t-0.5 -40v-16q-1 -17 -1 -34t2 -34v-2v-7h2q9 0 13 1h28 q6 -1 13 -1h16h18h34q9 -1 18 -1.5t19 -0.5q11 -1 21.5 -1.5t21.5 -0.5q9 -1 18.5 -0.5t19.5 1.5h2q5 0 6 1q1 0 1 2q2 8 2 16.5t-2 17.5q0 5 -0.5 9t-0.5 9q-2 60 -2 119.5t1 118.5v52t1 52v18v30t-1 30v4q-5 44 7 57q11 11 23 3q12 -7 13.5 -20.5t0.5 -23.5v-2 q-1 -13 -1.5 -26.5t-0.5 -27.5q-1 -54 -0.5 -107t0.5 -106q1 -32 1 -65v-65v-21q0 -167 3 -335z" />
<glyph unicode="i" horiz-adv-x="144" d="M6 36v16t1 16q0 5 0.5 10.5t0.5 10.5v17q-1 101 -1.5 204t-1.5 206q-1 32 -1 64.5v64.5v118l-1 26v94q1 13 0.5 25.5t-2.5 26.5q-2 15 -1.5 30.5t8.5 27.5q2 5 7 6.5t10 -0.5v-1h3q4 -1 11 -3.5t6 -12.5q4 -10 4 -21t-1 -19l-1 -3q-2 -17 -2 -35v-38q2 -38 1.5 -76 t-0.5 -76v-60q0 -69 0.5 -136.5t0.5 -136.5q0 -42 0.5 -83.5t0.5 -83.5q0 -47 3 -101v-14.5t-1 -14.5v-19v-6.5t1 -6.5q1 -6 1.5 -13t-1.5 -14q-4 -25 -20 -25q-13 0 -18.5 13.5t-6.5 22.5z" />
<glyph unicode="j" horiz-adv-x="428" d="M38 295q7 -7 7 -16v-16q-1 -2 -1 -6q0 -14 2 -29.5l4 -30.5l2 -10q5 -32 17.5 -60t31.5 -48q42 -44 88 -19q43 25 68 81q13 29 16.5 59.5t5.5 62.5v8q2 18 2 36.5t1 35.5q0 17 0.5 33.5t1.5 33.5q1 20 1 40.5v40.5q-2 34 0 69q1 29 1 59v59l1 32v80.5t2 84.5q1 11 0.5 21 t-0.5 20q-1 10 -1.5 20t0.5 20q1 29 10.5 36.5t17.5 7.5q5 0 9 -4q10 -9 10.5 -23.5t-1.5 -27.5q-1 -3 -1 -8q-1 -11 -1 -22v-22v-18.5t-1 -18.5q-2 -38 -2.5 -76.5t-1.5 -76.5l-1 -22q-1 -51 -1 -92.5t2 -77.5q1 -23 0 -45l-2 -45q-1 -21 -1.5 -42.5t0.5 -43.5 q1 -32 -2.5 -65.5t-7.5 -65.5l-2 -15q-3 -29 -11.5 -63t-31.5 -64q-22 -29 -52 -45.5t-62 -16.5q-5 0 -9.5 0.5t-9.5 1.5q-20 3 -36 13.5t-28.5 25t-22 30.5t-15.5 31q-11 29 -17.5 58.5t-11.5 56.5v1l-4 25t-1 26v1q1 7 1.5 12.5t4.5 10.5q3 3 5 4q2 5 11 5h2h2 q2 0 2.5 -0.5t1.5 -0.5h1q4 -1 7 -6z" />
<glyph unicode="k" horiz-adv-x="407" d="M2 913q0 3 -1 6q-2 26 -0.5 45t15.5 24t24 -5q3 -3 8 -16.5t3 -54.5l-1 -5q-2 -29 -3.5 -57t-1.5 -58q1 -29 1 -57v-57q-1 -14 -1 -28v-28q0 -7 0.5 -13.5t0.5 -13.5v-28.5t-1 -28.5v-11q0 -3 -0.5 -8t-0.5 -11q8 14 15 29t15 29q7 16 14.5 31.5t16.5 30.5q20 33 38 67 l35 68l18 36t19 35l20 39l20 39q6 13 12.5 25.5l13.5 25.5l5 10q2 2 3.5 5.5t3.5 6.5q3 4 7 8q2 3 5 5q1 1 2 1t2 1h1h1h2q1 0 4.5 -0.5t6.5 -3.5q9 -5 12 -12q6 -13 -4 -30q-7 -11 -12.5 -21.5l-10.5 -19.5l-2 -2l-25 -48.5l-27 -48.5q-23 -38 -44.5 -77.5l-42.5 -78.5 l-12 -23l-12 -23q-30 -56 -54 -108q-5 -11 -11.5 -22l-14.5 -25q-6 -10 -6 -15.5t7 -15.5l62.5 -95l67.5 -96l37.5 -53l36.5 -53l18 -25l12 -18.5t13 -18.5q4 -6 7 -9q7 -9 14 -19.5t8 -24.5q0 -6 -4 -10q-3 -4 -9 -4h-1q-17 0 -25.5 11.5t-13.5 21.5l-1 4q-8 15 -23 33 q-3 5 -6 8.5t-6 8.5q-5 8 -10.5 15.5t-10.5 15.5l-28.5 41l-29.5 41l-21.5 30l-20.5 30l-17.5 25.5t-17.5 24.5l-13 19t-12 19q-4 5 -7 9.5t-6 9.5q-2 2 -3.5 5t-3.5 6q-4 6 -5 9q-1 -22 0 -43q3 -38 4 -75l2 -72q0 -25 1.5 -50.5t3.5 -50.5l1 -14v-4q1 -10 1.5 -22.5 t-1 -23.5t-6 -19t-14.5 -10q-9 -2 -18 5q-8 8 -9 24t0 39v4q2 23 1 47t-1 48q-1 7 -1 13.5v13.5q-1 42 -1.5 84t-0.5 83q-1 36 -1 71.5t-1 70.5q-1 39 -0.5 77.5t0.5 76.5v79t-1 80q0 16 -0.5 30t-1.5 29q0 8 -0.5 17t-0.5 18z" />
<glyph unicode="l" horiz-adv-x="295" d="M199 49q9 -1 20 -3t16 -11q4 -9 -1 -19q-7 -11 -19 -13.5t-22 -2.5q-6 0 -12 0.5t-11 0.5q-2 0 -4.5 0.5t-4.5 0.5q-6 0 -12.5 0.5t-12.5 0.5q-15 1 -29.5 1.5t-30.5 -0.5q-7 0 -12 -1q-6 -1 -12.5 -1.5t-12.5 -0.5q-15 0 -22 5q-10 8 -10.5 20.5t1.5 24.5q0 2 0.5 4.5 t0.5 4.5q1 50 0 100l-2 100q-1 22 -1.5 43t-0.5 42q-1 37 -1.5 73t-0.5 72q-1 43 -1 86.5t-1 87.5q-1 38 -1 78.5t2 90.5q1 17 1 37.5t1 41.5v10q-2 41 0 57.5t13 19.5q1 1 5 1h4q2 -1 3 -1t3 -1h1q5 -2 8.5 -4.5t2.5 -9.5q5 -11 4 -24.5t-3 -25.5q-1 -4 -1 -11 q-2 -21 -2 -44v-46v-41v-96.5t1 -96.5v-51t1 -51q0 -71 0.5 -143t4.5 -145v-29t-1 -29q0 -15 -0.5 -30.5t0.5 -30.5q1 -4 0.5 -7.5t-0.5 -8.5q0 -6 -0.5 -14.5t1.5 -12.5q2 -2 10 -2q16 -1 32 -0.5t33 2.5q18 2 36 2.5t37 -0.5h2v0z" />
<glyph unicode="m" horiz-adv-x="439" d="M1 937q-2 14 -1 27t9 21q11 13 29 5q17 -6 23.5 -26.5t10.5 -39.5q1 -3 1 -6t1 -5l10 -39.5l10 -39.5q5 -21 10.5 -42t11.5 -41q5 -20 11 -41t11 -41l6 -25.5t7 -25.5q3 -13 6.5 -25.5t6.5 -24.5q1 -5 2 -9.5t2 -9.5q2 -6 3 -12.5t3 -13.5q1 2 1 6q2 8 3 11l6 22 q5 17 9 33.5l8 33.5l14.5 55.5t15.5 53.5q5 21 11 42t11 42q4 11 7 23l6 23q5 14 8.5 28t7.5 28q0 3 1 6q6 32 12 48.5t16 20.5q2 1 5 1h1h1q2 0 3 -1h1q8 -2 10 -6q13 -13 14.5 -47t-3.5 -87q-1 -5 -1.5 -9.5t-0.5 -6.5v-67.5t1 -66.5v-75v-92.5t-1 -92.5q0 -56 -0.5 -113 t0.5 -114v-29v-36t1 -36v-23q-1 -15 0 -28q0 -2 0.5 -5.5t0.5 -7.5q2 -8 2.5 -17t-1.5 -17q-4 -13 -10 -16.5t-10 -3.5q-10 0 -15.5 8.5t-7.5 18.5q-2 14 -2 27.5t1 26.5v6q4 66 4 132t-2 132q0 27 -0.5 54t-0.5 54v37.5t-1 37.5q0 39 -0.5 79t0.5 80q0 13 0.5 25.5 t1.5 24.5l2 30.5t0 30.5q0 9 -0.5 18.5t-0.5 19.5q-1 4 -1 12q-3 -11 -6 -25.5l-7 -32.5q-1 -4 -1 -6.5t-1 -4.5q-8 -34 -17.5 -68l-19.5 -68l-15.5 -56l-15.5 -57q-5 -17 -9 -33.5t-8 -30.5q-5 -14 -6 -27q-1 -1 -1 -2q0 -5 -2 -14t-12 -12q-2 -1 -6 -1q-13 0 -20.5 15 t-14.5 43l-1 3q-6 26 -13 52t-13 52l-12.5 51l-13.5 52q-5 18 -9.5 36.5t-9.5 36.5t-9.5 36.5l-9.5 37.5q-2 8 -4 13v-176v-38q0 -75 0.5 -151.5t1.5 -151.5l1 -55v-32t-1 -32v-56t2 -56q0 -5 0.5 -10t1.5 -10q0 -5 0.5 -10.5t1.5 -10.5v-4q2 -17 1.5 -31t-10.5 -20 q-5 -3 -10 -3q-7 0 -13 6q-6 7 -8 23.5t0 48.5v3q2 34 1 68l-2 67q0 13 -0.5 25.5t-0.5 25.5q-1 37 -1.5 73t-1.5 72l-2 118.5l-2 119.5v99q0 24 0.5 48.5t-0.5 48.5q0 22 -0.5 43.5t-2.5 43.5v4z" />
<glyph unicode="n" horiz-adv-x="435" d="M294 161q3 -8 5 -15.5l4 -15.5v-2v4q1 17 0.5 33.5t-1.5 33.5v46q-1 37 -1 74v74q1 18 1 36.5v37.5v68v76.5t-1 76.5v80q0 1 -0.5 3t-0.5 4q-2 23 -1.5 32t5.5 14q2 5 0.5 17t-2.5 18q0 2 -0.5 4.5t-0.5 4.5q-2 11 -2.5 24t-1.5 27v1q-1 17 0.5 28t7.5 18q10 10 24 2 t14 -26.5t-2 -33.5q0 -2 -0.5 -3.5t-0.5 -2.5q-2 -32 -2 -65.5t1 -66.5q0 -17 0.5 -34.5t0.5 -34.5q-1 -62 -0.5 -122t0.5 -117q1 -60 1 -118v-118q0 -30 0.5 -59t0.5 -56q1 -8 1 -15.5t1 -15.5l2 -24.5t0 -25.5q-2 -18 -9 -22.5t-12 -4.5q-11 0 -19.5 10.5t-12.5 20.5 q-4 11 -7 23l-6 23q-2 8 -3.5 15t-3.5 15l-34 112.5l-34 109.5l-18 57.5l-19 57.5l-16.5 53.5l-16.5 52.5l-16 54.5l-16 53.5l-16.5 58.5l-17.5 58.5l-4 12.5l-4 12.5q-5 14 -9 27.5l-8 27.5q-1 -5 -1 -10.5v-10.5v-22q1 -23 1.5 -45t0.5 -45q-1 -133 0 -244.5t3 -212.5 q1 -14 1 -26.5t1 -26.5q1 -13 1.5 -26.5t1.5 -27.5v-34q-1 -17 -0.5 -34.5t2.5 -34.5q3 -28 -0.5 -37t-5.5 -11q-5 -6 -12 -6t-16 7q-10 10 -10.5 26t0.5 30q1 3 1 8q1 78 0 156.5t-3 155.5l-2 68.5t-1 67.5q-1 25 -0.5 49t0.5 48q0 32 0.5 64.5t-1.5 64.5q-2 41 0 81v56.5 t-3 56.5v3q-2 13 -2 29.5t11 24.5q6 4 12 3h2q2 -1 3 -1t3 -1q5 0 9 -4t6 -12q2 -5 3.5 -10t3.5 -10q1 -1 1 -2t1 -3q5 -14 8.5 -28.5t7.5 -28.5l7 -25q7 -23 13.5 -47t14.5 -48l24 -80l26 -86l26 -86l37 -120l39 -129q4 -11 7 -21l6 -21q5 -20 10.5 -39t12.5 -37z" />
<glyph unicode="o" horiz-adv-x="411" d="M325 579q0 -8 -0.5 -16.5t-0.5 -16.5q-1 -16 -1.5 -32t1.5 -32q2 -17 1 -32.5l-2 -31.5l-2 -26t0 -25q1 -32 0 -62.5t-3 -60.5q-1 -9 -1 -18v-18l-2 -44.5t-6 -44t-14.5 -42t-27.5 -38.5t-43.5 -28.5t-54.5 -10.5q-59 0 -93 42q-19 24 -31 51t-19.5 55t-11 54.5 t-5.5 49.5q-4 63 -6 128q0 8 -0.5 17t-0.5 18q-2 22 -2 44t2 44q3 23 3.5 46t0.5 46q-1 19 0 40v17q0 14 0.5 27t-1.5 26q0 3 -0.5 6t-0.5 6q-2 14 -3 28t0 28v5q2 30 5 61.5t15 59.5q7 14 16.5 26t20.5 23q1 1 7.5 7l13.5 12q2 4 4 6l3 3q2 0 4 1l12.5 4l13.5 4q5 2 10.5 4 l11.5 4q32 9 63 6q18 -2 32 -10.5t25 -19.5t18 -21.5t10 -16.5q14 -24 18.5 -51t6.5 -53l1 -2q1 -10 2 -19l2 -18q3 -20 5 -40t2 -41v-33t1 -33q0 -15 0.5 -30.5t0.5 -31.5zM226 53q7 11 17 21q8 10 13 17q13 17 15.5 38.5t3.5 42.5q5 125 7.5 237.5t0.5 224.5l-1 20 l-2 52.5t-4 52.5l-2 16.5l-2 17.5q-2 21 -4.5 42.5t-9.5 41.5q-5 14 -17 35.5t-33 34.5q-29 17 -82 -4v-1q-38 -14 -56 -45.5t-21 -85.5t-4.5 -110.5t-2.5 -119.5q0 -15 0.5 -30.5t1.5 -30.5q1 -14 1.5 -27t0.5 -27v-32v-41t2 -42l3 -45q2 -45 6.5 -88.5t20.5 -85.5l4 -10.5 l4 -10.5q6 -17 12.5 -31.5t20.5 -25.5q21 -17 50 -17q12 0 32 3q11 2 15.5 4t9.5 9z" />
<glyph unicode="p" horiz-adv-x="409" d="M201 948q35 -25 61 -58t46 -79q18 -39 30 -83t7 -98q-2 -25 -8.5 -52t-18 -51t-28 -44t-38.5 -30q-20 -10 -41.5 -16.5l-42.5 -12.5l-15 -4q-28 -8 -56 -12q-4 0 -21 -5l-11.5 -2t-10.5 -2q-1 -5 -0.5 -11t1.5 -11q0 -7 1 -11q0 -12 0.5 -24.5t0.5 -24.5v-13l2 -60t3 -57 q1 -13 1 -26v-25v-33t2 -33q0 -4 2 -14l2 -10.5t1 -11.5q0 -5 -2.5 -14t-8.5 -15q-5 -5 -12 -5q-3 0 -7.5 2t-8.5 10q-8 11 -8.5 26t0.5 29q1 5 1 8.5v6.5l-2 50.5l-2 53.5v22q-2 48 -3 96.5l-2 96.5q-2 106 -3.5 213.5t-6.5 216.5l-2 28q-1 18 -1.5 36.5t-1.5 37.5v5v17 t3 19.5t10 16t21 8.5q19 2 40 -2.5t39 -9.5l4 -1q49 -13 84 -38zM43 891q2 -21 2.5 -42.5t0.5 -42.5v-41l2 -74.5l2 -73.5l1 -18v-54q0 -47 3 -93q7 2 14 2t14 1l27.5 2t26.5 5q16 5 28 8q16 5 31 9t29 11q58 27 75 107q18 78 -10 149q-17 40 -35 76t-46 64q-38 37 -81 50 l-2 1l-25.5 7.5t-24.5 5.5h-6q-5 1 -10.5 1.5t-10.5 0.5h-6l-3 -3q-2 -4 -1.5 -14.5t4.5 -35.5q0 -2 0.5 -4t0.5 -4z" />
<glyph unicode="q" horiz-adv-x="419" d="M3 354q2 23 0 46q-4 24 -3.5 51t2.5 53q1 18 0.5 36.5t-0.5 35.5v56q1 35 2.5 71.5t6.5 73.5q5 31 12 67t27 65q32 48 87 75q13 7 28 12t32 4q20 -2 33.5 -11.5t24.5 -20.5q25 -23 39 -53.5t21 -63t9 -64.5t3 -59q1 -26 1 -51v-51q0 -9 -0.5 -18.5t-0.5 -19.5v-31v-52.5 t2 -52.5q2 -24 2 -48.5t-1 -47.5q0 -14 -0.5 -28.5t-0.5 -28.5q1 -9 1 -18t1 -18q2 -24 2 -48.5t-6 -50.5q-9 -39 -25 -61l-2 -2q-7 -9 -7.5 -11t2.5 -7q0 -1 2.5 -3.5t4.5 -5.5q11 -14 18.5 -24.5t9.5 -19.5l1 -2q1 -9 -7 -16h-1l-1 -1q-6 -5 -11 -5q-6 0 -10 4 q-8 3 -14.5 11t-11.5 16l-4 6t-4 5q-3 -1 -7 -5t-6 -7t-5 -5q-9 -11 -20.5 -17t-25.5 -10q-13 -4 -30 -4q-27 0 -51 11t-44 28.5t-34 39.5t-20 45q-9 34 -13 68.5t-6 66.5q-3 36 -3 69q0 6 0.5 12.5t0.5 13.5zM288 660q1 52 -1 103.5t-16 99.5q-15 50 -47 73q-14 10 -31 10 q-20 0 -45 -13q-18 -9 -38 -23.5t-28 -33.5q-11 -23 -16 -48.5t-8 -48.5q-15 -116 -15 -246q-2 -120 3 -251v-6q0 -24 1.5 -52t7 -55.5t16 -52t28.5 -41.5q14 -13 35 -23.5t41 -10.5q5 0 13 2q15 5 34 26l6 6q8 8 8.5 10.5t-1.5 5.5q-1 1 -2 2.5t-3 3.5q-5 5 -10 11t-8 12.5 t-3.5 13t4.5 12.5q6 8 15 8q10 0 16.5 -7.5t11.5 -15.5l3 -6q1 -2 2 -3.5t2 -3.5q2 3 5.5 9.5t6.5 17.5v1h1v1q13 39 13.5 81.5t-0.5 84.5q-1 15 -1.5 30t0.5 30v143v117v27v0z" />
<glyph unicode="r" horiz-adv-x="424" d="M14 3q-13 7 -13.5 23t0.5 27q0 2 0.5 2.5t0.5 1.5q2 29 2.5 57.5t-0.5 56.5v25t1 24v100q0 23 0.5 45t0.5 45q0 35 0.5 69t0.5 68q0 61 0.5 123t1.5 125l1 8q0 20 0.5 40.5t-0.5 40.5l-1 14v27q0 2 -0.5 4.5t-0.5 5.5q-1 12 -0.5 25t5.5 23q6 13 19.5 15t18.5 2 q10 0 14 -1h6h4l42.5 -2t43.5 -4q48 -6 83 -32.5t58.5 -65t34.5 -85.5t10 -93q-2 -42 -10 -88t-36 -86q-11 -17 -26 -35t-34 -35l-14.5 -12t-17.5 -12q-1 -1 -5 -3q-5 -2 -10 -5q2 -8 2 -14q10 -37 23 -73.5l27 -72.5l3 -8q10 -24 18.5 -48.5l16.5 -48.5q7 -17 13 -34.5 t13 -34.5q4 -12 9 -24t12 -26q6 -14 9.5 -26t-2.5 -21q-2 -3 -5.5 -6t-11.5 -3h-1q-14 1 -20 13.5t-9 23.5q0 2 -0.5 3t-0.5 2q-5 16 -11 31.5t-11 30.5l-7 17l-15.5 43.5l-14.5 43.5l-16 43l-16 44l-13.5 37l-13.5 37q-2 5 -3.5 9.5t-3.5 9.5t-3.5 9.5t-3.5 9.5l-1 3 q-2 3 -3 6.5t-2 4.5h-2h-3l-14.5 -3.5t-13.5 -3.5l-16.5 -4t-17.5 -3q-2 -1 -4 -1t-4 -1q-8 -1 -14.5 -2t-12.5 -4q-4 -1 -5 -3t-1 -12v-6q0 -39 -0.5 -80t-0.5 -86v-25t-1 -25v-58.5t2 -58.5l1 -1q1 -11 0.5 -21.5t-6.5 -17.5q-6 -6 -14 -6q-5 0 -11 3zM49 671v-74.5 t-2 -75.5q0 -6 -0.5 -11.5t-0.5 -11.5q-2 -14 -2.5 -26t1.5 -24v-2h5q2 1 5 1q14 1 34 6l6 2l5 1h2q2 1 4.5 1t4.5 1q22 4 42 12q16 6 29.5 15.5t25.5 19.5q22 18 42 45q2 2 3.5 4.5t3.5 4.5q9 12 17 24t12 26q12 38 14.5 77.5t0.5 68.5t-13.5 60.5t-31.5 57.5 q-14 18 -35 39.5t-48 32.5q-24 10 -51 9q-5 0 -8 -1q-4 0 -8 -0.5t-8 -0.5q-4 1 -7 1t-6 1q-5 1 -13 1h-3h-3h-7t-5 -2t-1 -8v-10v-7q-1 -11 -1 -22v-22v-31q0 -15 -0.5 -29.5t-1.5 -29.5q-1 -25 -1.5 -50t0.5 -50v-23v0z" />
<glyph unicode="s" horiz-adv-x="426" d="M343 753q0 -3 1 -5q2 -8 3 -18.5t-9 -17.5q-6 -6 -14 -6q-9 0 -14 7t-8 16.5t-3.5 19t-0.5 15.5q-5 112 -48 161q-33 36 -71 29q-48 -9 -75 -33q-20 -18 -32 -39.5t-18.5 -43.5t-9 -43.5t-2.5 -40.5q1 -26 5.5 -53t14.5 -54q8 -24 22 -42t29 -32q16 -16 33.5 -29.5 l34.5 -27.5q19 -14 38 -29.5t37 -33.5q35 -35 54 -78t25 -99q4 -29 0 -57.5t-10 -57.5q-6 -27 -15.5 -48.5t-25.5 -44.5q-21 -30 -58 -49t-74 -19q-6 0 -12 0.5t-12 1.5q-22 4 -39.5 19t-31 36t-22.5 44.5t-13 46.5q-5 21 -6.5 42t-3.5 41q0 6 -0.5 12t-0.5 12q-1 2 -1 4 t-1 4l-2 14.5t3 15.5q6 16 20 16q10 0 17 -10q8 -9 8 -21.5t-1 -23.5q-1 -4 -1 -7.5v-5.5q1 -24 5 -49.5t9 -46.5q3 -17 12 -38.5t28 -40.5q29 -28 74 -13q22 8 36 19q1 1 7 5q16 14 22 18q2 4 4.5 8t4.5 8t4 7.5t3 6.5q3 9 5.5 18t5.5 18q2 10 4 14q6 23 11 48.5t1 51.5 q-5 45 -28.5 90t-55.5 76q-12 11 -25 20.5l-27 20.5l-13 9t-12 9q-21 17 -37.5 34.5t-32.5 37.5q-15 19 -26.5 43t-19 51t-10.5 55.5t-1 57.5q4 53 22 98.5t48 77.5q18 20 44.5 28.5t47.5 13.5q18 3 32 3q19 0 36 -5.5t34 -18.5q18 -12 29 -30t18.5 -38.5t12 -42t7.5 -41.5 q1 -5 1.5 -8.5t1.5 -8.5q2 -8 2.5 -15.5t2.5 -15.5q1 -6 1.5 -12t1.5 -11z" />
<glyph unicode="t" horiz-adv-x="407" d="M2 966q-5 10 2 20q5 7 13 9t15 2q2 0 4.5 -0.5t4.5 -0.5h3q20 -1 40 -1h43h37t37 1h17h17h23t24 1q5 0 8 1q5 1 10 1.5t10 0.5q6 0 12 -2q8 -6 10 -12q4 -4 4 -10q0 -3 -1 -5q-1 -5 -3.5 -9.5t-10.5 -4.5q-5 -2 -12 -3t-12 -1q-8 0 -15.5 1l-14.5 2q-4 0 -7 0.5t-5 0.5 h-3h-13h-10.5t-10.5 -1h-9h-4h-6q-1 -2 -1 -6v-7q1 -4 1 -11q-1 -8 -1 -16.5v-16.5v-4q-1 -22 -1 -44t-1 -44q-1 -51 -1.5 -102t0.5 -102q1 -84 0.5 -163.5t-1.5 -142.5v-49q-1 -46 -1 -92t3 -92q0 -14 -1 -25q-1 -10 -2.5 -19.5t-6.5 -14.5t-12 -5q-8 0 -12 5.5t-6 7.5 q-5 8 -3 27v6q0 10 -1 15v17q-1 20 -1 40v40q0 72 -0.5 146.5t0.5 149.5q1 76 1 151v150v97v41v9.5t1 9.5q0 8 0.5 16t-0.5 16q-1 3 -1 7q0 1 -1 1q0 1 -10 2q-12 0 -24 -0.5t-24 -0.5q-12 -1 -24.5 -1h-24.5q-34 0 -42 14z" />
<glyph unicode="u" horiz-adv-x="437" d="M339 988q0 -3 -1 -4q8 -14 7.5 -36.5t-2.5 -48.5q-1 -5 -1 -10v-7q1 -32 0.5 -63.5t-2.5 -63.5q-1 -23 -1 -45t-1 -45v-62q0 -43 -0.5 -86.5t1.5 -86.5q0 -10 0.5 -19.5t0.5 -19.5q2 -20 2.5 -40t-0.5 -40t-3 -39l-4 -38q-2 -9 -2.5 -18.5t-1.5 -17.5q-3 -24 -8 -51.5 t-15 -53t-27 -47.5t-44 -34t-54 -12q-38 0 -72 22t-56 60q-26 46 -34.5 94.5t-10.5 88.5q-3 48 -3.5 95.5t-1.5 95.5l-1 87q0 50 -0.5 100t-0.5 101l1 27v51.5t-1 51.5q0 1 -0.5 2.5t-0.5 3.5q-2 26 -2 43.5t1 28t3 16.5t5 9q5 5 12 5h1q5 0 11 -4q2 -2 3.5 -6t3 -12.5 t2 -24t0.5 -41.5v-5v-125v-52t1 -52v-64q-1 -38 -0.5 -75.5t3.5 -74.5q2 -23 2 -45.5v-45.5q0 -30 0.5 -60.5t5.5 -60.5q7 -48 21 -92t47 -70q26 -20 60 -20q40 0 64 26q26 28 33.5 64.5t10.5 74.5q1 10 1.5 19.5t2.5 19.5q5 32 4.5 65t-1.5 65q-1 23 -1.5 47t1.5 47 q2 51 2 101v100v54v83l-1 48v15q-2 38 -2 60.5t1.5 34.5t4 16t7.5 6h1h1l1 1h1h1q4 0 6 0.5t4 0.5h2q11 0 13 -12z" />
<glyph unicode="v" horiz-adv-x="417" d="M338 981q5 -15 1 -39t-10 -51q-2 -5 -2.5 -9t-1.5 -6q-5 -27 -8.5 -53.5t-7.5 -52.5q-5 -27 -8.5 -54t-8.5 -53l-33.5 -216l-33.5 -220l-7 -47q-2 -18 -5 -35.5t-5 -35.5q-3 -14 -3 -28q-1 -6 -1.5 -11.5t-1.5 -11.5q-1 -5 -2 -9t-3 -8l-3 -9v-5q0 -4 -0.5 -9.5 t-4.5 -11.5q-5 -6 -11 -6h-2q-11 2 -17.5 11t-10 21.5t-5 27.5t-2.5 29q-1 6 -1.5 11t-0.5 7q-9 51 -17 101.5l-16 101.5l-1 9l-18.5 116l-19.5 115l-15.5 91l-15.5 93q-4 23 -7 46.5t-7 46.5q-5 29 -9 59t-9 60q0 1 -0.5 1.5t-0.5 2.5q-2 7 -3 17t8 17q6 5 13 5q8 0 13 -5 t7 -8q8 -11 10 -24.5t3 -25.5q0 -7 1 -10q4 -35 10 -80t14 -92q5 -29 9 -58.5t9 -58.5q6 -50 15 -98l18.5 -114t17.5 -117q2 -14 4.5 -28t4.5 -28l9 -57q2 -10 3.5 -19.5t3.5 -19.5l2 16t3 16l2 14t3 15q3 20 6.5 39.5t6.5 39.5q4 25 7 50t7 51q5 33 9.5 66.5l9.5 67.5 l8 50.5l8 49.5q6 33 11 67l10 69l12 81l5 36q1 2 1 6t1 10q3 29 6 48l5 31t4.5 17.5t4.5 8.5q5 5 10 5h1q4 0 5 -1q8 -2 13 -5.5t4 -11.5v-1z" />
<glyph unicode="w" horiz-adv-x="440" d="M345 940q-2 -10 -2 -15q-2 -20 -1.5 -40.5t0.5 -40.5l1 -17q1 -51 0.5 -101.5t-0.5 -97.5q-1 -22 -1 -43.5t-1 -43.5q-1 -75 -1.5 -151t1.5 -151q1 -19 1 -37.5t1 -36.5v-55t2 -57q3 -32 -7 -43q-6 -6 -13 -6q-8 0 -13 4q-11 7 -15.5 21t-7.5 27q-2 6 -2 9 q-13 45 -28.5 88.5l-31.5 86.5l-14.5 40.5t-15.5 45.5q-2 4 -4 12t-4.5 15t-5.5 13l-3 -9l-3 -9q-3 -6 -5.5 -12.5t-5.5 -12.5q-4 -13 -11 -28l-10 -26l-14 -36.5t-15 -36.5q-2 -6 -4.5 -12t-5.5 -12q-8 -18 -15 -36.5l-14 -37.5q-6 -14 -10 -27.5t-8 -25.5q0 -2 -0.5 -3.5 t-0.5 -3.5q-2 -10 -6.5 -24t-20.5 -14q-4 0 -6 1q-2 0 -3 1t-3 2q-10 11 -11 25.5t0 28.5q1 5 1 9v7q-2 21 -2 42.5t1 41.5v19q1 33 0.5 66t-1.5 65q0 17 -0.5 35t-0.5 36v69.5t-1 69.5v133t-2 134q0 15 -0.5 29.5t-0.5 29.5l-2 56t0 57q1 11 4 20q2 8 6.5 14t12.5 6 q11 0 14.5 -10.5t4.5 -15.5q3 -23 2.5 -46.5t-2.5 -46.5v-3q-2 -23 -1.5 -45t0.5 -44q1 -17 1.5 -33.5t-0.5 -33.5q-1 -29 -1 -57.5v-57.5v-81q0 -28 1 -56l2 -56q2 -26 3 -53t0 -53q0 -42 0.5 -85t2.5 -88l11.5 28.5l15.5 39.5l1 3l24 63q5 13 9 25t9 25q4 9 7.5 18l7.5 19 l6 14q2 4 3 8t3 9l6 16.5t8 16.5q2 4 7.5 11t15.5 7q15 0 22 -17t12 -33q0 -2 0.5 -3.5t0.5 -2.5l14.5 -43.5l15.5 -42.5l8 -22q9 -23 17.5 -48l17.5 -54q2 -5 3 -10t3 -10q2 -7 3.5 -13t3.5 -12v49v29.5t-1 29.5q-1 61 -2 116t-1 110q0 43 0.5 86.5t1.5 85.5 q2 63 2.5 126.5t-1.5 126.5q0 2 -0.5 5.5t-0.5 8.5q-5 38 -3.5 67t18.5 35l1 1h4q5 0 8 -3q1 -1 2 -1q12 -6 13 -25q1 -8 0.5 -15.5t-1.5 -15.5z" />
<glyph unicode="x" horiz-adv-x="424" d="M332 81q4 -8 7.5 -16t5.5 -16q3 -10 1 -16t-4 -10q-7 -7 -15 -7q-17 0 -25 20q-5 11 -8.5 23.5t-6.5 24.5l-3.5 14.5t-3.5 13.5l-13.5 42t-14.5 43q-4 11 -7.5 23t-7.5 24l-18.5 53.5t-17.5 55.5l-12 33l-7.5 21t-6.5 21q-2 4 -2.5 8t-1.5 8q-1 3 -1 5.5t-1 4.5 q-2 -6 -3.5 -12.5t-3.5 -13.5t-3 -13t-3 -12q-5 -19 -10.5 -37t-10.5 -37q-7 -21 -13 -42.5l-12 -43.5l-6 -19.5t-5 -19.5l-16.5 -56.5t-14.5 -56.5l-2 -14q-3 -12 -5.5 -23.5t-5.5 -23.5q-3 -9 -7 -15t-9 -10.5t-12 -4.5q-3 0 -9 3t-9 14q-2 9 0.5 17.5t5.5 16.5 q1 2 1.5 3.5t1.5 2.5q4 11 7 22.5l6 22.5l9 33l5 17q11 33 20.5 67t17.5 68q7 31 16 61.5t19 60.5l7.5 26.5t8.5 26.5l3 12q3 8 5 16t3 16q2 8 -0.5 16.5t-5.5 17.5v2l-10 30.5l-10 31.5l-9 27l-24 72l-18.5 54.5t-17.5 55.5l-5 17q-5 17 -10.5 34t-10.5 34l-1 3l-15 45 q0 2 -1 4q-5 13 -7 23.5t3 18.5q4 5 11 7q3 0 4 1h6q9 0 12 -8q8 -8 11.5 -20.5t5.5 -21.5q1 -2 1 -3.5t1 -3.5q4 -17 9.5 -34t10.5 -34q2 -7 4.5 -14t4.5 -14l33 -105.5t31 -109.5l1 -6q6 -23 10.5 -37.5t7.5 -22.5q1 4 2 8.5t3 9.5q0 2 0.5 3.5t0.5 2.5l12 45l16 57l17 57 l10 33l10 33l15 51q5 15 9.5 31l9.5 33q2 6 4.5 11.5t4.5 11.5l4 11.5l4 11.5q2 7 6 8q6 3 11 1q10 -4 13.5 -12t3.5 -16t-2.5 -16t-3.5 -12l-4 -10l-4 -10l-7.5 -21.5l-7.5 -21.5l-12 -39q-20 -60 -38 -120q-3 -11 -6.5 -22t-6.5 -22l-16 -54l-16 -54q-5 -15 -8.5 -29.5 t0.5 -28.5q3 -17 9 -34l12 -34l5 -12q22 -59 41.5 -118l38.5 -118q7 -20 13 -39.5t13 -39.5q2 -5 4.5 -10.5t4.5 -10.5z" />
<glyph unicode="y" horiz-adv-x="399" d="M323 988q0 -4 2 -10q1 -5 1.5 -11.5t-1.5 -15.5q-1 -3 -2 -6.5t-2 -7.5q-3 -17 -9 -31q-8 -23 -14 -45.5t-11 -45.5q-8 -35 -17.5 -69l-18.5 -68l-10 -36l-10 -36q-7 -26 -13 -51t-13 -51q-2 -6 -3 -12l-2 -12q-3 -16 -7 -31.5t-12 -29.5q-6 -11 -6 -26.5t2 -30.5 q0 -7 0.5 -13t0.5 -12v-16v-45t1 -45t1.5 -45.5t0.5 -45.5l1 -30q0 -14 1 -27t3 -26q0 -2 0.5 -4t0.5 -4q3 -8 3 -17q1 -9 -0.5 -13.5t-6.5 -9.5q-2 -2 -3 -4q-3 -5 -10 -5h-2q-10 1 -15 7t-7 13.5t-1.5 15t0.5 12.5v5q1 20 0.5 39t-1.5 38l-1 19l-3 108v32t-1 32 q-1 22 -1.5 41.5t-2.5 38.5q-1 8 -1 16.5v16.5q1 11 0.5 22t-2.5 22q-8 38 -18.5 75.5l-21.5 74.5l-4 14q-24 76 -47 164q-5 21 -10.5 41l-10.5 39q-2 5 -3.5 11t-3.5 12q-4 11 -7.5 23t-5.5 23q-2 16 6 24q4 6 13 6q4 0 9.5 -2.5t10.5 -11.5q6 -10 9 -21t5 -22l2 -7 q5 -28 12.5 -58.5t16.5 -60.5q8 -27 15.5 -55l14.5 -55q4 -14 7.5 -28t6.5 -28q4 -12 7 -23.5t7 -23.5q2 -11 5 -20.5t6 -20.5q2 -7 4 -19q2 -6 3 -12.5t3 -12.5q2 5 2.5 10t2.5 10l1 6q3 14 6.5 28.5t6.5 28.5l3 9l15 57l12.5 46.5t11.5 46.5q5 20 10.5 40t10.5 40 q9 28 15 55l2 7q5 16 8.5 31.5t7.5 31.5q1 2 1 7q1 6 2.5 13t5 13.5t9 11t14.5 4.5q3 0 4 -1q1 0 5 -2q1 -2 2 -3t1 -3q1 -1 1 -3z" />
<glyph unicode="z" horiz-adv-x="404" d="M333 997q7 -7 9 -17l-5 -13q-7 -38 -23.5 -80.5l-29.5 -78.5q-15 -42 -27.5 -85.5t-26.5 -85.5l-58 -176l-54 -177l-27 -89.5l-27 -89.5q-5 -16 -12 -31.5t-10 -32.5l6 -1q59 -1 118 3.5t117 4.5q9 0 21 -5t12 -17q0 -8 -6 -12.5t-15 -6.5t-18 -2h-15q-40 0 -79.5 1 t-79.5 0q-20 0 -40.5 -3t-40.5 -3q-14 0 -18 9.5t-4 20.5q0 7 6 29.5t15.5 53l21 66l22.5 68t19 58.5t12 38q37 126 77.5 250l78.5 250q2 7 8.5 25l13 37l12 35t5.5 18h-9q-63 1 -125.5 -4t-125.5 -5q-8 0 -16.5 3t-8.5 14q0 16 16 22t28 6q66 0 130 3t129 3q6 0 12 -1z" />
<glyph unicode="&#xaa;" horiz-adv-x="405" d="M24 6q-17 0 -23 27q-2 11 0 22l4 21q0 3 0.5 5.5t1.5 5.5q2 9 3 18.5t3 18.5l6 36q2 10 3 19.5l2 18.5q2 11 3.5 22t3.5 22q2 8 3.5 16.5t3.5 16.5q3 14 6 26.5t5 26.5q3 20 5 37.5l4 34.5q1 5 1 16q1 5 1 11t1 11q1 11 6 22q2 5 3 9t1 9q2 14 4.5 27.5t4.5 27.5 l17.5 120.5t15.5 120.5v5q1 10 2.5 20.5t5.5 21.5q2 5 1.5 10t-0.5 11v11t1 12l4 22.5l4 22.5l6 33v7q0 7 0.5 15.5t3 15.5t6.5 12.5t12 6.5h3q10 0 15.5 -7t9 -17.5t4.5 -23t2 -23.5q1 -3 1 -8q5 -37 10.5 -74t11.5 -73l4 -32l39 -255l11.5 -75.5l11.5 -75.5 q5 -29 8.5 -56.5t8.5 -56.5q3 -22 6.5 -44t6.5 -44l2 -14q2 -14 4.5 -29t5.5 -29q1 -2 1 -3t1 -2q2 -8 4 -17.5t0 -18.5q2 -8 -6 -14q-2 -2 -6.5 -5t-9.5 -3q-8 0 -12 9v1q-8 9 -12 25.5t-6 33.5v3q-2 15 -4.5 30.5t-4.5 30.5q-5 26 -8.5 53.5t-7.5 54.5l-2 18l-2 18 q-2 13 -3 25t-3 25q-1 5 -1.5 10t-1.5 10l-2 12t-2 13v13q-1 5 -1.5 14.5t-2.5 12.5q-2 2 -10 2.5t-12 0.5h-6q-6 1 -12.5 1h-11.5h-21h-18t-21 -1h-6h-5q-8 0 -9.5 -1t-2.5 -3q-4 -11 -5.5 -24t-2.5 -26l-1 -9q-2 -20 -5 -40.5l-6 -40.5l-1 -11q-4 -23 -7.5 -46.5 t-6.5 -46.5q-4 -20 -7 -40.5l-6 -40.5q-1 -6 -1 -11.5t-1 -11.5q0 -16 -3 -31q-1 -6 -4 -15.5t-14 -10.5h-2v0zM193 668l-4 24.5t-7.5 43.5l-9.5 52.5l-9 50.5q-1 -8 -1.5 -15.5t-2.5 -15.5q-1 -7 -1.5 -13.5t-1.5 -12.5l-4 -23.5l-4 -22.5q-3 -16 -5.5 -32t-4.5 -33 q-2 -26 -7 -52l-10 -52t-9.5 -52.5t-7.5 -53.5v-4v-3h4t7 1h8h1h14t14 -1q5 0 11 -0.5t11 -0.5h3h15q11 0 18 0.5t14 1.5h1q0 2 -0.5 5t-0.5 5l-1 5q-7 32 -11 63.5t-9 62.5q-2 18 -4.5 36t-5.5 36z" />
<glyph unicode="&#xad;" horiz-adv-x="449" d="M2 487q-5 12 2 21q6 9 21 10.5t21 1.5q53 -2 105.5 -1t104.5 3q11 0 22 0.5t22 0.5q14 2 27 0.5t19 -17.5q0 -4 1 -5v-5q0 -11 -4 -13t-5 -2h-1q-14 -8 -56 -3h-6q-35 1 -67.5 1t-62.5 -2q-25 -1 -50 -1h-51h-9h-3q-10 -1 -18.5 0.5t-11.5 10.5z" />
<glyph unicode="&#xb2;" horiz-adv-x="218" />
<glyph unicode="&#xb3;" d="M407 735q4 -57 3 -106t-22 -98q-2 -6 -5.5 -12l-6.5 -11q-2 -2 -2.5 -4.5t-2.5 -4.5l-2 -5q-10 -18 -19.5 -33t-26.5 -26q26 -15 43 -41t26.5 -57.5t12 -66.5t-0.5 -68q-1 -7 -3 -16l-4 -18q-2 -5 -3 -10t-1 -7q1 -8 -2 -18t-7.5 -20t-9 -18.5t-7.5 -12.5 q-14 -22 -28.5 -35.5t-37.5 -24.5q-8 -4 -32 -13t-52 -9q-24 0 -40 9q-9 5 -24.5 16.5t-23.5 18.5q-13 12 -20.5 27l-14.5 30l-8 18t-9 17l-2 4q-4 20 -6 41t-3 36v6q-2 18 -1.5 37t9.5 31q3 4 8 4.5t9 -1.5q14 -10 14.5 -24.5t-1.5 -25.5t-1 -14q1 -17 3 -36.5t7 -35.5 l16.5 -42.5t23.5 -33.5q3 -2 11 -6q4 -2 7.5 -4t6.5 -4q6 -4 8 -6q10 -7 17.5 -10.5t21.5 -3.5h1q16 0 28.5 4t26.5 10l11 4.5t12 4.5q68 50 56 203q-3 39 -12.5 64.5t-29.5 44.5q-4 3 -11.5 7.5t-16.5 8.5t-18 7.5t-15 4.5q-20 3 -45 3q-19 0 -36.5 1.5t-31.5 7.5 q-6 2 -8 9t0.5 12t4.5 7q5 8 14.5 9.5t17.5 1.5q18 0 38 -3q8 -1 15.5 -1.5t12.5 -0.5q46 0 73.5 24t44.5 78q12 40 12 75q0 44 -2 88t-8 83.5t-17.5 72t-31.5 55.5q-8 9 -23 14t-32 5q-18 0 -35 -5t-28 -14q-33 -25 -52.5 -68t-20.5 -92q0 -5 0.5 -9t0.5 -9q2 -11 2 -23.5 t-5 -25.5q-5 -12 -16 -8q-9 3 -13.5 8.5t-6.5 12t-2 13v11.5v7v5q-1 10 -1.5 20t1.5 20q4 37 19 73.5t38.5 66t53.5 47.5t65 18q20 0 44 -8q14 -5 27.5 -16t25 -26t20.5 -32.5t15 -33.5q9 -27 12.5 -62t6.5 -71z" />
<glyph unicode="&#xb9;" d="M174 844q-9 -3 -14 2q-7 7 -4 14q11 32 34 55t49 43l22.5 19t20.5 19q3 4 9 4h8q13 0 13 -12q4 -54 4.5 -108t0.5 -104v-47.5t1 -44.5q1 -54 0.5 -102.5t-1.5 -95.5q0 -34 -0.5 -66t-0.5 -66v-70v-117t2 -121q0 -4 1 -6q1 -8 0 -21t-15 -18q-2 -1 -5 -1q-5 0 -10 5 q-10 11 -10.5 25.5t0.5 26.5q1 5 1 15v143.5v129.5t-0.5 121t-0.5 118v165.5t-1 184.5q-4 -5 -9 -8q-6 -6 -10 -9q-5 -5 -10.5 -8.5t-10.5 -8.5l-17 -17l-22 -22t-25 -17z" />
<glyph unicode="&#xba;" horiz-adv-x="411" d="M325 579q0 -8 -0.5 -16.5t-0.5 -16.5q-1 -16 -1.5 -32t1.5 -32q2 -17 1 -32.5l-2 -31.5l-2 -26t0 -25q1 -32 0 -62.5t-3 -60.5q-1 -9 -1 -18v-18l-2 -44.5t-6 -44t-14.5 -42t-27.5 -38.5t-43.5 -28.5t-54.5 -10.5q-59 0 -93 42q-19 24 -31 51t-19.5 55t-11 54.5 t-5.5 49.5q-4 63 -6 128q0 8 -0.5 17t-0.5 18q-2 22 -2 44t2 44q3 23 3.5 46t0.5 46q-1 19 0 40v17q0 14 0.5 27t-1.5 26q0 3 -0.5 6t-0.5 6q-2 14 -3 28t0 28v5q2 30 5 61.5t15 59.5q7 14 16.5 26t20.5 23q1 1 7.5 7l13.5 12q2 4 4 6l3 3q2 0 4 1l12.5 4l13.5 4q5 2 10.5 4 l11.5 4q32 9 63 6q18 -2 32 -10.5t25 -19.5t18 -21.5t10 -16.5q14 -24 18.5 -51t6.5 -53l1 -2q1 -10 2 -19l2 -18q3 -20 5 -40t2 -41v-33t1 -33q0 -15 0.5 -30.5t0.5 -31.5zM226 53q7 11 17 21q8 10 13 17q13 17 15.5 38.5t3.5 42.5q5 125 7.5 237.5t0.5 224.5l-1 20 l-2 52.5t-4 52.5l-2 16.5l-2 17.5q-2 21 -4.5 42.5t-9.5 41.5q-5 14 -17 35.5t-33 34.5q-29 17 -82 -4v-1q-38 -14 -56 -45.5t-21 -85.5t-4.5 -110.5t-2.5 -119.5q0 -15 0.5 -30.5t1.5 -30.5q1 -14 1.5 -27t0.5 -27v-32v-41t2 -42l3 -45q2 -45 6.5 -88.5t20.5 -85.5l4 -10.5 l4 -10.5q6 -17 12.5 -31.5t20.5 -25.5q21 -17 50 -17q12 0 32 3q11 2 15.5 4t9.5 9z" />
<glyph unicode="&#xc0;" horiz-adv-x="405" d="M167 1061q-2 0 -1 0t2.5 0.5t2 0.5t-3.5 -1q-12 -3 -17.5 2t-7 13t-1 17.5t0.5 17.5q0 24 -1 48.5t-3 48.5q-2 7 0 13.5t14 8.5q3 1 12 1t8 -5q7 -7 5 -18t-3 -19q-1 -12 -0.5 -24t1.5 -24q1 -13 1 -25.5v-26.5q0 -8 1 -16.5t-10 -11.5zM24 6q-17 0 -23 27q-2 11 0 22 l4 21q0 3 0.5 5.5t1.5 5.5q2 9 3 18.5t3 18.5l6 36q2 10 3 19.5l2 18.5q2 11 3.5 22t3.5 22q2 8 3.5 16.5t3.5 16.5q3 14 6 26.5t5 26.5q3 20 5 37.5l4 34.5q1 5 1 16q1 5 1 11t1 11q1 11 6 22q2 5 3 9t1 9q2 14 4.5 27.5t4.5 27.5l17.5 120.5t15.5 120.5v5q1 10 2.5 20.5 t5.5 21.5q2 5 1.5 10t-0.5 11v11t1 12l4 22.5l4 22.5l6 33v7q0 7 0.5 15.5t3 15.5t6.5 12.5t12 6.5h3q10 0 15.5 -7t9 -17.5t4.5 -23t2 -23.5q1 -3 1 -8q5 -37 10.5 -74t11.5 -73l4 -32l39 -255l11.5 -75.5l11.5 -75.5q5 -29 8.5 -56.5t8.5 -56.5q3 -22 6.5 -44t6.5 -44 l2 -14q2 -14 4.5 -29t5.5 -29q1 -2 1 -3t1 -2q2 -8 4 -17.5t0 -18.5q2 -8 -6 -14q-2 -2 -6.5 -5t-9.5 -3q-8 0 -12 9v1q-8 9 -12 25.5t-6 33.5v3q-2 15 -4.5 30.5t-4.5 30.5q-5 26 -8.5 53.5t-7.5 54.5l-2 18l-2 18q-2 13 -3 25t-3 25q-1 5 -1.5 10t-1.5 10l-2 12t-2 13v13 q-1 5 -1.5 14.5t-2.5 12.5q-2 2 -10 2.5t-12 0.5h-6q-6 1 -12.5 1h-11.5h-21h-18t-21 -1h-6h-5q-8 0 -9.5 -1t-2.5 -3q-4 -11 -5.5 -24t-2.5 -26l-1 -9q-2 -20 -5 -40.5l-6 -40.5l-1 -11q-4 -23 -7.5 -46.5t-6.5 -46.5q-4 -20 -7 -40.5l-6 -40.5q-1 -6 -1 -11.5t-1 -11.5 q0 -16 -3 -31q-1 -6 -4 -15.5t-14 -10.5h-2v0zM193 668l-4 24.5t-7.5 43.5l-9.5 52.5l-9 50.5q-1 -8 -1.5 -15.5t-2.5 -15.5q-1 -7 -1.5 -13.5t-1.5 -12.5l-4 -23.5l-4 -22.5q-3 -16 -5.5 -32t-4.5 -33q-2 -26 -7 -52l-10 -52t-9.5 -52.5t-7.5 -53.5v-4v-3h4t7 1h8h1h14 t14 -1q5 0 11 -0.5t11 -0.5h3h15q11 0 18 0.5t14 1.5h1q0 2 -0.5 5t-0.5 5l-1 5q-7 32 -11 63.5t-9 62.5q-2 18 -4.5 36t-5.5 36z" />
<glyph unicode="&#xc2;" horiz-adv-x="405" d="M314 1060q13 2 18 12t-1 24t-8 19q-26 46 -50 93l-47 94q-5 10 -9.5 20t-9.5 20q-4 12 -11.5 23t-24.5 9h-1q-1 -1 -2 -1t-2 -1q-4 -2 -5 -2q-9 -5 -9 -9.5t1 -5.5v-1q0 -16 23 -50q1 -2 2 -3.5t1 -2.5l31.5 -59.5l28.5 -55.5l22.5 -45.5l23.5 -44.5q2 -6 3 -8 q1 -1 1 -1.5t1 -1.5q4 -9 9 -16t15 -6zM169 1374q12 -4 17 -13q4 -11 -2.5 -24t-9.5 -18l-56 -90.5l-53 -90.5l-10.5 -18.5l-11.5 -19.5q-5 -12 -13 -22.5t-25 -6.5h-1q-2 0 -4 2l-4 2q-9 5 -9 10t1 5v1q1 17 26 49q4 6 4 5q20 30 36.5 57.5t30.5 53.5l25.5 44.5t26.5 42.5 q2 2 2.5 4t2.5 4q0 1 1 2q5 9 10.5 16t15.5 5zM24 6q-17 0 -23 27q-2 11 0 22l4 21q0 3 0.5 5.5t1.5 5.5q2 9 3 18.5t3 18.5l6 36q2 10 3 19.5l2 18.5q2 11 3.5 22t3.5 22q2 8 3.5 16.5t3.5 16.5q3 14 6 26.5t5 26.5q3 20 5 37.5l4 34.5q1 5 1 16q1 5 1 11t1 11q1 11 6 22 q2 5 3 9t1 9q2 14 4.5 27.5t4.5 27.5l17.5 120.5t15.5 120.5v5q1 10 2.5 20.5t5.5 21.5q2 5 1.5 10t-0.5 11v11t1 12l4 22.5l4 22.5l6 33v7q0 7 0.5 15.5t3 15.5t6.5 12.5t12 6.5h3q10 0 15.5 -7t9 -17.5t4.5 -23t2 -23.5q1 -3 1 -8q5 -37 10.5 -74t11.5 -73l4 -32l39 -255 l11.5 -75.5l11.5 -75.5q5 -29 8.5 -56.5t8.5 -56.5q3 -22 6.5 -44t6.5 -44l2 -14q2 -14 4.5 -29t5.5 -29q1 -2 1 -3t1 -2q2 -8 4 -17.5t0 -18.5q2 -8 -6 -14q-2 -2 -6.5 -5t-9.5 -3q-8 0 -12 9v1q-8 9 -12 25.5t-6 33.5v3q-2 15 -4.5 30.5t-4.5 30.5q-5 26 -8.5 53.5 t-7.5 54.5l-2 18l-2 18q-2 13 -3 25t-3 25q-1 5 -1.5 10t-1.5 10l-2 12t-2 13v13q-1 5 -1.5 14.5t-2.5 12.5q-2 2 -10 2.5t-12 0.5h-6q-6 1 -12.5 1h-11.5h-21h-18t-21 -1h-6h-5q-8 0 -9.5 -1t-2.5 -3q-4 -11 -5.5 -24t-2.5 -26l-1 -9q-2 -20 -5 -40.5l-6 -40.5l-1 -11 q-4 -23 -7.5 -46.5t-6.5 -46.5q-4 -20 -7 -40.5l-6 -40.5q-1 -6 -1 -11.5t-1 -11.5q0 -16 -3 -31q-1 -6 -4 -15.5t-14 -10.5h-2v0zM193 668l-4 24.5t-7.5 43.5l-9.5 52.5l-9 50.5q-1 -8 -1.5 -15.5t-2.5 -15.5q-1 -7 -1.5 -13.5t-1.5 -12.5l-4 -23.5l-4 -22.5 q-3 -16 -5.5 -32t-4.5 -33q-2 -26 -7 -52l-10 -52t-9.5 -52.5t-7.5 -53.5v-4v-3h4t7 1h8h1h14t14 -1q5 0 11 -0.5t11 -0.5h3h15q11 0 18 0.5t14 1.5h1q0 2 -0.5 5t-0.5 5l-1 5q-7 32 -11 63.5t-9 62.5q-2 18 -4.5 36t-5.5 36z" />
<glyph unicode="&#xc8;" horiz-adv-x="362" d="M270 1061q-2 0 -1 0t2.5 0.5t2 0.5t-3.5 -1q-12 -3 -17.5 2t-7 13t-1 17.5t0.5 17.5q0 24 -1 48.5t-3 48.5q-2 7 0 13.5t14 8.5q3 1 12 1t8 -5q7 -7 5 -18t-3 -19q-1 -12 -0.5 -24t1.5 -24q1 -13 1 -25.5v-26.5q0 -8 1 -16.5t-10 -11.5zM38 0q-18 0 -25.5 8t-9.5 16 q-3 12 -3 26t1 28q1 6 1.5 12t0.5 11q-1 63 -0.5 125.5t0.5 124.5v66t1 65v129q2 150 0 301q0 3 -0.5 6.5t-0.5 8.5q-1 9 -1 19.5t2 20.5q4 17 13 21t17 4h9h1q14 0 27 0.5t26 1.5q10 1 19.5 1t19.5 1h16.5t16.5 1q17 0 34 0.5t34 1.5q4 0 11 0.5t15 0.5q14 0 22 -2 q3 0 5 -1t4 -3q5 -5 5 -8q1 -5 0 -9q0 -7 -3 -10q-6 -4 -9 -4q-12 -6 -41 -6q-11 0 -20 0.5t-15 0.5h-4q-8 1 -17 1h-18q-28 0 -56 -1t-55 -3l-3 -1h-8.5t-5.5 -1q-1 -1 -1 -2v-6q-1 -5 -0.5 -11t0.5 -11v-10q2 -40 0 -80v-14v-90q0 -25 0.5 -50t-0.5 -51q0 -9 -0.5 -18 t-0.5 -18q-1 -14 -1 -27.5v-27.5v-3q-1 -19 0 -38q0 -3 -0.5 -6t-0.5 -6q-1 -12 0 -16t4 -6q13 -5 29.5 -4t35.5 3q13 2 26 3t26 -1q10 -1 18.5 -6.5t9.5 -14.5q1 -4 -2 -10.5t-16 -9.5q-5 -2 -10.5 -1.5t-10.5 1.5q-2 1 -7 1h-21h-24q-11 1 -21 0.5t-22 -1.5h-4h-5.5 t-4.5 -1q-1 0 -1 -1v-4q-1 -18 -1 -36.5v-37.5v-10q0 -22 0.5 -44t0.5 -44q1 -25 1.5 -50t0.5 -50v-18q-1 -18 -1 -36t2 -36q0 -2 0.5 -3.5t0.5 -2.5t1 -1q1 -1 4 -1h6h10q8 0 15 0.5t15 0.5h5q18 1 36.5 1.5t36.5 0.5q24 1 48.5 1t48.5 2h3q3 0 6 0.5t5 0.5q26 0 31 -17 q3 -8 1.5 -13t-3.5 -9q-6 -8 -16.5 -10t-18.5 -2q-6 0 -11 0.5t-9 0.5q-2 1 -6 1h-8q-25 1 -50.5 1h-51.5h-34.5t-32.5 -1q-4 0 -14 -2q-5 -1 -11 -1.5t-12 -0.5z" />
<glyph unicode="&#xca;" horiz-adv-x="362" d="M416 1060q13 2 18 12t-1 24t-8 19q-26 46 -50 93l-47 94q-5 10 -9.5 20t-9.5 20q-4 12 -11.5 23t-24.5 9h-1q-1 -1 -2 -1t-2 -1q-4 -2 -5 -2q-9 -5 -9 -9.5t1 -5.5v-1q0 -16 23 -50q1 -2 2 -3.5t1 -2.5l31.5 -59.5l28.5 -55.5l22.5 -45.5l23.5 -44.5q2 -6 3 -8 q1 -1 1 -1.5t1 -1.5q4 -9 9 -16t15 -6zM271 1374q12 -4 17 -13q4 -11 -2.5 -24t-9.5 -18l-56 -90.5l-53 -90.5l-10.5 -18.5l-11.5 -19.5q-5 -12 -13 -22.5t-25 -6.5h-1q-2 0 -4 2l-4 2q-9 5 -9 10t1 5v1q1 17 26 49q4 6 4 5q20 30 36.5 57.5t30.5 53.5l25.5 44.5t26.5 42.5 q2 2 2.5 4t2.5 4q0 1 1 2q5 9 10.5 16t15.5 5zM38 0q-18 0 -25.5 8t-9.5 16q-3 12 -3 26t1 28q1 6 1.5 12t0.5 11q-1 63 -0.5 125.5t0.5 124.5v66t1 65v129q2 150 0 301q0 3 -0.5 6.5t-0.5 8.5q-1 9 -1 19.5t2 20.5q4 17 13 21t17 4h9h1q14 0 27 0.5t26 1.5q10 1 19.5 1 t19.5 1h16.5t16.5 1q17 0 34 0.5t34 1.5q4 0 11 0.5t15 0.5q14 0 22 -2q3 0 5 -1t4 -3q5 -5 5 -8q1 -5 0 -9q0 -7 -3 -10q-6 -4 -9 -4q-12 -6 -41 -6q-11 0 -20 0.5t-15 0.5h-4q-8 1 -17 1h-18q-28 0 -56 -1t-55 -3l-3 -1h-8.5t-5.5 -1q-1 -1 -1 -2v-6q-1 -5 -0.5 -11 t0.5 -11v-10q2 -40 0 -80v-14v-90q0 -25 0.5 -50t-0.5 -51q0 -9 -0.5 -18t-0.5 -18q-1 -14 -1 -27.5v-27.5v-3q-1 -19 0 -38q0 -3 -0.5 -6t-0.5 -6q-1 -12 0 -16t4 -6q13 -5 29.5 -4t35.5 3q13 2 26 3t26 -1q10 -1 18.5 -6.5t9.5 -14.5q1 -4 -2 -10.5t-16 -9.5 q-5 -2 -10.5 -1.5t-10.5 1.5q-2 1 -7 1h-21h-24q-11 1 -21 0.5t-22 -1.5h-4h-5.5t-4.5 -1q-1 0 -1 -1v-4q-1 -18 -1 -36.5v-37.5v-10q0 -22 0.5 -44t0.5 -44q1 -25 1.5 -50t0.5 -50v-18q-1 -18 -1 -36t2 -36q0 -2 0.5 -3.5t0.5 -2.5t1 -1q1 -1 4 -1h6h10q8 0 15 0.5t15 0.5 h5q18 1 36.5 1.5t36.5 0.5q24 1 48.5 1t48.5 2h3q3 0 6 0.5t5 0.5q26 0 31 -17q3 -8 1.5 -13t-3.5 -9q-6 -8 -16.5 -10t-18.5 -2q-6 0 -11 0.5t-9 0.5q-2 1 -6 1h-8q-25 1 -50.5 1h-51.5h-34.5t-32.5 -1q-4 0 -14 -2q-5 -1 -11 -1.5t-12 -0.5z" />
<glyph unicode="&#xcc;" horiz-adv-x="144" d="M26 1061q-2 0 -1 0t2.5 0.5t2 0.5t-3.5 -1q-12 -3 -17.5 2t-7 13t-1 17.5t0.5 17.5q0 24 -1 48.5t-3 48.5q-2 7 0 13.5t14 8.5q3 1 12 1t8 -5q7 -7 5 -18t-3 -19q-1 -12 -0.5 -24t1.5 -24q1 -13 1 -25.5v-26.5q0 -8 1 -16.5t-10 -11.5zM6 36v16t1 16q0 5 0.5 10.5 t0.5 10.5v17q-1 101 -1.5 204t-1.5 206q-1 32 -1 64.5v64.5v118l-1 26v94q1 13 0.5 25.5t-2.5 26.5q-2 15 -1.5 30.5t8.5 27.5q2 5 7 6.5t10 -0.5v-1h3q4 -1 11 -3.5t6 -12.5q4 -10 4 -21t-1 -19l-1 -3q-2 -17 -2 -35v-38q2 -38 1.5 -76t-0.5 -76v-60q0 -69 0.5 -136.5 t0.5 -136.5q0 -42 0.5 -83.5t0.5 -83.5q0 -47 3 -101v-14.5t-1 -14.5v-19v-6.5t1 -6.5q1 -6 1.5 -13t-1.5 -14q-4 -25 -20 -25q-13 0 -18.5 13.5t-6.5 22.5z" />
<glyph unicode="&#xce;" horiz-adv-x="144" d="M173 1060q13 2 18 12t-1 24t-8 19q-26 46 -50 93l-47 94q-5 10 -9.5 20t-9.5 20q-4 12 -11.5 23t-24.5 9h-1q-1 -1 -2 -1t-2 -1q-4 -2 -5 -2q-9 -5 -9 -9.5t1 -5.5v-1q0 -16 23 -50q1 -2 2 -3.5t1 -2.5l31.5 -59.5l28.5 -55.5l22.5 -45.5l23.5 -44.5q2 -6 3 -8 q1 -1 1 -1.5t1 -1.5q4 -9 9 -16t15 -6zM28 1374q12 -4 17 -13q4 -11 -2.5 -24t-9.5 -18l-56 -90.5l-53 -90.5l-10.5 -18.5l-11.5 -19.5q-5 -12 -13 -22.5t-25 -6.5h-1q-2 0 -4 2l-4 2q-9 5 -9 10t1 5v1q1 17 26 49q4 6 4 5q20 30 36.5 57.5t30.5 53.5l25.5 44.5t26.5 42.5 q2 2 2.5 4t2.5 4q0 1 1 2q5 9 10.5 16t15.5 5zM6 36v16t1 16q0 5 0.5 10.5t0.5 10.5v17q-1 101 -1.5 204t-1.5 206q-1 32 -1 64.5v64.5v118l-1 26v94q1 13 0.5 25.5t-2.5 26.5q-2 15 -1.5 30.5t8.5 27.5q2 5 7 6.5t10 -0.5v-1h3q4 -1 11 -3.5t6 -12.5q4 -10 4 -21t-1 -19 l-1 -3q-2 -17 -2 -35v-38q2 -38 1.5 -76t-0.5 -76v-60q0 -69 0.5 -136.5t0.5 -136.5q0 -42 0.5 -83.5t0.5 -83.5q0 -47 3 -101v-14.5t-1 -14.5v-19v-6.5t1 -6.5q1 -6 1.5 -13t-1.5 -14q-4 -25 -20 -25q-13 0 -18.5 13.5t-6.5 22.5z" />
<glyph unicode="&#xd2;" horiz-adv-x="411" d="M192 1061q-2 0 -1 0t2.5 0.5t2 0.5t-3.5 -1q-12 -3 -17.5 2t-7 13t-1 17.5t0.5 17.5q0 24 -1 48.5t-3 48.5q-2 7 0 13.5t14 8.5q3 1 12 1t8 -5q7 -7 5 -18t-3 -19q-1 -12 -0.5 -24t1.5 -24q1 -13 1 -25.5v-26.5q0 -8 1 -16.5t-10 -11.5zM325 579q0 -8 -0.5 -16.5 t-0.5 -16.5q-1 -16 -1.5 -32t1.5 -32q2 -17 1 -32.5l-2 -31.5l-2 -26t0 -25q1 -32 0 -62.5t-3 -60.5q-1 -9 -1 -18v-18l-2 -44.5t-6 -44t-14.5 -42t-27.5 -38.5t-43.5 -28.5t-54.5 -10.5q-59 0 -93 42q-19 24 -31 51t-19.5 55t-11 54.5t-5.5 49.5q-4 63 -6 128q0 8 -0.5 17 t-0.5 18q-2 22 -2 44t2 44q3 23 3.5 46t0.5 46q-1 19 0 40v17q0 14 0.5 27t-1.5 26q0 3 -0.5 6t-0.5 6q-2 14 -3 28t0 28v5q2 30 5 61.5t15 59.5q7 14 16.5 26t20.5 23q1 1 7.5 7l13.5 12q2 4 4 6l3 3q2 0 4 1l12.5 4l13.5 4q5 2 10.5 4l11.5 4q32 9 63 6q18 -2 32 -10.5 t25 -19.5t18 -21.5t10 -16.5q14 -24 18.5 -51t6.5 -53l1 -2q1 -10 2 -19l2 -18q3 -20 5 -40t2 -41v-33t1 -33q0 -15 0.5 -30.5t0.5 -31.5zM226 53q7 11 17 21q8 10 13 17q13 17 15.5 38.5t3.5 42.5q5 125 7.5 237.5t0.5 224.5l-1 20l-2 52.5t-4 52.5l-2 16.5l-2 17.5 q-2 21 -4.5 42.5t-9.5 41.5q-5 14 -17 35.5t-33 34.5q-29 17 -82 -4v-1q-38 -14 -56 -45.5t-21 -85.5t-4.5 -110.5t-2.5 -119.5q0 -15 0.5 -30.5t1.5 -30.5q1 -14 1.5 -27t0.5 -27v-32v-41t2 -42l3 -45q2 -45 6.5 -88.5t20.5 -85.5l4 -10.5l4 -10.5q6 -17 12.5 -31.5 t20.5 -25.5q21 -17 50 -17q12 0 32 3q11 2 15.5 4t9.5 9z" />
<glyph unicode="&#xd4;" horiz-adv-x="411" d="M339 1060q13 2 18 12t-1 24t-8 19q-26 46 -50 93l-47 94q-5 10 -9.5 20t-9.5 20q-4 12 -11.5 23t-24.5 9h-1q-1 -1 -2 -1t-2 -1q-4 -2 -5 -2q-9 -5 -9 -9.5t1 -5.5v-1q0 -16 23 -50q1 -2 2 -3.5t1 -2.5l31.5 -59.5l28.5 -55.5l22.5 -45.5l23.5 -44.5q2 -6 3 -8 q1 -1 1 -1.5t1 -1.5q4 -9 9 -16t15 -6zM194 1374q12 -4 17 -13q4 -11 -2.5 -24t-9.5 -18l-56 -90.5l-53 -90.5l-10.5 -18.5l-11.5 -19.5q-5 -12 -13 -22.5t-25 -6.5h-1q-2 0 -4 2l-4 2q-9 5 -9 10t1 5v1q1 17 26 49q4 6 4 5q20 30 36.5 57.5t30.5 53.5l25.5 44.5t26.5 42.5 q2 2 2.5 4t2.5 4q0 1 1 2q5 9 10.5 16t15.5 5zM325 579q0 -8 -0.5 -16.5t-0.5 -16.5q-1 -16 -1.5 -32t1.5 -32q2 -17 1 -32.5l-2 -31.5l-2 -26t0 -25q1 -32 0 -62.5t-3 -60.5q-1 -9 -1 -18v-18l-2 -44.5t-6 -44t-14.5 -42t-27.5 -38.5t-43.5 -28.5t-54.5 -10.5q-59 0 -93 42 q-19 24 -31 51t-19.5 55t-11 54.5t-5.5 49.5q-4 63 -6 128q0 8 -0.5 17t-0.5 18q-2 22 -2 44t2 44q3 23 3.5 46t0.5 46q-1 19 0 40v17q0 14 0.5 27t-1.5 26q0 3 -0.5 6t-0.5 6q-2 14 -3 28t0 28v5q2 30 5 61.5t15 59.5q7 14 16.5 26t20.5 23q1 1 7.5 7l13.5 12q2 4 4 6l3 3 q2 0 4 1l12.5 4l13.5 4q5 2 10.5 4l11.5 4q32 9 63 6q18 -2 32 -10.5t25 -19.5t18 -21.5t10 -16.5q14 -24 18.5 -51t6.5 -53l1 -2q1 -10 2 -19l2 -18q3 -20 5 -40t2 -41v-33t1 -33q0 -15 0.5 -30.5t0.5 -31.5zM226 53q7 11 17 21q8 10 13 17q13 17 15.5 38.5t3.5 42.5 q5 125 7.5 237.5t0.5 224.5l-1 20l-2 52.5t-4 52.5l-2 16.5l-2 17.5q-2 21 -4.5 42.5t-9.5 41.5q-5 14 -17 35.5t-33 34.5q-29 17 -82 -4v-1q-38 -14 -56 -45.5t-21 -85.5t-4.5 -110.5t-2.5 -119.5q0 -15 0.5 -30.5t1.5 -30.5q1 -14 1.5 -27t0.5 -27v-32v-41t2 -42l3 -45 q2 -45 6.5 -88.5t20.5 -85.5l4 -10.5l4 -10.5q6 -17 12.5 -31.5t20.5 -25.5q21 -17 50 -17q12 0 32 3q11 2 15.5 4t9.5 9z" />
<glyph unicode="&#xd7;" horiz-adv-x="424" d="M13 326q-13 3 -13 17q0 6 4 13.5t9.5 14.5t10.5 12.5t8 8.5l103 101.5l99 102.5l20 22t21 22q11 14 25 25t31 6q2 -1 2.5 -1.5t2.5 -1.5l3 -3q8 -8 5.5 -13.5t-3.5 -5.5q0 -1 -1 -1q-5 -11 -18 -24.5t-33 -31.5q-5 -5 -7 -6l-65 -65l-59 -61l-47.5 -49.5l-48.5 -48.5 l-9 -9l-2 -2q-9 -11 -18.5 -18t-19.5 -4zM346 341q-2 -5 -6.5 -9t-10.5 -4t-13.5 4t-14.5 9.5t-12.5 10.5t-8.5 8l-101 102l-102 98l-21.5 21l-21.5 21q-14 11 -25 24.5t-6 30.5v1q1 1 1.5 2t1.5 2q1 3 3 3q8 8 13 5.5t6 -3.5q1 0 1 -1q11 -4 24.5 -17t31.5 -33q4 -6 5 -7 l65 -65l60 -58q26 -23 50 -47.5l48 -48.5l9 -9l2 -2q11 -9 18 -18t4 -20z" />
<glyph unicode="&#xd9;" horiz-adv-x="437" d="M332 1061q-2 0 -1 0t2.5 0.5t2 0.5t-3.5 -1q-12 -3 -17.5 2t-7 13t-1 17.5t0.5 17.5q0 24 -1 48.5t-3 48.5q-2 7 0 13.5t14 8.5q3 1 12 1t8 -5q7 -7 5 -18t-3 -19q-1 -12 -0.5 -24t1.5 -24q1 -13 1 -25.5v-26.5q0 -8 1 -16.5t-10 -11.5zM339 988q0 -3 -1 -4 q8 -14 7.5 -36.5t-2.5 -48.5q-1 -5 -1 -10v-7q1 -32 0.5 -63.5t-2.5 -63.5q-1 -23 -1 -45t-1 -45v-62q0 -43 -0.5 -86.5t1.5 -86.5q0 -10 0.5 -19.5t0.5 -19.5q2 -20 2.5 -40t-0.5 -40t-3 -39l-4 -38q-2 -9 -2.5 -18.5t-1.5 -17.5q-3 -24 -8 -51.5t-15 -53t-27 -47.5 t-44 -34t-54 -12q-38 0 -72 22t-56 60q-26 46 -34.5 94.5t-10.5 88.5q-3 48 -3.5 95.5t-1.5 95.5l-1 87q0 50 -0.5 100t-0.5 101l1 27v51.5t-1 51.5q0 1 -0.5 2.5t-0.5 3.5q-2 26 -2 43.5t1 28t3 16.5t5 9q5 5 12 5h1q5 0 11 -4q2 -2 3.5 -6t3 -12.5t2 -24t0.5 -41.5v-5 v-125v-52t1 -52v-64q-1 -38 -0.5 -75.5t3.5 -74.5q2 -23 2 -45.5v-45.5q0 -30 0.5 -60.5t5.5 -60.5q7 -48 21 -92t47 -70q26 -20 60 -20q40 0 64 26q26 28 33.5 64.5t10.5 74.5q1 10 1.5 19.5t2.5 19.5q5 32 4.5 65t-1.5 65q-1 23 -1.5 47t1.5 47q2 51 2 101v100v54v83 l-1 48v15q-2 38 -2 60.5t1.5 34.5t4 16t7.5 6h1h1l1 1h1h1q4 0 6 0.5t4 0.5h2q11 0 13 -12z" />
<glyph unicode="&#xdb;" horiz-adv-x="437" d="M478 1060q13 2 18 12t-1 24t-8 19q-26 46 -50 93l-47 94q-5 10 -9.5 20t-9.5 20q-4 12 -11.5 23t-24.5 9h-1q-1 -1 -2 -1t-2 -1q-4 -2 -5 -2q-9 -5 -9 -9.5t1 -5.5v-1q0 -16 23 -50q1 -2 2 -3.5t1 -2.5l31.5 -59.5l28.5 -55.5l22.5 -45.5l23.5 -44.5q2 -6 3 -8 q1 -1 1 -1.5t1 -1.5q4 -9 9 -16t15 -6zM333 1374q12 -4 17 -13q4 -11 -2.5 -24t-9.5 -18l-56 -90.5l-53 -90.5l-10.5 -18.5l-11.5 -19.5q-5 -12 -13 -22.5t-25 -6.5h-1q-2 0 -4 2l-4 2q-9 5 -9 10t1 5v1q1 17 26 49q4 6 4 5q20 30 36.5 57.5t30.5 53.5l25.5 44.5t26.5 42.5 q2 2 2.5 4t2.5 4q0 1 1 2q5 9 10.5 16t15.5 5zM339 988q0 -3 -1 -4q8 -14 7.5 -36.5t-2.5 -48.5q-1 -5 -1 -10v-7q1 -32 0.5 -63.5t-2.5 -63.5q-1 -23 -1 -45t-1 -45v-62q0 -43 -0.5 -86.5t1.5 -86.5q0 -10 0.5 -19.5t0.5 -19.5q2 -20 2.5 -40t-0.5 -40t-3 -39l-4 -38 q-2 -9 -2.5 -18.5t-1.5 -17.5q-3 -24 -8 -51.5t-15 -53t-27 -47.5t-44 -34t-54 -12q-38 0 -72 22t-56 60q-26 46 -34.5 94.5t-10.5 88.5q-3 48 -3.5 95.5t-1.5 95.5l-1 87q0 50 -0.5 100t-0.5 101l1 27v51.5t-1 51.5q0 1 -0.5 2.5t-0.5 3.5q-2 26 -2 43.5t1 28t3 16.5t5 9 q5 5 12 5h1q5 0 11 -4q2 -2 3.5 -6t3 -12.5t2 -24t0.5 -41.5v-5v-125v-52t1 -52v-64q-1 -38 -0.5 -75.5t3.5 -74.5q2 -23 2 -45.5v-45.5q0 -30 0.5 -60.5t5.5 -60.5q7 -48 21 -92t47 -70q26 -20 60 -20q40 0 64 26q26 28 33.5 64.5t10.5 74.5q1 10 1.5 19.5t2.5 19.5 q5 32 4.5 65t-1.5 65q-1 23 -1.5 47t1.5 47q2 51 2 101v100v54v83l-1 48v15q-2 38 -2 60.5t1.5 34.5t4 16t7.5 6h1h1l1 1h1h1q4 0 6 0.5t4 0.5h2q11 0 13 -12z" />
<glyph unicode="&#xe0;" horiz-adv-x="405" d="M167 1061q-2 0 -1 0t2.5 0.5t2 0.5t-3.5 -1q-12 -3 -17.5 2t-7 13t-1 17.5t0.5 17.5q0 24 -1 48.5t-3 48.5q-2 7 0 13.5t14 8.5q3 1 12 1t8 -5q7 -7 5 -18t-3 -19q-1 -12 -0.5 -24t1.5 -24q1 -13 1 -25.5v-26.5q0 -8 1 -16.5t-10 -11.5zM24 6q-17 0 -23 27q-2 11 0 22 l4 21q0 3 0.5 5.5t1.5 5.5q2 9 3 18.5t3 18.5l6 36q2 10 3 19.5l2 18.5q2 11 3.5 22t3.5 22q2 8 3.5 16.5t3.5 16.5q3 14 6 26.5t5 26.5q3 20 5 37.5l4 34.5q1 5 1 16q1 5 1 11t1 11q1 11 6 22q2 5 3 9t1 9q2 14 4.5 27.5t4.5 27.5l17.5 120.5t15.5 120.5v5q1 10 2.5 20.5 t5.5 21.5q2 5 1.5 10t-0.5 11v11t1 12l4 22.5l4 22.5l6 33v7q0 7 0.5 15.5t3 15.5t6.5 12.5t12 6.5h3q10 0 15.5 -7t9 -17.5t4.5 -23t2 -23.5q1 -3 1 -8q5 -37 10.5 -74t11.5 -73l4 -32l39 -255l11.5 -75.5l11.5 -75.5q5 -29 8.5 -56.5t8.5 -56.5q3 -22 6.5 -44t6.5 -44 l2 -14q2 -14 4.5 -29t5.5 -29q1 -2 1 -3t1 -2q2 -8 4 -17.5t0 -18.5q2 -8 -6 -14q-2 -2 -6.5 -5t-9.5 -3q-8 0 -12 9v1q-8 9 -12 25.5t-6 33.5v3q-2 15 -4.5 30.5t-4.5 30.5q-5 26 -8.5 53.5t-7.5 54.5l-2 18l-2 18q-2 13 -3 25t-3 25q-1 5 -1.5 10t-1.5 10l-2 12t-2 13v13 q-1 5 -1.5 14.5t-2.5 12.5q-2 2 -10 2.5t-12 0.5h-6q-6 1 -12.5 1h-11.5h-21h-18t-21 -1h-6h-5q-8 0 -9.5 -1t-2.5 -3q-4 -11 -5.5 -24t-2.5 -26l-1 -9q-2 -20 -5 -40.5l-6 -40.5l-1 -11q-4 -23 -7.5 -46.5t-6.5 -46.5q-4 -20 -7 -40.5l-6 -40.5q-1 -6 -1 -11.5t-1 -11.5 q0 -16 -3 -31q-1 -6 -4 -15.5t-14 -10.5h-2v0zM193 668l-4 24.5t-7.5 43.5l-9.5 52.5l-9 50.5q-1 -8 -1.5 -15.5t-2.5 -15.5q-1 -7 -1.5 -13.5t-1.5 -12.5l-4 -23.5l-4 -22.5q-3 -16 -5.5 -32t-4.5 -33q-2 -26 -7 -52l-10 -52t-9.5 -52.5t-7.5 -53.5v-4v-3h4t7 1h8h1h14 t14 -1q5 0 11 -0.5t11 -0.5h3h15q11 0 18 0.5t14 1.5h1q0 2 -0.5 5t-0.5 5l-1 5q-7 32 -11 63.5t-9 62.5q-2 18 -4.5 36t-5.5 36z" />
<glyph unicode="&#xe2;" horiz-adv-x="405" d="M314 1060q13 2 18 12t-1 24t-8 19q-26 46 -50 93l-47 94q-5 10 -9.5 20t-9.5 20q-4 12 -11.5 23t-24.5 9h-1q-1 -1 -2 -1t-2 -1q-4 -2 -5 -2q-9 -5 -9 -9.5t1 -5.5v-1q0 -16 23 -50q1 -2 2 -3.5t1 -2.5l31.5 -59.5l28.5 -55.5l22.5 -45.5l23.5 -44.5q2 -6 3 -8 q1 -1 1 -1.5t1 -1.5q4 -9 9 -16t15 -6zM169 1374q12 -4 17 -13q4 -11 -2.5 -24t-9.5 -18l-56 -90.5l-53 -90.5l-10.5 -18.5l-11.5 -19.5q-5 -12 -13 -22.5t-25 -6.5h-1q-2 0 -4 2l-4 2q-9 5 -9 10t1 5v1q1 17 26 49q4 6 4 5q20 30 36.5 57.5t30.5 53.5l25.5 44.5t26.5 42.5 q2 2 2.5 4t2.5 4q0 1 1 2q5 9 10.5 16t15.5 5zM24 6q-17 0 -23 27q-2 11 0 22l4 21q0 3 0.5 5.5t1.5 5.5q2 9 3 18.5t3 18.5l6 36q2 10 3 19.5l2 18.5q2 11 3.5 22t3.5 22q2 8 3.5 16.5t3.5 16.5q3 14 6 26.5t5 26.5q3 20 5 37.5l4 34.5q1 5 1 16q1 5 1 11t1 11q1 11 6 22 q2 5 3 9t1 9q2 14 4.5 27.5t4.5 27.5l17.5 120.5t15.5 120.5v5q1 10 2.5 20.5t5.5 21.5q2 5 1.5 10t-0.5 11v11t1 12l4 22.5l4 22.5l6 33v7q0 7 0.5 15.5t3 15.5t6.5 12.5t12 6.5h3q10 0 15.5 -7t9 -17.5t4.5 -23t2 -23.5q1 -3 1 -8q5 -37 10.5 -74t11.5 -73l4 -32l39 -255 l11.5 -75.5l11.5 -75.5q5 -29 8.5 -56.5t8.5 -56.5q3 -22 6.5 -44t6.5 -44l2 -14q2 -14 4.5 -29t5.5 -29q1 -2 1 -3t1 -2q2 -8 4 -17.5t0 -18.5q2 -8 -6 -14q-2 -2 -6.5 -5t-9.5 -3q-8 0 -12 9v1q-8 9 -12 25.5t-6 33.5v3q-2 15 -4.5 30.5t-4.5 30.5q-5 26 -8.5 53.5 t-7.5 54.5l-2 18l-2 18q-2 13 -3 25t-3 25q-1 5 -1.5 10t-1.5 10l-2 12t-2 13v13q-1 5 -1.5 14.5t-2.5 12.5q-2 2 -10 2.5t-12 0.5h-6q-6 1 -12.5 1h-11.5h-21h-18t-21 -1h-6h-5q-8 0 -9.5 -1t-2.5 -3q-4 -11 -5.5 -24t-2.5 -26l-1 -9q-2 -20 -5 -40.5l-6 -40.5l-1 -11 q-4 -23 -7.5 -46.5t-6.5 -46.5q-4 -20 -7 -40.5l-6 -40.5q-1 -6 -1 -11.5t-1 -11.5q0 -16 -3 -31q-1 -6 -4 -15.5t-14 -10.5h-2v0zM193 668l-4 24.5t-7.5 43.5l-9.5 52.5l-9 50.5q-1 -8 -1.5 -15.5t-2.5 -15.5q-1 -7 -1.5 -13.5t-1.5 -12.5l-4 -23.5l-4 -22.5 q-3 -16 -5.5 -32t-4.5 -33q-2 -26 -7 -52l-10 -52t-9.5 -52.5t-7.5 -53.5v-4v-3h4t7 1h8h1h14t14 -1q5 0 11 -0.5t11 -0.5h3h15q11 0 18 0.5t14 1.5h1q0 2 -0.5 5t-0.5 5l-1 5q-7 32 -11 63.5t-9 62.5q-2 18 -4.5 36t-5.5 36z" />
<glyph unicode="&#xe8;" horiz-adv-x="362" d="M270 1061q-2 0 -1 0t2.5 0.5t2 0.5t-3.5 -1q-12 -3 -17.5 2t-7 13t-1 17.5t0.5 17.5q0 24 -1 48.5t-3 48.5q-2 7 0 13.5t14 8.5q3 1 12 1t8 -5q7 -7 5 -18t-3 -19q-1 -12 -0.5 -24t1.5 -24q1 -13 1 -25.5v-26.5q0 -8 1 -16.5t-10 -11.5zM38 0q-18 0 -25.5 8t-9.5 16 q-3 12 -3 26t1 28q1 6 1.5 12t0.5 11q-1 63 -0.5 125.5t0.5 124.5v66t1 65v129q2 150 0 301q0 3 -0.5 6.5t-0.5 8.5q-1 9 -1 19.5t2 20.5q4 17 13 21t17 4h9h1q14 0 27 0.5t26 1.5q10 1 19.5 1t19.5 1h16.5t16.5 1q17 0 34 0.5t34 1.5q4 0 11 0.5t15 0.5q14 0 22 -2 q3 0 5 -1t4 -3q5 -5 5 -8q1 -5 0 -9q0 -7 -3 -10q-6 -4 -9 -4q-12 -6 -41 -6q-11 0 -20 0.5t-15 0.5h-4q-8 1 -17 1h-18q-28 0 -56 -1t-55 -3l-3 -1h-8.5t-5.5 -1q-1 -1 -1 -2v-6q-1 -5 -0.5 -11t0.5 -11v-10q2 -40 0 -80v-14v-90q0 -25 0.5 -50t-0.5 -51q0 -9 -0.5 -18 t-0.5 -18q-1 -14 -1 -27.5v-27.5v-3q-1 -19 0 -38q0 -3 -0.5 -6t-0.5 -6q-1 -12 0 -16t4 -6q13 -5 29.5 -4t35.5 3q13 2 26 3t26 -1q10 -1 18.5 -6.5t9.5 -14.5q1 -4 -2 -10.5t-16 -9.5q-5 -2 -10.5 -1.5t-10.5 1.5q-2 1 -7 1h-21h-24q-11 1 -21 0.5t-22 -1.5h-4h-5.5 t-4.5 -1q-1 0 -1 -1v-4q-1 -18 -1 -36.5v-37.5v-10q0 -22 0.5 -44t0.5 -44q1 -25 1.5 -50t0.5 -50v-18q-1 -18 -1 -36t2 -36q0 -2 0.5 -3.5t0.5 -2.5t1 -1q1 -1 4 -1h6h10q8 0 15 0.5t15 0.5h5q18 1 36.5 1.5t36.5 0.5q24 1 48.5 1t48.5 2h3q3 0 6 0.5t5 0.5q26 0 31 -17 q3 -8 1.5 -13t-3.5 -9q-6 -8 -16.5 -10t-18.5 -2q-6 0 -11 0.5t-9 0.5q-2 1 -6 1h-8q-25 1 -50.5 1h-51.5h-34.5t-32.5 -1q-4 0 -14 -2q-5 -1 -11 -1.5t-12 -0.5z" />
<glyph unicode="&#xea;" horiz-adv-x="362" d="M416 1060q13 2 18 12t-1 24t-8 19q-26 46 -50 93l-47 94q-5 10 -9.5 20t-9.5 20q-4 12 -11.5 23t-24.5 9h-1q-1 -1 -2 -1t-2 -1q-4 -2 -5 -2q-9 -5 -9 -9.5t1 -5.5v-1q0 -16 23 -50q1 -2 2 -3.5t1 -2.5l31.5 -59.5l28.5 -55.5l22.5 -45.5l23.5 -44.5q2 -6 3 -8 q1 -1 1 -1.5t1 -1.5q4 -9 9 -16t15 -6zM271 1374q12 -4 17 -13q4 -11 -2.5 -24t-9.5 -18l-56 -90.5l-53 -90.5l-10.5 -18.5l-11.5 -19.5q-5 -12 -13 -22.5t-25 -6.5h-1q-2 0 -4 2l-4 2q-9 5 -9 10t1 5v1q1 17 26 49q4 6 4 5q20 30 36.5 57.5t30.5 53.5l25.5 44.5t26.5 42.5 q2 2 2.5 4t2.5 4q0 1 1 2q5 9 10.5 16t15.5 5zM38 0q-18 0 -25.5 8t-9.5 16q-3 12 -3 26t1 28q1 6 1.5 12t0.5 11q-1 63 -0.5 125.5t0.5 124.5v66t1 65v129q2 150 0 301q0 3 -0.5 6.5t-0.5 8.5q-1 9 -1 19.5t2 20.5q4 17 13 21t17 4h9h1q14 0 27 0.5t26 1.5q10 1 19.5 1 t19.5 1h16.5t16.5 1q17 0 34 0.5t34 1.5q4 0 11 0.5t15 0.5q14 0 22 -2q3 0 5 -1t4 -3q5 -5 5 -8q1 -5 0 -9q0 -7 -3 -10q-6 -4 -9 -4q-12 -6 -41 -6q-11 0 -20 0.5t-15 0.5h-4q-8 1 -17 1h-18q-28 0 -56 -1t-55 -3l-3 -1h-8.5t-5.5 -1q-1 -1 -1 -2v-6q-1 -5 -0.5 -11 t0.5 -11v-10q2 -40 0 -80v-14v-90q0 -25 0.5 -50t-0.5 -51q0 -9 -0.5 -18t-0.5 -18q-1 -14 -1 -27.5v-27.5v-3q-1 -19 0 -38q0 -3 -0.5 -6t-0.5 -6q-1 -12 0 -16t4 -6q13 -5 29.5 -4t35.5 3q13 2 26 3t26 -1q10 -1 18.5 -6.5t9.5 -14.5q1 -4 -2 -10.5t-16 -9.5 q-5 -2 -10.5 -1.5t-10.5 1.5q-2 1 -7 1h-21h-24q-11 1 -21 0.5t-22 -1.5h-4h-5.5t-4.5 -1q-1 0 -1 -1v-4q-1 -18 -1 -36.5v-37.5v-10q0 -22 0.5 -44t0.5 -44q1 -25 1.5 -50t0.5 -50v-18q-1 -18 -1 -36t2 -36q0 -2 0.5 -3.5t0.5 -2.5t1 -1q1 -1 4 -1h6h10q8 0 15 0.5t15 0.5 h5q18 1 36.5 1.5t36.5 0.5q24 1 48.5 1t48.5 2h3q3 0 6 0.5t5 0.5q26 0 31 -17q3 -8 1.5 -13t-3.5 -9q-6 -8 -16.5 -10t-18.5 -2q-6 0 -11 0.5t-9 0.5q-2 1 -6 1h-8q-25 1 -50.5 1h-51.5h-34.5t-32.5 -1q-4 0 -14 -2q-5 -1 -11 -1.5t-12 -0.5z" />
<glyph unicode="&#xec;" horiz-adv-x="144" d="M26 1061q-2 0 -1 0t2.5 0.5t2 0.5t-3.5 -1q-12 -3 -17.5 2t-7 13t-1 17.5t0.5 17.5q0 24 -1 48.5t-3 48.5q-2 7 0 13.5t14 8.5q3 1 12 1t8 -5q7 -7 5 -18t-3 -19q-1 -12 -0.5 -24t1.5 -24q1 -13 1 -25.5v-26.5q0 -8 1 -16.5t-10 -11.5zM6 36v16t1 16q0 5 0.5 10.5 t0.5 10.5v17q-1 101 -1.5 204t-1.5 206q-1 32 -1 64.5v64.5v118l-1 26v94q1 13 0.5 25.5t-2.5 26.5q-2 15 -1.5 30.5t8.5 27.5q2 5 7 6.5t10 -0.5v-1h3q4 -1 11 -3.5t6 -12.5q4 -10 4 -21t-1 -19l-1 -3q-2 -17 -2 -35v-38q2 -38 1.5 -76t-0.5 -76v-60q0 -69 0.5 -136.5 t0.5 -136.5q0 -42 0.5 -83.5t0.5 -83.5q0 -47 3 -101v-14.5t-1 -14.5v-19v-6.5t1 -6.5q1 -6 1.5 -13t-1.5 -14q-4 -25 -20 -25q-13 0 -18.5 13.5t-6.5 22.5z" />
<glyph unicode="&#xee;" horiz-adv-x="144" d="M173 1060q13 2 18 12t-1 24t-8 19q-26 46 -50 93l-47 94q-5 10 -9.5 20t-9.5 20q-4 12 -11.5 23t-24.5 9h-1q-1 -1 -2 -1t-2 -1q-4 -2 -5 -2q-9 -5 -9 -9.5t1 -5.5v-1q0 -16 23 -50q1 -2 2 -3.5t1 -2.5l31.5 -59.5l28.5 -55.5l22.5 -45.5l23.5 -44.5q2 -6 3 -8 q1 -1 1 -1.5t1 -1.5q4 -9 9 -16t15 -6zM28 1374q12 -4 17 -13q4 -11 -2.5 -24t-9.5 -18l-56 -90.5l-53 -90.5l-10.5 -18.5l-11.5 -19.5q-5 -12 -13 -22.5t-25 -6.5h-1q-2 0 -4 2l-4 2q-9 5 -9 10t1 5v1q1 17 26 49q4 6 4 5q20 30 36.5 57.5t30.5 53.5l25.5 44.5t26.5 42.5 q2 2 2.5 4t2.5 4q0 1 1 2q5 9 10.5 16t15.5 5zM6 36v16t1 16q0 5 0.5 10.5t0.5 10.5v17q-1 101 -1.5 204t-1.5 206q-1 32 -1 64.5v64.5v118l-1 26v94q1 13 0.5 25.5t-2.5 26.5q-2 15 -1.5 30.5t8.5 27.5q2 5 7 6.5t10 -0.5v-1h3q4 -1 11 -3.5t6 -12.5q4 -10 4 -21t-1 -19 l-1 -3q-2 -17 -2 -35v-38q2 -38 1.5 -76t-0.5 -76v-60q0 -69 0.5 -136.5t0.5 -136.5q0 -42 0.5 -83.5t0.5 -83.5q0 -47 3 -101v-14.5t-1 -14.5v-19v-6.5t1 -6.5q1 -6 1.5 -13t-1.5 -14q-4 -25 -20 -25q-13 0 -18.5 13.5t-6.5 22.5z" />
<glyph unicode="&#xf2;" horiz-adv-x="411" d="M192 1061q-2 0 -1 0t2.5 0.5t2 0.5t-3.5 -1q-12 -3 -17.5 2t-7 13t-1 17.5t0.5 17.5q0 24 -1 48.5t-3 48.5q-2 7 0 13.5t14 8.5q3 1 12 1t8 -5q7 -7 5 -18t-3 -19q-1 -12 -0.5 -24t1.5 -24q1 -13 1 -25.5v-26.5q0 -8 1 -16.5t-10 -11.5zM325 579q0 -8 -0.5 -16.5 t-0.5 -16.5q-1 -16 -1.5 -32t1.5 -32q2 -17 1 -32.5l-2 -31.5l-2 -26t0 -25q1 -32 0 -62.5t-3 -60.5q-1 -9 -1 -18v-18l-2 -44.5t-6 -44t-14.5 -42t-27.5 -38.5t-43.5 -28.5t-54.5 -10.5q-59 0 -93 42q-19 24 -31 51t-19.5 55t-11 54.5t-5.5 49.5q-4 63 -6 128q0 8 -0.5 17 t-0.5 18q-2 22 -2 44t2 44q3 23 3.5 46t0.5 46q-1 19 0 40v17q0 14 0.5 27t-1.5 26q0 3 -0.5 6t-0.5 6q-2 14 -3 28t0 28v5q2 30 5 61.5t15 59.5q7 14 16.5 26t20.5 23q1 1 7.5 7l13.5 12q2 4 4 6l3 3q2 0 4 1l12.5 4l13.5 4q5 2 10.5 4l11.5 4q32 9 63 6q18 -2 32 -10.5 t25 -19.5t18 -21.5t10 -16.5q14 -24 18.5 -51t6.5 -53l1 -2q1 -10 2 -19l2 -18q3 -20 5 -40t2 -41v-33t1 -33q0 -15 0.5 -30.5t0.5 -31.5zM226 53q7 11 17 21q8 10 13 17q13 17 15.5 38.5t3.5 42.5q5 125 7.5 237.5t0.5 224.5l-1 20l-2 52.5t-4 52.5l-2 16.5l-2 17.5 q-2 21 -4.5 42.5t-9.5 41.5q-5 14 -17 35.5t-33 34.5q-29 17 -82 -4v-1q-38 -14 -56 -45.5t-21 -85.5t-4.5 -110.5t-2.5 -119.5q0 -15 0.5 -30.5t1.5 -30.5q1 -14 1.5 -27t0.5 -27v-32v-41t2 -42l3 -45q2 -45 6.5 -88.5t20.5 -85.5l4 -10.5l4 -10.5q6 -17 12.5 -31.5 t20.5 -25.5q21 -17 50 -17q12 0 32 3q11 2 15.5 4t9.5 9z" />
<glyph unicode="&#xf4;" horiz-adv-x="411" d="M339 1060q13 2 18 12t-1 24t-8 19q-26 46 -50 93l-47 94q-5 10 -9.5 20t-9.5 20q-4 12 -11.5 23t-24.5 9h-1q-1 -1 -2 -1t-2 -1q-4 -2 -5 -2q-9 -5 -9 -9.5t1 -5.5v-1q0 -16 23 -50q1 -2 2 -3.5t1 -2.5l31.5 -59.5l28.5 -55.5l22.5 -45.5l23.5 -44.5q2 -6 3 -8 q1 -1 1 -1.5t1 -1.5q4 -9 9 -16t15 -6zM194 1374q12 -4 17 -13q4 -11 -2.5 -24t-9.5 -18l-56 -90.5l-53 -90.5l-10.5 -18.5l-11.5 -19.5q-5 -12 -13 -22.5t-25 -6.5h-1q-2 0 -4 2l-4 2q-9 5 -9 10t1 5v1q1 17 26 49q4 6 4 5q20 30 36.5 57.5t30.5 53.5l25.5 44.5t26.5 42.5 q2 2 2.5 4t2.5 4q0 1 1 2q5 9 10.5 16t15.5 5zM325 579q0 -8 -0.5 -16.5t-0.5 -16.5q-1 -16 -1.5 -32t1.5 -32q2 -17 1 -32.5l-2 -31.5l-2 -26t0 -25q1 -32 0 -62.5t-3 -60.5q-1 -9 -1 -18v-18l-2 -44.5t-6 -44t-14.5 -42t-27.5 -38.5t-43.5 -28.5t-54.5 -10.5q-59 0 -93 42 q-19 24 -31 51t-19.5 55t-11 54.5t-5.5 49.5q-4 63 -6 128q0 8 -0.5 17t-0.5 18q-2 22 -2 44t2 44q3 23 3.5 46t0.5 46q-1 19 0 40v17q0 14 0.5 27t-1.5 26q0 3 -0.5 6t-0.5 6q-2 14 -3 28t0 28v5q2 30 5 61.5t15 59.5q7 14 16.5 26t20.5 23q1 1 7.5 7l13.5 12q2 4 4 6l3 3 q2 0 4 1l12.5 4l13.5 4q5 2 10.5 4l11.5 4q32 9 63 6q18 -2 32 -10.5t25 -19.5t18 -21.5t10 -16.5q14 -24 18.5 -51t6.5 -53l1 -2q1 -10 2 -19l2 -18q3 -20 5 -40t2 -41v-33t1 -33q0 -15 0.5 -30.5t0.5 -31.5zM226 53q7 11 17 21q8 10 13 17q13 17 15.5 38.5t3.5 42.5 q5 125 7.5 237.5t0.5 224.5l-1 20l-2 52.5t-4 52.5l-2 16.5l-2 17.5q-2 21 -4.5 42.5t-9.5 41.5q-5 14 -17 35.5t-33 34.5q-29 17 -82 -4v-1q-38 -14 -56 -45.5t-21 -85.5t-4.5 -110.5t-2.5 -119.5q0 -15 0.5 -30.5t1.5 -30.5q1 -14 1.5 -27t0.5 -27v-32v-41t2 -42l3 -45 q2 -45 6.5 -88.5t20.5 -85.5l4 -10.5l4 -10.5q6 -17 12.5 -31.5t20.5 -25.5q21 -17 50 -17q12 0 32 3q11 2 15.5 4t9.5 9z" />
<glyph unicode="&#xf9;" horiz-adv-x="437" d="M332 1061q-2 0 -1 0t2.5 0.5t2 0.5t-3.5 -1q-12 -3 -17.5 2t-7 13t-1 17.5t0.5 17.5q0 24 -1 48.5t-3 48.5q-2 7 0 13.5t14 8.5q3 1 12 1t8 -5q7 -7 5 -18t-3 -19q-1 -12 -0.5 -24t1.5 -24q1 -13 1 -25.5v-26.5q0 -8 1 -16.5t-10 -11.5zM339 988q0 -3 -1 -4 q8 -14 7.5 -36.5t-2.5 -48.5q-1 -5 -1 -10v-7q1 -32 0.5 -63.5t-2.5 -63.5q-1 -23 -1 -45t-1 -45v-62q0 -43 -0.5 -86.5t1.5 -86.5q0 -10 0.5 -19.5t0.5 -19.5q2 -20 2.5 -40t-0.5 -40t-3 -39l-4 -38q-2 -9 -2.5 -18.5t-1.5 -17.5q-3 -24 -8 -51.5t-15 -53t-27 -47.5 t-44 -34t-54 -12q-38 0 -72 22t-56 60q-26 46 -34.5 94.5t-10.5 88.5q-3 48 -3.5 95.5t-1.5 95.5l-1 87q0 50 -0.5 100t-0.5 101l1 27v51.5t-1 51.5q0 1 -0.5 2.5t-0.5 3.5q-2 26 -2 43.5t1 28t3 16.5t5 9q5 5 12 5h1q5 0 11 -4q2 -2 3.5 -6t3 -12.5t2 -24t0.5 -41.5v-5 v-125v-52t1 -52v-64q-1 -38 -0.5 -75.5t3.5 -74.5q2 -23 2 -45.5v-45.5q0 -30 0.5 -60.5t5.5 -60.5q7 -48 21 -92t47 -70q26 -20 60 -20q40 0 64 26q26 28 33.5 64.5t10.5 74.5q1 10 1.5 19.5t2.5 19.5q5 32 4.5 65t-1.5 65q-1 23 -1.5 47t1.5 47q2 51 2 101v100v54v83 l-1 48v15q-2 38 -2 60.5t1.5 34.5t4 16t7.5 6h1h1l1 1h1h1q4 0 6 0.5t4 0.5h2q11 0 13 -12z" />
<glyph unicode="&#xfb;" horiz-adv-x="437" d="M478 1060q13 2 18 12t-1 24t-8 19q-26 46 -50 93l-47 94q-5 10 -9.5 20t-9.5 20q-4 12 -11.5 23t-24.5 9h-1q-1 -1 -2 -1t-2 -1q-4 -2 -5 -2q-9 -5 -9 -9.5t1 -5.5v-1q0 -16 23 -50q1 -2 2 -3.5t1 -2.5l31.5 -59.5l28.5 -55.5l22.5 -45.5l23.5 -44.5q2 -6 3 -8 q1 -1 1 -1.5t1 -1.5q4 -9 9 -16t15 -6zM333 1374q12 -4 17 -13q4 -11 -2.5 -24t-9.5 -18l-56 -90.5l-53 -90.5l-10.5 -18.5l-11.5 -19.5q-5 -12 -13 -22.5t-25 -6.5h-1q-2 0 -4 2l-4 2q-9 5 -9 10t1 5v1q1 17 26 49q4 6 4 5q20 30 36.5 57.5t30.5 53.5l25.5 44.5t26.5 42.5 q2 2 2.5 4t2.5 4q0 1 1 2q5 9 10.5 16t15.5 5zM339 988q0 -3 -1 -4q8 -14 7.5 -36.5t-2.5 -48.5q-1 -5 -1 -10v-7q1 -32 0.5 -63.5t-2.5 -63.5q-1 -23 -1 -45t-1 -45v-62q0 -43 -0.5 -86.5t1.5 -86.5q0 -10 0.5 -19.5t0.5 -19.5q2 -20 2.5 -40t-0.5 -40t-3 -39l-4 -38 q-2 -9 -2.5 -18.5t-1.5 -17.5q-3 -24 -8 -51.5t-15 -53t-27 -47.5t-44 -34t-54 -12q-38 0 -72 22t-56 60q-26 46 -34.5 94.5t-10.5 88.5q-3 48 -3.5 95.5t-1.5 95.5l-1 87q0 50 -0.5 100t-0.5 101l1 27v51.5t-1 51.5q0 1 -0.5 2.5t-0.5 3.5q-2 26 -2 43.5t1 28t3 16.5t5 9 q5 5 12 5h1q5 0 11 -4q2 -2 3.5 -6t3 -12.5t2 -24t0.5 -41.5v-5v-125v-52t1 -52v-64q-1 -38 -0.5 -75.5t3.5 -74.5q2 -23 2 -45.5v-45.5q0 -30 0.5 -60.5t5.5 -60.5q7 -48 21 -92t47 -70q26 -20 60 -20q40 0 64 26q26 28 33.5 64.5t10.5 74.5q1 10 1.5 19.5t2.5 19.5 q5 32 4.5 65t-1.5 65q-1 23 -1.5 47t1.5 47q2 51 2 101v100v54v83l-1 48v15q-2 38 -2 60.5t1.5 34.5t4 16t7.5 6h1h1l1 1h1h1q4 0 6 0.5t4 0.5h2q11 0 13 -12z" />
<glyph unicode="&#x152;" horiz-adv-x="773" d="M449 0q-18 0 -25.5 8t-9.5 16q-3 12 -3 26t1 28q1 6 1.5 12t0.5 11q-1 63 -0.5 125.5t0.5 124.5v66t1 65v129q2 150 0 301q0 3 -0.5 6.5t-0.5 8.5q-1 9 -1 19.5t2 20.5q4 17 13 21t17 4h9h1q14 0 27 0.5t26 1.5q10 1 19.5 1t19.5 1h16.5t16.5 1q17 0 34 0.5t34 1.5 q4 0 11 0.5t15 0.5q14 0 22 -2q3 0 5 -1t4 -3q5 -5 5 -8q1 -5 0 -9q0 -7 -3 -10q-6 -4 -9 -4q-12 -6 -41 -6q-11 0 -20 0.5t-15 0.5h-4q-8 1 -17 1h-18q-28 0 -56 -1t-55 -3l-3 -1h-8.5t-5.5 -1q-1 -1 -1 -2v-6q-1 -5 -0.5 -11t0.5 -11v-10q2 -40 0 -80v-14v-90 q0 -25 0.5 -50t-0.5 -51q0 -9 -0.5 -18t-0.5 -18q-1 -14 -1 -27.5v-27.5v-3q-1 -19 0 -38q0 -3 -0.5 -6t-0.5 -6q-1 -12 0 -16t4 -6q13 -5 29.5 -4t35.5 3q13 2 26 3t26 -1q10 -1 18.5 -6.5t9.5 -14.5q1 -4 -2 -10.5t-16 -9.5q-5 -2 -10.5 -1.5t-10.5 1.5q-2 1 -7 1h-21h-24 q-11 1 -21 0.5t-22 -1.5h-4h-5.5t-4.5 -1q-1 0 -1 -1v-4q-1 -18 -1 -36.5v-37.5v-10q0 -22 0.5 -44t0.5 -44q1 -25 1.5 -50t0.5 -50v-18q-1 -18 -1 -36t2 -36q0 -2 0.5 -3.5t0.5 -2.5t1 -1q1 -1 4 -1h6h10q8 0 15 0.5t15 0.5h5q18 1 36.5 1.5t36.5 0.5q24 1 48.5 1t48.5 2h3 q3 0 6 0.5t5 0.5q26 0 31 -17q3 -8 1.5 -13t-3.5 -9q-6 -8 -16.5 -10t-18.5 -2q-6 0 -11 0.5t-9 0.5q-2 1 -6 1h-8q-25 1 -50.5 1h-51.5h-34.5t-32.5 -1q-4 0 -14 -2q-5 -1 -11 -1.5t-12 -0.5zM325 579q0 -8 -0.5 -16.5t-0.5 -16.5q-1 -16 -1.5 -32t1.5 -32q2 -17 1 -32.5 l-2 -31.5l-2 -26t0 -25q1 -32 0 -62.5t-3 -60.5q-1 -9 -1 -18v-18l-2 -44.5t-6 -44t-14.5 -42t-27.5 -38.5t-43.5 -28.5t-54.5 -10.5q-59 0 -93 42q-19 24 -31 51t-19.5 55t-11 54.5t-5.5 49.5q-4 63 -6 128q0 8 -0.5 17t-0.5 18q-2 22 -2 44t2 44q3 23 3.5 46t0.5 46 q-1 19 0 40v17q0 14 0.5 27t-1.5 26q0 3 -0.5 6t-0.5 6q-2 14 -3 28t0 28v5q2 30 5 61.5t15 59.5q7 14 16.5 26t20.5 23q1 1 7.5 7l13.5 12q2 4 4 6l3 3q2 0 4 1l12.5 4l13.5 4q5 2 10.5 4l11.5 4q32 9 63 6q18 -2 32 -10.5t25 -19.5t18 -21.5t10 -16.5q14 -24 18.5 -51 t6.5 -53l1 -2q1 -10 2 -19l2 -18q3 -20 5 -40t2 -41v-33t1 -33q0 -15 0.5 -30.5t0.5 -31.5zM226 53q7 11 17 21q8 10 13 17q13 17 15.5 38.5t3.5 42.5q5 125 7.5 237.5t0.5 224.5l-1 20l-2 52.5t-4 52.5l-2 16.5l-2 17.5q-2 21 -4.5 42.5t-9.5 41.5q-5 14 -17 35.5t-33 34.5 q-29 17 -82 -4v-1q-38 -14 -56 -45.5t-21 -85.5t-4.5 -110.5t-2.5 -119.5q0 -15 0.5 -30.5t1.5 -30.5q1 -14 1.5 -27t0.5 -27v-32v-41t2 -42l3 -45q2 -45 6.5 -88.5t20.5 -85.5l4 -10.5l4 -10.5q6 -17 12.5 -31.5t20.5 -25.5q21 -17 50 -17q12 0 32 3q11 2 15.5 4t9.5 9z " />
<glyph unicode="&#x153;" horiz-adv-x="773" d="M449 0q-18 0 -25.5 8t-9.5 16q-3 12 -3 26t1 28q1 6 1.5 12t0.5 11q-1 63 -0.5 125.5t0.5 124.5v66t1 65v129q2 150 0 301q0 3 -0.5 6.5t-0.5 8.5q-1 9 -1 19.5t2 20.5q4 17 13 21t17 4h9h1q14 0 27 0.5t26 1.5q10 1 19.5 1t19.5 1h16.5t16.5 1q17 0 34 0.5t34 1.5 q4 0 11 0.5t15 0.5q14 0 22 -2q3 0 5 -1t4 -3q5 -5 5 -8q1 -5 0 -9q0 -7 -3 -10q-6 -4 -9 -4q-12 -6 -41 -6q-11 0 -20 0.5t-15 0.5h-4q-8 1 -17 1h-18q-28 0 -56 -1t-55 -3l-3 -1h-8.5t-5.5 -1q-1 -1 -1 -2v-6q-1 -5 -0.5 -11t0.5 -11v-10q2 -40 0 -80v-14v-90 q0 -25 0.5 -50t-0.5 -51q0 -9 -0.5 -18t-0.5 -18q-1 -14 -1 -27.5v-27.5v-3q-1 -19 0 -38q0 -3 -0.5 -6t-0.5 -6q-1 -12 0 -16t4 -6q13 -5 29.5 -4t35.5 3q13 2 26 3t26 -1q10 -1 18.5 -6.5t9.5 -14.5q1 -4 -2 -10.5t-16 -9.5q-5 -2 -10.5 -1.5t-10.5 1.5q-2 1 -7 1h-21h-24 q-11 1 -21 0.5t-22 -1.5h-4h-5.5t-4.5 -1q-1 0 -1 -1v-4q-1 -18 -1 -36.5v-37.5v-10q0 -22 0.5 -44t0.5 -44q1 -25 1.5 -50t0.5 -50v-18q-1 -18 -1 -36t2 -36q0 -2 0.5 -3.5t0.5 -2.5t1 -1q1 -1 4 -1h6h10q8 0 15 0.5t15 0.5h5q18 1 36.5 1.5t36.5 0.5q24 1 48.5 1t48.5 2h3 q3 0 6 0.5t5 0.5q26 0 31 -17q3 -8 1.5 -13t-3.5 -9q-6 -8 -16.5 -10t-18.5 -2q-6 0 -11 0.5t-9 0.5q-2 1 -6 1h-8q-25 1 -50.5 1h-51.5h-34.5t-32.5 -1q-4 0 -14 -2q-5 -1 -11 -1.5t-12 -0.5zM325 579q0 -8 -0.5 -16.5t-0.5 -16.5q-1 -16 -1.5 -32t1.5 -32q2 -17 1 -32.5 l-2 -31.5l-2 -26t0 -25q1 -32 0 -62.5t-3 -60.5q-1 -9 -1 -18v-18l-2 -44.5t-6 -44t-14.5 -42t-27.5 -38.5t-43.5 -28.5t-54.5 -10.5q-59 0 -93 42q-19 24 -31 51t-19.5 55t-11 54.5t-5.5 49.5q-4 63 -6 128q0 8 -0.5 17t-0.5 18q-2 22 -2 44t2 44q3 23 3.5 46t0.5 46 q-1 19 0 40v17q0 14 0.5 27t-1.5 26q0 3 -0.5 6t-0.5 6q-2 14 -3 28t0 28v5q2 30 5 61.5t15 59.5q7 14 16.5 26t20.5 23q1 1 7.5 7l13.5 12q2 4 4 6l3 3q2 0 4 1l12.5 4l13.5 4q5 2 10.5 4l11.5 4q32 9 63 6q18 -2 32 -10.5t25 -19.5t18 -21.5t10 -16.5q14 -24 18.5 -51 t6.5 -53l1 -2q1 -10 2 -19l2 -18q3 -20 5 -40t2 -41v-33t1 -33q0 -15 0.5 -30.5t0.5 -31.5zM226 53q7 11 17 21q8 10 13 17q13 17 15.5 38.5t3.5 42.5q5 125 7.5 237.5t0.5 224.5l-1 20l-2 52.5t-4 52.5l-2 16.5l-2 17.5q-2 21 -4.5 42.5t-9.5 41.5q-5 14 -17 35.5t-33 34.5 q-29 17 -82 -4v-1q-38 -14 -56 -45.5t-21 -85.5t-4.5 -110.5t-2.5 -119.5q0 -15 0.5 -30.5t1.5 -30.5q1 -14 1.5 -27t0.5 -27v-32v-41t2 -42l3 -45q2 -45 6.5 -88.5t20.5 -85.5l4 -10.5l4 -10.5q6 -17 12.5 -31.5t20.5 -25.5q21 -17 50 -17q12 0 32 3q11 2 15.5 4t9.5 9z " />
<glyph unicode="&#x2c6;" horiz-adv-x="427" d="M327 686q13 2 18 12t-1 24t-8 19q-26 46 -50 93l-47 94q-5 10 -9.5 20t-9.5 20q-4 12 -11.5 23t-24.5 9h-1q-1 -1 -2 -1t-2 -1q-4 -2 -5 -2q-9 -5 -9 -9.5t1 -5.5v-1q0 -16 23 -50q1 -2 2 -3.5t1 -2.5l31.5 -59.5l28.5 -55.5l22.5 -45.5l23.5 -44.5q2 -6 3 -8 q1 -1 1 -1.5t1 -1.5q4 -9 9 -16t15 -6zM182 1000q12 -4 17 -13q4 -11 -2.5 -24t-9.5 -18l-56 -90.5l-53 -90.5l-10.5 -18.5l-11.5 -19.5q-5 -12 -13 -22.5t-25 -6.5h-1q-2 0 -4 2l-4 2q-9 5 -9 10t1 5v1q1 17 26 49q4 6 4 5q20 30 36.5 57.5t30.5 53.5l25.5 44.5t26.5 42.5 q2 2 2.5 4t2.5 4q0 1 1 2q5 9 10.5 16t15.5 5z" />
<glyph unicode="&#x2000;" horiz-adv-x="687" />
<glyph unicode="&#x2001;" horiz-adv-x="1374" />
<glyph unicode="&#x2002;" horiz-adv-x="687" />
<glyph unicode="&#x2003;" horiz-adv-x="1374" />
<glyph unicode="&#x2004;" horiz-adv-x="458" />
<glyph unicode="&#x2005;" horiz-adv-x="343" />
<glyph unicode="&#x2006;" horiz-adv-x="229" />
<glyph unicode="&#x2007;" horiz-adv-x="229" />
<glyph unicode="&#x2008;" horiz-adv-x="171" />
<glyph unicode="&#x2009;" horiz-adv-x="274" />
<glyph unicode="&#x200a;" horiz-adv-x="76" />
<glyph unicode="&#x2010;" horiz-adv-x="449" d="M2 487q-5 12 2 21q6 9 21 10.5t21 1.5q53 -2 105.5 -1t104.5 3q11 0 22 0.5t22 0.5q14 2 27 0.5t19 -17.5q0 -4 1 -5v-5q0 -11 -4 -13t-5 -2h-1q-14 -8 -56 -3h-6q-35 1 -67.5 1t-62.5 -2q-25 -1 -50 -1h-51h-9h-3q-10 -1 -18.5 0.5t-11.5 10.5z" />
<glyph unicode="&#x2011;" horiz-adv-x="449" d="M2 487q-5 12 2 21q6 9 21 10.5t21 1.5q53 -2 105.5 -1t104.5 3q11 0 22 0.5t22 0.5q14 2 27 0.5t19 -17.5q0 -4 1 -5v-5q0 -11 -4 -13t-5 -2h-1q-14 -8 -56 -3h-6q-35 1 -67.5 1t-62.5 -2q-25 -1 -50 -1h-51h-9h-3q-10 -1 -18.5 0.5t-11.5 10.5z" />
<glyph unicode="&#x2012;" horiz-adv-x="449" d="M2 487q-5 12 2 21q6 9 21 10.5t21 1.5q53 -2 105.5 -1t104.5 3q11 0 22 0.5t22 0.5q14 2 27 0.5t19 -17.5q0 -4 1 -5v-5q0 -11 -4 -13t-5 -2h-1q-14 -8 -56 -3h-6q-35 1 -67.5 1t-62.5 -2q-25 -1 -50 -1h-51h-9h-3q-10 -1 -18.5 0.5t-11.5 10.5z" />
<glyph unicode="&#x2013;" horiz-adv-x="500" d="M0 476v48h398v-48h-398z" />
<glyph unicode="&#x2014;" horiz-adv-x="1000" d="M0 476v48h898v-48h-898z" />
<glyph unicode="&#x2018;" horiz-adv-x="149" d="M49 830q-2 0 -1 0t2.5 0.5t2 0.5t-3.5 -1q-12 -3 -17.5 2t-7 13t-1 17.5t0.5 17.5q0 24 -1 48.5t-3 48.5q-2 7 0 13.5t14 8.5q3 1 12 1t8 -5q7 -7 5 -18t-3 -19q-1 -12 -0.5 -24t1.5 -24q1 -13 1 -25.5v-26.5q0 -8 1 -16.5t-10 -11.5z" />
<glyph unicode="&#x2019;" horiz-adv-x="149" d="M49 830q-2 0 -1 0t2.5 0.5t2 0.5t-3.5 -1q-12 -3 -17.5 2t-7 13t-1 17.5t0.5 17.5q0 24 -1 48.5t-3 48.5q-2 7 0 13.5t14 8.5q3 1 12 1t8 -5q7 -7 5 -18t-3 -19q-1 -12 -0.5 -24t1.5 -24q1 -13 1 -25.5v-26.5q0 -8 1 -16.5t-10 -11.5z" />
<glyph unicode="&#x201c;" horiz-adv-x="209" d="M30 830q-2 0 -1 0t2.5 0.5t2 0.5t-3.5 -1q-12 -3 -18 2t-7.5 13t-0.5 17.5t1 17.5q0 24 -1 48.5t-3 48.5q-2 7 -0.5 13.5t14.5 8.5q3 1 12 1t8 -5q7 -7 5 -18t-3 -19q-1 -12 -0.5 -24t1.5 -24q1 -13 1 -25.5v-26.5q0 -8 0.5 -16.5t-9.5 -11.5zM83 999q2 0 1 0t-2.5 -0.5 t-2 -0.5t3.5 1q13 3 18.5 -1.5t7.5 -12.5t1.5 -18t-0.5 -18q-1 -24 0.5 -48.5t2.5 -48.5q2 -7 0.5 -13.5t-14.5 -8.5q-3 -1 -12.5 -1t-8.5 5q-6 7 -4 18t2 19q1 24 0 48q-1 14 -1.5 26.5t-0.5 25.5q0 8 -0.5 17t9.5 11z" />
<glyph unicode="&#x201d;" horiz-adv-x="209" d="M30 830q-2 0 -1 0t2.5 0.5t2 0.5t-3.5 -1q-12 -3 -18 2t-7.5 13t-0.5 17.5t1 17.5q0 24 -1 48.5t-3 48.5q-2 7 -0.5 13.5t14.5 8.5q3 1 12 1t8 -5q7 -7 5 -18t-3 -19q-1 -12 -0.5 -24t1.5 -24q1 -13 1 -25.5v-26.5q0 -8 0.5 -16.5t-9.5 -11.5zM83 999q2 0 1 0t-2.5 -0.5 t-2 -0.5t3.5 1q13 3 18.5 -1.5t7.5 -12.5t1.5 -18t-0.5 -18q-1 -24 0.5 -48.5t2.5 -48.5q2 -7 0.5 -13.5t-14.5 -8.5q-3 -1 -12.5 -1t-8.5 5q-6 7 -4 18t2 19q1 24 0 48q-1 14 -1.5 26.5t-0.5 25.5q0 8 -0.5 17t9.5 11z" />
<glyph unicode="&#x2026;" horiz-adv-x="525" d="M387 69q12 0 22 -5.5t15 -14.5q9 -17 -2 -34q-11 -15 -33 -15q-8 0 -17 2.5t-16 9.5q-5 6 -6 13v5q1 3 3 7q3 7 8 14q2 2 2.5 4.5t2.5 4.5q1 4 7 6q6 3 14 3zM212 69q12 0 22 -5.5t15 -14.5q9 -17 -2 -34q-11 -15 -33 -15q-8 0 -17 2.5t-16 9.5q-5 6 -6 13v5q1 3 3 7 q3 7 8 14q2 2 2.5 4.5t2.5 4.5q1 4 7 6q6 3 14 3zM37 69q12 0 22 -5.5t15 -14.5q9 -17 -2 -34q-11 -15 -33 -15q-8 0 -17 2.5t-16 9.5q-5 6 -6 13v5q1 3 3 7q3 7 8 14q2 2 2.5 4.5t2.5 4.5q1 4 7 6q6 3 14 3z" />
<glyph unicode="&#x202f;" horiz-adv-x="274" />
<glyph unicode="&#x2039;" horiz-adv-x="334" d="M16 478q-12 5 -14 16q-1 6 1.5 12t6.5 11t8 9.5t6 6.5l75 74l72 76q8 8 15 16t15 16q8 11 18.5 19t25.5 1q0 -1 1 -1q2 0 4 -3l3 -3q8 -8 6.5 -12t-2.5 -5h-1q-2 -9 -11.5 -19t-24.5 -23q-3 -2 -5 -4l-48.5 -47.5t-42.5 -45.5l-35 -36l-36 -36l-6 -6l-2 -2 q-7 -8 -13.5 -13t-15.5 -1zM2 505q5 11 16 13t22.5 -7t15.5 -14l74 -75l76 -73q8 -8 16 -15t16 -15q11 -8 19 -18.5t1 -25.5q-1 -2 -3 -4q-1 -2 -3 -4q-8 -8 -12 -6t-5 2l-1 1q-14 4 -41 37q-4 4 -4 5q-48 50 -93 90q-19 17 -37 35l-35 36q-2 2 -3.5 3t-3.5 3l-2 2 q-8 7 -13 14t0 16z" />
<glyph unicode="&#x203a;" horiz-adv-x="352" d="M245 521q12 -5 14 -16q1 -5 -1.5 -11t-6.5 -11.5t-8 -9.5l-6 -6l-75 -74l-72 -76q-8 -8 -15 -16t-15 -16q-8 -11 -18.5 -19t-25.5 -1h-1q-1 1 -2 1.5t-2 1.5l-3 3q-8 8 -6.5 12t2.5 5l1 1q4 14 36 41q6 4 5 4l48.5 47.5t42.5 45.5q17 19 35 37l36 35q2 2 3 3.5t3 3.5l2 2 q7 8 14 13t15 0zM259 494q-5 -11 -16 -13t-22.5 7.5t-15.5 13.5q-36 39 -74 76l-76 72q-8 8 -16 15t-16 15q-11 8 -19 18.5t-1 25.5v1q2 2 3 4l3 3q8 8 12 6.5t5 -2.5l1 -1q14 -4 41 -36q1 -2 3 -4l1 -1l47.5 -48.5t45.5 -42.5q19 -17 37 -35l35 -36q2 -2 3.5 -3t3.5 -3 l2 -2q8 -7 13 -14t0 -16z" />
<glyph unicode="&#x205f;" horiz-adv-x="343" />
<glyph unicode="&#x2122;" horiz-adv-x="846" d="M408 937q-2 14 -1 27t9 21q11 13 29 5q17 -6 23.5 -26.5t10.5 -39.5q1 -3 1 -6t1 -5l10 -39.5l10 -39.5q5 -21 10.5 -42t11.5 -41q5 -20 11 -41t11 -41l6 -25.5t7 -25.5q3 -13 6.5 -25.5t6.5 -24.5q1 -5 2 -9.5t2 -9.5q2 -6 3 -12.5t3 -13.5q1 2 1 6q2 8 3 11l6 22 q5 17 9 33.5l8 33.5l14.5 55.5t15.5 53.5q5 21 11 42t11 42q4 11 7 23l6 23q5 14 8.5 28t7.5 28q0 3 1 6q6 32 12 48.5t16 20.5q2 1 5 1h1h1q2 0 3 -1h1q8 -2 10 -6q13 -13 14.5 -47t-3.5 -87q-1 -5 -1.5 -9.5t-0.5 -6.5v-67.5t1 -66.5v-75v-92.5t-1 -92.5q0 -56 -0.5 -113 t0.5 -114v-29v-36t1 -36v-23q-1 -15 0 -28q0 -2 0.5 -5.5t0.5 -7.5q2 -8 2.5 -17t-1.5 -17q-4 -13 -10 -16.5t-10 -3.5q-10 0 -15.5 8.5t-7.5 18.5q-2 14 -2 27.5t1 26.5v6q4 66 4 132t-2 132q0 27 -0.5 54t-0.5 54v37.5t-1 37.5q0 39 -0.5 79t0.5 80q0 13 0.5 25.5 t1.5 24.5l2 30.5t0 30.5q0 9 -0.5 18.5t-0.5 19.5q-1 4 -1 12q-3 -11 -6 -25.5l-7 -32.5q-1 -4 -1 -6.5t-1 -4.5q-8 -34 -17.5 -68l-19.5 -68l-15.5 -56l-15.5 -57q-5 -17 -9 -33.5t-8 -30.5q-5 -14 -6 -27q-1 -1 -1 -2q0 -5 -2 -14t-12 -12q-2 -1 -6 -1q-13 0 -20.5 15 t-14.5 43l-1 3q-6 26 -13 52t-13 52l-12.5 51l-13.5 52q-5 18 -9.5 36.5t-9.5 36.5t-9.5 36.5l-9.5 37.5q-2 8 -4 13v-176v-38q0 -75 0.5 -151.5t1.5 -151.5l1 -55v-32t-1 -32v-56t2 -56q0 -5 0.5 -10t1.5 -10q0 -5 0.5 -10.5t1.5 -10.5v-4q2 -17 1.5 -31t-10.5 -20 q-5 -3 -10 -3q-7 0 -13 6q-6 7 -8 23.5t0 48.5v3q2 34 1 68l-2 67q0 13 -0.5 25.5t-0.5 25.5q-1 37 -1.5 73t-1.5 72l-2 118.5l-2 119.5v99q0 24 0.5 48.5t-0.5 48.5q0 22 -0.5 43.5t-2.5 43.5v4zM2 966q-5 10 2 20q5 7 13 9t15 2q2 0 4.5 -0.5t4.5 -0.5h3q20 -1 40 -1h43 h37t37 1h17h17h23t24 1q5 0 8 1q5 1 10 1.5t10 0.5q6 0 12 -2q8 -6 10 -12q4 -4 4 -10q0 -3 -1 -5q-1 -5 -3.5 -9.5t-10.5 -4.5q-5 -2 -12 -3t-12 -1q-8 0 -15.5 1l-14.5 2q-4 0 -7 0.5t-5 0.5h-3h-13h-10.5t-10.5 -1h-9h-4h-6q-1 -2 -1 -6v-7q1 -4 1 -11q-1 -8 -1 -16.5 v-16.5v-4q-1 -22 -1 -44t-1 -44q-1 -51 -1.5 -102t0.5 -102q1 -84 0.5 -163.5t-1.5 -142.5v-49q-1 -46 -1 -92t3 -92q0 -14 -1 -25q-1 -10 -2.5 -19.5t-6.5 -14.5t-12 -5q-8 0 -12 5.5t-6 7.5q-5 8 -3 27v6q0 10 -1 15v17q-1 20 -1 40v40q0 72 -0.5 146.5t0.5 149.5 q1 76 1 151v150v97v41v9.5t1 9.5q0 8 0.5 16t-0.5 16q-1 3 -1 7q0 1 -1 1q0 1 -10 2q-12 0 -24 -0.5t-24 -0.5q-12 -1 -24.5 -1h-24.5q-34 0 -42 14z" />
<glyph unicode="&#xe000;" horiz-adv-x="1000" d="M0 1000h1000v-1000h-1000v1000z" />
<glyph unicode="&#xfb01;" horiz-adv-x="518" d="M380 36v16t1 16q0 5 0.5 10.5t0.5 10.5v17q-1 101 -1.5 204t-1.5 206q-1 32 -1 64.5v64.5v118l-1 26v94q1 13 0.5 25.5t-2.5 26.5q-2 15 -1.5 30.5t8.5 27.5q2 5 7 6.5t10 -0.5v-1h3q4 -1 11 -3.5t6 -12.5q4 -10 4 -21t-1 -19l-1 -3q-2 -17 -2 -35v-38q2 -38 1.5 -76 t-0.5 -76v-60q0 -69 0.5 -136.5t0.5 -136.5q0 -42 0.5 -83.5t0.5 -83.5q0 -47 3 -101v-14.5t-1 -14.5v-19v-6.5t1 -6.5q1 -6 1.5 -13t-1.5 -14q-4 -25 -20 -25q-13 0 -18.5 13.5t-6.5 22.5zM1 945q-1 8 -1 16.5t5 16.5q6 11 17.5 13.5t21.5 2.5q9 0 13 -1h3q23 -1 44 -0.5 t47 1.5q14 1 26.5 1.5t25.5 0.5h21t20 1q5 0 10 0.5t10 0.5q7 1 13.5 1t13.5 1h4q13 0 18 -2q7 -3 11 -7q4 -3 6.5 -7.5t1.5 -9.5q0 -3 -1 -4q-2 -5 -4.5 -9t-9.5 -4h-1q-5 -2 -9 -2h-8h-6.5t-7.5 1h-7q-20 -2 -40 -2h-41h-4h-37q-9 1 -18 1h-18q-11 0 -21 -0.5t-19 -0.5 q-3 -1 -12 -1h-14t-12 -2q-3 -3 -3 -25l1 -5v-25q1 -11 1 -21.5v-21.5q2 -23 1.5 -45.5t-0.5 -44.5v-39.5t1 -39.5q2 -45 2 -85t-1 -79v-10t-1 -10q-2 -12 -2 -24.5t3 -21.5q1 -1 1 -2h9l2 -1q12 0 24.5 0.5t25.5 1.5q8 1 16 1t16 1h2h9q12 0 23.5 -2.5t16.5 -11.5 q1 -4 1 -9.5t-6 -12.5q-9 -9 -26 -9h-9t-8 1h-4q-15 2 -30.5 2.5t-31.5 -1.5h-5h-8q-9 0 -12.5 -0.5t-5.5 -0.5q-1 -2 -0.5 -7t0.5 -8q0 -2 0.5 -3t0.5 -3q1 -17 1.5 -34.5t0.5 -37.5v-74q0 -23 -0.5 -46t0.5 -46q0 -12 0.5 -24t1.5 -24q0 -8 0.5 -16.5t0.5 -16.5v-11 q1 -5 1 -10v-10q0 -1 0.5 -1.5t0.5 -2.5q2 -6 2.5 -13t-4.5 -14q-5 -5 -9.5 -7t-7.5 -2q-14 0 -19 13t-6 19q-1 12 2 27q0 3 0.5 6t0.5 7q2 27 1.5 55t-1.5 55q-1 13 -1.5 25t-0.5 24q0 21 -0.5 41.5t-0.5 41.5q-2 63 -3 126.5t0 127.5v49q1 80 1 160.5t-5 160.5v7z" />
<glyph unicode="&#xfb02;" horiz-adv-x="669" d="M573 49q9 -1 20 -3t16 -11q4 -9 -1 -19q-7 -11 -19 -13.5t-22 -2.5q-6 0 -12 0.5t-11 0.5q-2 0 -4.5 0.5t-4.5 0.5q-6 0 -12.5 0.5t-12.5 0.5q-15 1 -29.5 1.5t-30.5 -0.5q-7 0 -12 -1q-6 -1 -12.5 -1.5t-12.5 -0.5q-15 0 -22 5q-10 8 -10.5 20.5t1.5 24.5q0 2 0.5 4.5 t0.5 4.5q1 50 0 100l-2 100q-1 22 -1.5 43t-0.5 42q-1 37 -1.5 73t-0.5 72q-1 43 -1 86.5t-1 87.5q-1 38 -1 78.5t2 90.5q1 17 1 37.5t1 41.5v10q-2 41 0 57.5t13 19.5q1 1 5 1h4q2 -1 3 -1t3 -1h1q5 -2 8.5 -4.5t2.5 -9.5q5 -11 4 -24.5t-3 -25.5q-1 -4 -1 -11 q-2 -21 -2 -44v-46v-41v-96.5t1 -96.5v-51t1 -51q0 -71 0.5 -143t4.5 -145v-29t-1 -29q0 -15 -0.5 -30.5t0.5 -30.5q1 -4 0.5 -7.5t-0.5 -8.5q0 -6 -0.5 -14.5t1.5 -12.5q2 -2 10 -2q16 -1 32 -0.5t33 2.5q18 2 36 2.5t37 -0.5h2v0zM1 945q-1 8 -1 16.5t5 16.5 q6 11 17.5 13.5t21.5 2.5q9 0 13 -1h3q23 -1 44 -0.5t47 1.5q14 1 26.5 1.5t25.5 0.5h21t20 1q5 0 10 0.5t10 0.5q7 1 13.5 1t13.5 1h4q13 0 18 -2q7 -3 11 -7q4 -3 6.5 -7.5t1.5 -9.5q0 -3 -1 -4q-2 -5 -4.5 -9t-9.5 -4h-1q-5 -2 -9 -2h-8h-6.5t-7.5 1h-7q-20 -2 -40 -2 h-41h-4h-37q-9 1 -18 1h-18q-11 0 -21 -0.5t-19 -0.5q-3 -1 -12 -1h-14t-12 -2q-3 -3 -3 -25l1 -5v-25q1 -11 1 -21.5v-21.5q2 -23 1.5 -45.5t-0.5 -44.5v-39.5t1 -39.5q2 -45 2 -85t-1 -79v-10t-1 -10q-2 -12 -2 -24.5t3 -21.5q1 -1 1 -2h9l2 -1q12 0 24.5 0.5t25.5 1.5 q8 1 16 1t16 1h2h9q12 0 23.5 -2.5t16.5 -11.5q1 -4 1 -9.5t-6 -12.5q-9 -9 -26 -9h-9t-8 1h-4q-15 2 -30.5 2.5t-31.5 -1.5h-5h-8q-9 0 -12.5 -0.5t-5.5 -0.5q-1 -2 -0.5 -7t0.5 -8q0 -2 0.5 -3t0.5 -3q1 -17 1.5 -34.5t0.5 -37.5v-74q0 -23 -0.5 -46t0.5 -46 q0 -12 0.5 -24t1.5 -24q0 -8 0.5 -16.5t0.5 -16.5v-11q1 -5 1 -10v-10q0 -1 0.5 -1.5t0.5 -2.5q2 -6 2.5 -13t-4.5 -14q-5 -5 -9.5 -7t-7.5 -2q-14 0 -19 13t-6 19q-1 12 2 27q0 3 0.5 6t0.5 7q2 27 1.5 55t-1.5 55q-1 13 -1.5 25t-0.5 24q0 21 -0.5 41.5t-0.5 41.5 q-2 63 -3 126.5t0 127.5v49q1 80 1 160.5t-5 160.5v7z" />
<glyph unicode="&#xfb03;" horiz-adv-x="892" d="M754 36v16t1 16q0 5 0.5 10.5t0.5 10.5v17q-1 101 -1.5 204t-1.5 206q-1 32 -1 64.5v64.5v118l-1 26v94q1 13 0.5 25.5t-2.5 26.5q-2 15 -1.5 30.5t8.5 27.5q2 5 7 6.5t10 -0.5v-1h3q4 -1 11 -3.5t6 -12.5q4 -10 4 -21t-1 -19l-1 -3q-2 -17 -2 -35v-38q2 -38 1.5 -76 t-0.5 -76v-60q0 -69 0.5 -136.5t0.5 -136.5q0 -42 0.5 -83.5t0.5 -83.5q0 -47 3 -101v-14.5t-1 -14.5v-19v-6.5t1 -6.5q1 -6 1.5 -13t-1.5 -14q-4 -25 -20 -25q-13 0 -18.5 13.5t-6.5 22.5zM375 945q-1 8 -1 16.5t5 16.5q6 11 17.5 13.5t21.5 2.5q9 0 13 -1h3q23 -1 44 -0.5 t47 1.5q14 1 26.5 1.5t25.5 0.5h21t20 1q5 0 10 0.5t10 0.5q7 1 13.5 1t13.5 1h4q13 0 18 -2q7 -3 11 -7q4 -3 6.5 -7.5t1.5 -9.5q0 -3 -1 -4q-2 -5 -4.5 -9t-9.5 -4h-1q-5 -2 -9 -2h-8h-6.5t-7.5 1h-7q-20 -2 -40 -2h-41h-4h-37q-9 1 -18 1h-18q-11 0 -21 -0.5t-19 -0.5 q-3 -1 -12 -1h-14t-12 -2q-3 -3 -3 -25l1 -5v-25q1 -11 1 -21.5v-21.5q2 -23 1.5 -45.5t-0.5 -44.5v-39.5t1 -39.5q2 -45 2 -85t-1 -79v-10t-1 -10q-2 -12 -2 -24.5t3 -21.5q1 -1 1 -2h9l2 -1q12 0 24.5 0.5t25.5 1.5q8 1 16 1t16 1h2h9q12 0 23.5 -2.5t16.5 -11.5 q1 -4 1 -9.5t-6 -12.5q-9 -9 -26 -9h-9t-8 1h-4q-15 2 -30.5 2.5t-31.5 -1.5h-5h-8q-9 0 -12.5 -0.5t-5.5 -0.5q-1 -2 -0.5 -7t0.5 -8q0 -2 0.5 -3t0.5 -3q1 -17 1.5 -34.5t0.5 -37.5v-74q0 -23 -0.5 -46t0.5 -46q0 -12 0.5 -24t1.5 -24q0 -8 0.5 -16.5t0.5 -16.5v-11 q1 -5 1 -10v-10q0 -1 0.5 -1.5t0.5 -2.5q2 -6 2.5 -13t-4.5 -14q-5 -5 -9.5 -7t-7.5 -2q-14 0 -19 13t-6 19q-1 12 2 27q0 3 0.5 6t0.5 7q2 27 1.5 55t-1.5 55q-1 13 -1.5 25t-0.5 24q0 21 -0.5 41.5t-0.5 41.5q-2 63 -3 126.5t0 127.5v49q1 80 1 160.5t-5 160.5v7zM1 945 q-1 8 -1 16.5t5 16.5q6 11 17.5 13.5t21.5 2.5q9 0 13 -1h3q23 -1 44 -0.5t47 1.5q14 1 26.5 1.5t25.5 0.5h21t20 1q5 0 10 0.5t10 0.5q7 1 13.5 1t13.5 1h4q13 0 18 -2q7 -3 11 -7q4 -3 6.5 -7.5t1.5 -9.5q0 -3 -1 -4q-2 -5 -4.5 -9t-9.5 -4h-1q-5 -2 -9 -2h-8h-6.5t-7.5 1 h-7q-20 -2 -40 -2h-41h-4h-37q-9 1 -18 1h-18q-11 0 -21 -0.5t-19 -0.5q-3 -1 -12 -1h-14t-12 -2q-3 -3 -3 -25l1 -5v-25q1 -11 1 -21.5v-21.5q2 -23 1.5 -45.5t-0.5 -44.5v-39.5t1 -39.5q2 -45 2 -85t-1 -79v-10t-1 -10q-2 -12 -2 -24.5t3 -21.5q1 -1 1 -2h9l2 -1 q12 0 24.5 0.5t25.5 1.5q8 1 16 1t16 1h2h9q12 0 23.5 -2.5t16.5 -11.5q1 -4 1 -9.5t-6 -12.5q-9 -9 -26 -9h-9t-8 1h-4q-15 2 -30.5 2.5t-31.5 -1.5h-5h-8q-9 0 -12.5 -0.5t-5.5 -0.5q-1 -2 -0.5 -7t0.5 -8q0 -2 0.5 -3t0.5 -3q1 -17 1.5 -34.5t0.5 -37.5v-74 q0 -23 -0.5 -46t0.5 -46q0 -12 0.5 -24t1.5 -24q0 -8 0.5 -16.5t0.5 -16.5v-11q1 -5 1 -10v-10q0 -1 0.5 -1.5t0.5 -2.5q2 -6 2.5 -13t-4.5 -14q-5 -5 -9.5 -7t-7.5 -2q-14 0 -19 13t-6 19q-1 12 2 27q0 3 0.5 6t0.5 7q2 27 1.5 55t-1.5 55q-1 13 -1.5 25t-0.5 24 q0 21 -0.5 41.5t-0.5 41.5q-2 63 -3 126.5t0 127.5v49q1 80 1 160.5t-5 160.5v7z" />
<glyph unicode="&#xfb04;" horiz-adv-x="1043" d="M947 49q9 -1 20 -3t16 -11q4 -9 -1 -19q-7 -11 -19 -13.5t-22 -2.5q-6 0 -12 0.5t-11 0.5q-2 0 -4.5 0.5t-4.5 0.5q-6 0 -12.5 0.5t-12.5 0.5q-15 1 -29.5 1.5t-30.5 -0.5q-7 0 -12 -1q-6 -1 -12.5 -1.5t-12.5 -0.5q-15 0 -22 5q-10 8 -10.5 20.5t1.5 24.5q0 2 0.5 4.5 t0.5 4.5q1 50 0 100l-2 100q-1 22 -1.5 43t-0.5 42q-1 37 -1.5 73t-0.5 72q-1 43 -1 86.5t-1 87.5q-1 38 -1 78.5t2 90.5q1 17 1 37.5t1 41.5v10q-2 41 0 57.5t13 19.5q1 1 5 1h4q2 -1 3 -1t3 -1h1q5 -2 8.5 -4.5t2.5 -9.5q5 -11 4 -24.5t-3 -25.5q-1 -4 -1 -11 q-2 -21 -2 -44v-46v-41v-96.5t1 -96.5v-51t1 -51q0 -71 0.5 -143t4.5 -145v-29t-1 -29q0 -15 -0.5 -30.5t0.5 -30.5q1 -4 0.5 -7.5t-0.5 -8.5q0 -6 -0.5 -14.5t1.5 -12.5q2 -2 10 -2q16 -1 32 -0.5t33 2.5q18 2 36 2.5t37 -0.5h2v0zM375 945q-1 8 -1 16.5t5 16.5 q6 11 17.5 13.5t21.5 2.5q9 0 13 -1h3q23 -1 44 -0.5t47 1.5q14 1 26.5 1.5t25.5 0.5h21t20 1q5 0 10 0.5t10 0.5q7 1 13.5 1t13.5 1h4q13 0 18 -2q7 -3 11 -7q4 -3 6.5 -7.5t1.5 -9.5q0 -3 -1 -4q-2 -5 -4.5 -9t-9.5 -4h-1q-5 -2 -9 -2h-8h-6.5t-7.5 1h-7q-20 -2 -40 -2 h-41h-4h-37q-9 1 -18 1h-18q-11 0 -21 -0.5t-19 -0.5q-3 -1 -12 -1h-14t-12 -2q-3 -3 -3 -25l1 -5v-25q1 -11 1 -21.5v-21.5q2 -23 1.5 -45.5t-0.5 -44.5v-39.5t1 -39.5q2 -45 2 -85t-1 -79v-10t-1 -10q-2 -12 -2 -24.5t3 -21.5q1 -1 1 -2h9l2 -1q12 0 24.5 0.5t25.5 1.5 q8 1 16 1t16 1h2h9q12 0 23.5 -2.5t16.5 -11.5q1 -4 1 -9.5t-6 -12.5q-9 -9 -26 -9h-9t-8 1h-4q-15 2 -30.5 2.5t-31.5 -1.5h-5h-8q-9 0 -12.5 -0.5t-5.5 -0.5q-1 -2 -0.5 -7t0.5 -8q0 -2 0.5 -3t0.5 -3q1 -17 1.5 -34.5t0.5 -37.5v-74q0 -23 -0.5 -46t0.5 -46 q0 -12 0.5 -24t1.5 -24q0 -8 0.5 -16.5t0.5 -16.5v-11q1 -5 1 -10v-10q0 -1 0.5 -1.5t0.5 -2.5q2 -6 2.5 -13t-4.5 -14q-5 -5 -9.5 -7t-7.5 -2q-14 0 -19 13t-6 19q-1 12 2 27q0 3 0.5 6t0.5 7q2 27 1.5 55t-1.5 55q-1 13 -1.5 25t-0.5 24q0 21 -0.5 41.5t-0.5 41.5 q-2 63 -3 126.5t0 127.5v49q1 80 1 160.5t-5 160.5v7zM1 945q-1 8 -1 16.5t5 16.5q6 11 17.5 13.5t21.5 2.5q9 0 13 -1h3q23 -1 44 -0.5t47 1.5q14 1 26.5 1.5t25.5 0.5h21t20 1q5 0 10 0.5t10 0.5q7 1 13.5 1t13.5 1h4q13 0 18 -2q7 -3 11 -7q4 -3 6.5 -7.5t1.5 -9.5 q0 -3 -1 -4q-2 -5 -4.5 -9t-9.5 -4h-1q-5 -2 -9 -2h-8h-6.5t-7.5 1h-7q-20 -2 -40 -2h-41h-4h-37q-9 1 -18 1h-18q-11 0 -21 -0.5t-19 -0.5q-3 -1 -12 -1h-14t-12 -2q-3 -3 -3 -25l1 -5v-25q1 -11 1 -21.5v-21.5q2 -23 1.5 -45.5t-0.5 -44.5v-39.5t1 -39.5q2 -45 2 -85 t-1 -79v-10t-1 -10q-2 -12 -2 -24.5t3 -21.5q1 -1 1 -2h9l2 -1q12 0 24.5 0.5t25.5 1.5q8 1 16 1t16 1h2h9q12 0 23.5 -2.5t16.5 -11.5q1 -4 1 -9.5t-6 -12.5q-9 -9 -26 -9h-9t-8 1h-4q-15 2 -30.5 2.5t-31.5 -1.5h-5h-8q-9 0 -12.5 -0.5t-5.5 -0.5q-1 -2 -0.5 -7t0.5 -8 q0 -2 0.5 -3t0.5 -3q1 -17 1.5 -34.5t0.5 -37.5v-74q0 -23 -0.5 -46t0.5 -46q0 -12 0.5 -24t1.5 -24q0 -8 0.5 -16.5t0.5 -16.5v-11q1 -5 1 -10v-10q0 -1 0.5 -1.5t0.5 -2.5q2 -6 2.5 -13t-4.5 -14q-5 -5 -9.5 -7t-7.5 -2q-14 0 -19 13t-6 19q-1 12 2 27q0 3 0.5 6t0.5 7 q2 27 1.5 55t-1.5 55q-1 13 -1.5 25t-0.5 24q0 21 -0.5 41.5t-0.5 41.5q-2 63 -3 126.5t0 127.5v49q1 80 1 160.5t-5 160.5v7z" />
</font>
</defs>
</svg>
