<?xml version="1.0" encoding="utf-8"?>
<!-- Generator: Adobe Illustrator 15.1.0, SVG Export Plug-In  -->
<!DOCTYPE svg PUBLIC "-//W3C//DTD SVG 1.1//EN" "http://www.w3.org/Graphics/SVG/1.1/DTD/svg11.dtd" [
	<!ENTITY ns_flows "http://ns.adobe.com/Flows/1.0/">
]>
<svg version="1.1"
	 xmlns="http://www.w3.org/2000/svg" xmlns:xlink="http://www.w3.org/1999/xlink" xmlns:a="http://ns.adobe.com/AdobeSVGViewerExtensions/3.0/"
	 x="0px" y="0px" width="191px" height="113px" viewBox="-0.7 -0.4 191 113"
	 style="overflow:visible;enable-background:new -0.7 -0.4 191 113;" xml:space="preserve">
<defs>
</defs>
<g>
	<path style="fill:#01A14A;" d="M189.5,87.4c0,13.1-11.1,24.2-24.2,24.2c-17.7,0-17.7-0.8-35.4-0.8c-17.7,0-17.7,0.5-35.4,0.5
		c-17.7,0-17.7-0.2-35.4-0.2s-17.7,0.5-35.4,0.5c-13.1,0-23.6-11.1-23.6-24.2C0.2,71.6,0,71.6,0,55.7s0.1-15.8,0.1-31.6
		C0.1,11,10.7,0.3,23.8,0.3c17.7,0,17.7,0.1,35.4,0.1S76.9,0,94.6,0c17.7,0,17.7,0.7,35.4,0.7s17.7-0.2,35.4-0.2
		c13.1,0,23.8,10.4,23.8,23.5c0,15.8-0.2,15.8-0.2,31.6C189,71.6,189.5,71.6,189.5,87.4z"/>
</g>
</svg>
